<?xml version="1.0" encoding="utf-8"?>
<!-- Generator: Adobe Illustrator 22.0.1, SVG Export Plug-In . SVG Version: 6.00 Build 0)  -->
<svg version="1.1" id="Layer_1" xmlns="http://www.w3.org/2000/svg" xmlns:xlink="http://www.w3.org/1999/xlink" x="0px" y="0px"
	 viewBox="0 0 127 127" style="enable-background:new 0 0 127 127;" xml:space="preserve">
<style type="text/css">
	.st0{enable-background:new    ;}
	.st1{fill:#6F5A95;}
	.st2{fill:#E07149;}
	.st3{fill:#27B9CE;}
</style>
<g id="clinics" class="st0">
	<path class="st1" d="M39.3,74.1L39.3,74.1c0-2.4,1.8-4.4,4.2-4.4c1.6,0,2.5,0.7,3.3,1.5L46,72.1c-0.7-0.7-1.4-1.2-2.5-1.2
		c-1.7,0-3,1.4-3,3.2v0c0,1.8,1.3,3.2,3,3.2c1.1,0,1.9-0.5,2.5-1.2l0.8,0.7c-0.8,0.9-1.8,1.6-3.4,1.6C41.1,78.4,39.3,76.4,39.3,74.1
		z"/>
	<path class="st1" d="M49,66.5h1.2v11.7H49V66.5z"/>
	<path class="st1" d="M53.1,66.8h1.4v1.4h-1.4V66.8z M53.2,69.9h1.2v8.3h-1.2V69.9z"/>
	<path class="st1" d="M57.3,69.9h1.2v1.4c0.5-0.9,1.4-1.6,2.8-1.6c2,0,3.2,1.3,3.2,3.3v5.1h-1.2v-4.8c0-1.5-0.8-2.5-2.3-2.5
		c-1.4,0-2.5,1-2.5,2.6v4.7h-1.2V69.9z"/>
	<path class="st1" d="M67.2,66.8h1.4v1.4h-1.4V66.8z M67.3,69.9h1.2v8.3h-1.2V69.9z"/>
	<path class="st1" d="M70.9,74.1L70.9,74.1c0-2.4,1.8-4.4,4.2-4.4c1.6,0,2.5,0.7,3.3,1.5l-0.8,0.9c-0.7-0.7-1.4-1.2-2.5-1.2
		c-1.7,0-3,1.4-3,3.2v0c0,1.8,1.3,3.2,3,3.2c1.1,0,1.9-0.5,2.5-1.2l0.8,0.7c-0.8,0.9-1.8,1.6-3.4,1.6C72.7,78.4,70.9,76.4,70.9,74.1
		z"/>
	<path class="st1" d="M79.8,77.1l0.6-0.9c0.9,0.7,1.9,1.1,2.9,1.1c1,0,1.7-0.5,1.7-1.3v0c0-0.8-1-1.2-2.1-1.5
		c-1.3-0.4-2.7-0.8-2.7-2.3v0c0-1.4,1.2-2.4,2.8-2.4c1,0,2.1,0.4,3,0.9l-0.6,0.9c-0.8-0.5-1.6-0.8-2.4-0.8c-1,0-1.6,0.5-1.6,1.2v0
		c0,0.8,1,1.1,2.1,1.4c1.3,0.4,2.7,0.9,2.7,2.4v0c0,1.6-1.3,2.5-2.9,2.5C82.1,78.4,80.8,77.9,79.8,77.1z"/>
</g>
<g id="_x32_6" class="st0">
	<path class="st1" d="M48.6,58.3l5.8-4.9c2.3-1.9,3.1-3,3.1-4.5c0-1.7-1.2-2.6-2.7-2.6s-2.6,0.8-3.9,2.5l-2.1-1.6
		c1.6-2.3,3.2-3.5,6.2-3.5c3.3,0,5.5,2,5.5,5v0c0,2.6-1.4,4.1-4.4,6.5L52.7,58h8v2.6H48.6V58.3z"/>
	<path class="st1" d="M65.5,59.1c-1.3-1.3-2-3-2-6.4v0c0-5.1,2.4-9.1,7.2-9.1c2.2,0,3.7,0.7,5.1,1.9l-1.6,2.3
		c-1.2-0.9-2.2-1.5-3.6-1.5c-2.5,0-3.9,2.3-4,5.3c0.9-0.9,2-1.7,4-1.7c3.3,0,5.9,1.9,5.9,5.3v0c0,3.3-2.7,5.7-6.2,5.7
		C68.1,60.9,66.6,60.2,65.5,59.1z M73.5,55.3L73.5,55.3c0-1.7-1.3-3-3.4-3s-3.4,1.3-3.4,3v0c0,1.7,1.4,3,3.5,3
		C72.2,58.3,73.5,57,73.5,55.3z"/>
</g>
<g id="pie-chart">
	<path id="orange" class="st2" d="M22.2,41.9c-3.3,6.3-5.1,13.3-5.3,20.4C16.7,69.4,18,76.5,21,83c2.9,6.5,7.3,12.2,12.8,16.8
		c5.5,4.5,12,7.8,18.8,9.5c6.9,1.7,14.2,1.9,21.1,0.4c6.9-1.5,13.5-4.6,19.1-9c5.6-4.3,10.2-10.1,13.3-16.4
		c3.1-6.4,4.8-13.4,4.8-20.5h16c0,19-9.1,37.9-24.2,49.6c-7.5,5.8-16.3,10-25.6,12c-9.3,2-19,1.8-28.3-0.5
		c-9.2-2.3-18-6.6-25.3-12.7c-7.3-6.1-13.2-13.9-17.1-22.5c-8-17.4-7.2-38.2,1.7-55.1L22.2,41.9z"/>
	<path id="blue" class="st3" d="M110.8,63.7c-0.1-5.2-0.9-10.4-2.6-15.3l-0.7-1.8c-0.2-0.6-0.4-1.2-0.7-1.8l-1.7-3.5l-2-3.3
		c-0.3-0.6-0.8-1.1-1.1-1.6l-1.2-1.6c-6.4-8.2-15.6-14.3-25.7-16.6c-0.6-0.2-1.3-0.3-1.9-0.5l-1.9-0.3c-1.3-0.2-2.6-0.5-3.9-0.5
		c-1.3,0-2.6-0.2-3.9-0.2l-3.9,0.2c-5.2,0.5-10.3,1.8-15,4c-1.2,0.6-2.4,1.1-3.5,1.7l-3.3,2c-1.1,0.8-2.1,1.6-3.1,2.3
		c-0.5,0.4-1,0.8-1.5,1.3l-1.4,1.3c-3.8,3.6-7,7.8-9.4,12.4L8.1,34.4c3.3-6.2,7.6-11.8,12.6-16.6l1.9-1.8c0.6-0.6,1.3-1.2,2-1.7
		c1.4-1,2.8-2.1,4.2-3.1l4.5-2.7C34.8,7.7,36.4,7,38,6.3C44.4,3.4,51.2,1.6,58.1,1l5.2-0.3c1.7,0,3.5,0.1,5.2,0.2
		c1.7,0,3.5,0.4,5.2,0.6l2.6,0.4c0.9,0.2,1.7,0.4,2.5,0.6c13.6,3.2,25.9,11.4,34.5,22.3l1.6,2.1c0.5,0.7,1.1,1.4,1.5,2.1l2.7,4.5
		c0.8,1.6,1.5,3.1,2.3,4.7c0.4,0.8,0.7,1.6,1,2.4l0.9,2.5c2.3,6.6,3.4,13.6,3.5,20.5H110.8z"/>
</g>
</svg>
