<?xml version="1.0" encoding="utf-8"?>
<!-- Generator: Adobe Illustrator 16.0.0, SVG Export Plug-In . SVG Version: 6.00 Build 0)  -->
<!DOCTYPE svg PUBLIC "-//W3C//DTD SVG 1.1//EN" "http://www.w3.org/Graphics/SVG/1.1/DTD/svg11.dtd">
<svg version="1.1" id="Layer_1" xmlns="http://www.w3.org/2000/svg" xmlns:xlink="http://www.w3.org/1999/xlink" x="0px" y="0px"
	 width="527px" height="587px" viewBox="0 0 527 587" enable-background="new 0 0 527 587" xml:space="preserve">
<text transform="matrix(1 0 0 1 8 17.4629)" fill="#E1714A" font-family="'Gotham-Book'" font-size="24">CO MDI By the Numbers (2015-2022)</text>
<g id="_x31_00_x25_" transform="translate(7.500000, 530.162109)">
	<g id="_x30_05-doctor" transform="translate(0.000000, 0.000000)">
		<path id="Path" fill="#9A8BB4" d="M19.47-4.537c-4.732,0-8.58,3.85-8.58,8.581v4.445c0,4.732,3.848,8.582,8.58,8.582
			s8.58-3.85,8.58-8.582V4.044C28.05-0.688,24.202-4.537,19.47-4.537z"/>
		<path id="Shape" fill="#9A8BB4" d="M38.393,28.253c-2.748-4.682-7.139-8.153-12.366-9.773c-0.122-0.038-0.252-0.006-0.343,0.083
			c-2.431,2.397-5.453,4.268-6.208,4.72c-0.807-0.516-4.203-2.729-6.221-4.72c-0.09-0.089-0.222-0.121-0.343-0.083
			c-5.227,1.621-9.618,5.092-12.365,9.774c-0.063,0.107-0.063,0.24,0,0.348c3.9,6.646,11.15,10.773,18.922,10.773
			c7.772,0,15.022-4.128,18.923-10.773C38.456,28.493,38.456,28.36,38.393,28.253z M31.14,30.812c0,0.189-0.18,0.334-0.37,0.334
			h-2.324c-0.189,0-0.396,0.163-0.396,0.353v2.403c0,0.189-0.101,0.334-0.291,0.334h-2.087c-0.189,0-0.368-0.145-0.368-0.334v-2.403
			c-0.001-0.189-0.13-0.353-0.319-0.353h-2.424c-0.189,0-0.346-0.145-0.346-0.334v-2.068c0-0.189,0.157-0.343,0.346-0.343h2.424
			c0.189,0,0.318-0.154,0.318-0.344v-2.406c0-0.189,0.179-0.339,0.368-0.339h2.064c0.189,0,0.313,0.149,0.313,0.339v2.413
			c0,0.189,0.183,0.337,0.373,0.337h2.347c0.189,0,0.37,0.16,0.37,0.35V30.812L31.14,30.812z"/>
	</g>
	<text transform="matrix(1 0 0 1 74.2339 10.4629)" fill="#262626" font-family="'Gotham-Book'" font-size="16">100% of patients are </text>
	<text transform="matrix(1 0 0 1 74.2339 32.4629)" fill="#262626" font-family="'Gotham-Book'" font-size="16">referred to a dentist</text>
</g>
<g id="_x3E_55_x25_" transform="translate(14.000000, 400.349609)">
	<g id="_x30_04-tooth" transform="translate(0.000000, 11.000000)">
		<path id="Path_1_" fill="#E1714A" d="M30.334-3.939c-2.18,0.594-3.288,1.281-4.572,2.077c-0.815,0.523-1.661,0.999-2.532,1.423
			c2.219,0.945,4.025,1.241,5.614,0.932c0.23-0.045,0.467,0.036,0.621,0.213c0.154,0.177,0.202,0.423,0.126,0.645
			s-0.265,0.387-0.495,0.432c-1.367,0.267-3.652,0.39-7.687-1.617c-0.4-0.199-0.942-0.512-1.57-0.874
			c-2.095-1.21-5.261-3.039-7.798-3.375C9.109-4.475,6.625-4.014,4.66-2.717c-1.683,1.111-2.932,2.821-3.61,4.944
			C0.371,4.393,0.321,6.706,0.905,8.898c0.595,2.154,1.77,3.789,3.309,4.604c2.792,1.478,4.246,2.384,4.959,3.536
			c0.741,1.197,0.63,2.521,0.446,4.712c-0.029,0.341-0.06,0.706-0.089,1.099c-0.421,5.511,0.375,12.687,3.875,16.302
			c0.124,0.088,0.261,0.153,0.408,0.193c0.333,0.132,0.71,0.071,0.985-0.158c0.275-0.229,0.401-0.591,0.33-0.941
			c-0.003-0.018-0.006-0.035-0.008-0.054c-0.203-2.372-0.199-4.757,0.012-7.129c0.462-5.318,1.858-9.43,4.151-12.22
			c0.624-0.747,1.548-1.177,2.521-1.171c0.973,0.005,1.893,0.444,2.508,1.198c2.248,2.805,3.615,6.915,4.065,12.219
			c0.206,2.363,0.208,4.739,0.007,7.103c-0.002,0.018-0.004,0.036-0.008,0.054c-0.071,0.351,0.055,0.712,0.33,0.941
			s0.653,0.29,0.985,0.158c0.147-0.04,0.286-0.105,0.409-0.194c3.499-3.614,4.295-10.79,3.874-16.301
			c-0.03-0.391-0.061-0.755-0.089-1.094c-0.184-2.192-0.295-3.516,0.446-4.713c0.717-1.157,2.108-2.027,4.958-3.54
			c1.602-0.851,2.833-2.726,3.377-5.143c0.546-2.429,0.35-5.107-0.538-7.35C40.271-3.673,35.974-5.478,30.334-3.939z"/>
	</g>
	<text transform="matrix(1 0 0 1 67.7339 10.4629)" fill="#262626" font-family="'Gotham-Book'" font-size="16">&gt;55% of those needing </text>
	<text transform="matrix(1 0 0 1 67.7339 32.4629)" fill="#262626" font-family="'Gotham-Book'" font-size="16">restorative care have </text>
	<text transform="matrix(1 0 0 1 67.7339 54.4629)" fill="#262626" font-family="'Gotham-Book'" font-size="16">received it</text>
</g>
<g id="_x33_9-locations" transform="translate(7.500000, 292.537109)">
	<g id="placeholder" transform="translate(0.000000, 0.000000)">
		<path id="Path_2_" fill="#26BACF" d="M16.931,7.54c-2.44,0-4.425,2.042-4.425,4.552s1.985,4.551,4.425,4.551
			c2.44,0,4.425-2.041,4.425-4.551S19.372,7.54,16.931,7.54z"/>
		<path id="Shape_1_" fill="#26BACF" d="M16.931-4.537c-9.035,0-16.385,7.561-16.385,16.854c0,3.938,1.32,7.564,3.528,10.436
			l12.857,16.627l12.857-16.627c2.208-2.871,3.528-6.498,3.528-10.436C33.317,3.023,25.966-4.537,16.931-4.537z M16.931,19.678
			c-4.067,0-7.375-3.403-7.375-7.586c0-4.184,3.309-7.586,7.375-7.586s7.375,3.402,7.375,7.586
			C24.307,16.274,20.998,19.678,16.931,19.678z"/>
	</g>
	<text transform="matrix(1 0 0 1 74.2339 21.4629)" fill="#262626" font-family="'Gotham-Book'" font-size="16">39 CO MDI locations</text>
</g>
<g id="_x32_6-grantees" transform="translate(0.000000, 184.724609)">
	<g id="_x30_03-teamwork" transform="translate(0.000000, 0.000000)">
		<circle id="Oval" fill="#6F5A95" cx="22.543" cy="0.953" r="5.489"/>
		<path id="Path_3_" fill="#6F5A95" d="M30.766,21.362l-1.246-9.705c-0.14-1.408-1.314-2.47-2.728-2.47h-1.504
			c-0.365,0-0.714,0.146-0.972,0.401l-1.773,1.773L20.77,9.587c-0.258-0.255-0.606-0.401-0.971-0.401h-1.501
			c-1.417,0-2.591,1.062-2.728,2.435l-1.249,9.743c-0.049,0.39,0.071,0.785,0.332,1.079c0.261,0.296,0.634,0.466,1.029,0.466h1.482
			l1.147,13.998c0.137,1.405,1.315,2.47,2.731,2.47h3.005c1.416,0,2.591-1.065,2.734-2.495l1.144-13.973h1.479
			c0.396,0,0.769-0.17,1.029-0.466C30.697,22.149,30.818,21.754,30.766,21.362z"/>
		<circle id="Oval_1_" fill="#6F5A95" cx="36.266" cy="0.953" r="5.489"/>
		<path id="Path_4_" fill="#6F5A95" d="M8.82-4.537c-3.027,0-5.489,2.462-5.489,5.489S5.792,6.442,8.82,6.442
			c3.024,0,5.489-2.462,5.489-5.489S11.844-4.537,8.82-4.537z"/>
		<path id="Path_5_" fill="#6F5A95" d="M44.489,21.362l-1.246-9.703c-0.14-1.411-1.312-2.473-2.728-2.473h-1.504
			c-0.365,0-0.714,0.146-0.972,0.401l-1.773,1.773l-1.773-1.773c-0.258-0.255-0.607-0.401-0.969-0.401H32.02
			c-0.17,0-0.324,0.061-0.486,0.091c0.354,0.625,0.631,1.304,0.714,2.063l1.243,9.672c0.154,1.177-0.214,2.363-1.004,3.255
			c-0.374,0.428-0.851,0.73-1.361,0.966l0.911,8.928c0.14,1.408,1.314,2.47,2.731,2.47h3.005c1.416,0,2.591-1.065,2.733-2.495
			l1.142-11.229h1.479c0.396,0,0.769-0.17,1.029-0.466C44.42,22.149,44.541,21.754,44.489,21.362z"/>
		<path id="Path_6_" fill="#6F5A95" d="M12.591,24.254c-0.78-0.881-1.142-2.064-0.994-3.236l1.249-9.746
			c0.071-0.73,0.34-1.389,0.683-1.998c-0.154-0.027-0.299-0.088-0.461-0.088h-1.504c-0.365,0-0.714,0.146-0.972,0.401L8.82,11.36
			L7.046,9.587C6.789,9.332,6.44,9.187,6.078,9.187H4.574c-1.417,0-2.591,1.062-2.729,2.435l-1.249,9.743
			c-0.049,0.39,0.071,0.785,0.332,1.079c0.261,0.296,0.637,0.466,1.029,0.466H3.44l1.147,11.253c0.137,1.405,1.314,2.47,2.731,2.47
			h3.005c1.416,0,2.591-1.065,2.733-2.495l0.911-8.907C13.455,24.993,12.975,24.688,12.591,24.254z"/>
	</g>
	<text transform="matrix(1 0 0 1 81.7339 21.4629)" fill="#262626" font-family="'Gotham-Book'" font-size="16">26 grantees</text>
</g>
<g id="_x24_6.6-million" transform="translate(0.000000, 76.912109)">
	<g id="_x30_01-coin">
		<path id="Path_7_" fill="#5FBC4A" d="M14.841,20.945c1.387,0,2.728-0.09,3.997-0.256V6.782c-1.269-0.167-2.609-0.256-3.997-0.256
			C6.921,6.525,0.5,9.438,0.5,13.03v1.411C0.5,18.032,6.921,20.945,14.841,20.945z"/>
		<path id="Path_8_" fill="#5FBC4A" d="M14.841,28.206c1.387,0,2.728-0.089,3.997-0.256v-4.077
			c-1.269,0.167-2.609,0.258-3.997,0.258c-6.914,0-12.684-2.219-14.039-5.172C0.604,19.389,0.5,19.835,0.5,20.292v1.411
			C0.5,25.294,6.921,28.206,14.841,28.206z"/>
		<path id="Path_9_" fill="#5FBC4A" d="M18.837,31.452v-0.317c-1.269,0.167-2.609,0.258-3.997,0.258
			c-6.914,0-12.684-2.219-14.039-5.172C0.604,26.651,0.5,27.096,0.5,27.553v1.411c0,3.592,6.42,6.504,14.341,6.504
			c1.583,0,3.107-0.117,4.532-0.332c-0.353-0.723-0.535-1.484-0.535-2.273V31.452z"/>
		<path id="Path_10_" fill="#5FBC4A" d="M35.518-4.491c-7.92,0-14.341,2.912-14.341,6.504v1.411c0,3.592,6.421,6.504,14.341,6.504
			s14.341-2.912,14.341-6.504V2.014C49.859-1.579,43.438-4.491,35.518-4.491z"/>
		<path id="Path_11_" fill="#5FBC4A" d="M35.518,13.115c-6.914,0-12.684-2.219-14.039-5.172c-0.197,0.43-0.302,0.875-0.302,1.332
			v1.411c0,3.592,6.421,6.504,14.341,6.504s14.341-2.912,14.341-6.504V9.275c0-0.457-0.104-0.902-0.302-1.332
			C48.202,10.896,42.432,13.115,35.518,13.115z"/>
		<path id="Path_12_" fill="#5FBC4A" d="M35.518,20.377c-6.914,0-12.684-2.219-14.039-5.172c-0.197,0.43-0.302,0.875-0.302,1.332
			v1.411c0,3.592,6.421,6.504,14.341,6.504s14.341-2.912,14.341-6.504v-1.411c0-0.457-0.104-0.902-0.302-1.332
			C48.202,18.158,42.432,20.377,35.518,20.377z"/>
		<path id="Path_13_" fill="#5FBC4A" d="M35.518,28.031c-6.914,0-12.684-2.219-14.039-5.172c-0.197,0.43-0.302,0.875-0.302,1.332
			v1.411c0,3.592,6.421,6.504,14.341,6.504s14.341-2.912,14.341-6.504V24.19c0-0.457-0.104-0.902-0.302-1.332
			C48.202,25.812,42.432,28.031,35.518,28.031z"/>
		<path id="Path_14_" fill="#5FBC4A" d="M35.518,35.292c-6.914,0-12.684-2.219-14.039-5.172c-0.197,0.43-0.302,0.876-0.302,1.332
			v1.411c0,3.592,6.421,6.504,14.341,6.504s14.341-2.912,14.341-6.504v-1.411c0-0.457-0.104-0.902-0.302-1.332
			C48.202,33.073,42.432,35.292,35.518,35.292z"/>
	</g>
	<text transform="matrix(1 0 0 1 81.7339 21.4629)" fill="#262626" font-family="'Gotham-Book'" font-size="16">$6.6 million in funding</text>
</g>
<text transform="matrix(1 0 0 1 344 87.375)" fill="#262626" font-family="'Gotham-Book'" font-size="16">62,401 total patient </text>
<text transform="matrix(1 0 0 1 344 109.375)" fill="#262626" font-family="'Gotham-Book'" font-size="16">encounters through </text>
<text transform="matrix(1 0 0 1 344 131.375)" fill="#262626" font-family="'Gotham-Book'" font-size="16">December 2018</text>
<g id="Chart-Legend" transform="translate(343.500000, 304.662109)">
	<text transform="matrix(1 0 0 1 4.4043 8.8281)" fill="#5FBC4A" font-family="'Gotham-Medium'" font-size="14">71%</text>
	<text transform="matrix(1 0 0 1 1.3799 24.8281)" fill="#6F5A95" font-family="'Gotham-Medium'" font-size="14">23%</text>
	<text transform="matrix(1 0 0 1 9.9619 40.8281)" fill="#26BACF" font-family="'Gotham-Medium'" font-size="14">3%</text>
	<text transform="matrix(1 0 0 1 9.9619 56.8281)" fill="#E1714A" font-family="'Gotham-Medium'" font-size="14">3%</text>
	<text transform="matrix(1 0 0 1 62.5 8.8281)" fill="#5FBC4A" font-family="'Gotham-Medium'" font-size="14">Medicaid</text>
	<text transform="matrix(1 0 0 1 62.5 24.8281)" fill="#6F5A95" font-family="'Gotham-Medium'" font-size="14">Uninsured</text>
	<text transform="matrix(1 0 0 1 62.5 40.8281)" fill="#26BACF" font-family="'Gotham-Medium'" font-size="14">CHP+</text>
	<text transform="matrix(1 0 0 1 62.5 56.8281)" fill="#E1714A" font-family="'Gotham-Medium'" font-size="14">Private Insurance</text>
	<text transform="matrix(1 0 0 1 42.5 8.8281)" fill="#666666" font-family="'Gotham-Medium'" font-size="14">::</text>
	<text transform="matrix(1 0 0 1 50.3115 8.8281)" fill="#666666" font-family="'Gotham-Medium'" font-size="14"> </text>
	<text transform="matrix(1 0 0 1 42.5 24.8281)" fill="#666666" font-family="'Gotham-Medium'" font-size="14">::</text>
	<text transform="matrix(1 0 0 1 50.3115 24.8281)" fill="#666666" font-family="'Gotham-Medium'" font-size="14"> </text>
	<text transform="matrix(1 0 0 1 42.5 40.8281)" fill="#666666" font-family="'Gotham-Medium'" font-size="14">::</text>
	<text transform="matrix(1 0 0 1 50.3115 40.8281)" fill="#666666" font-family="'Gotham-Medium'" font-size="14"> </text>
	<text transform="matrix(1 0 0 1 42.5 56.8281)" fill="#666666" font-family="'Gotham-Medium'" font-size="14">::</text>
</g>
<g id="Patient-Insurance-Status" transform="translate(343.500000, 166.162109)">
	<path id="Fill-1" fill="#42AF2A" d="M63.566,121.516c-34.731,0-62.987-28.256-62.987-62.987c0-34.706,28.212-62.946,62.908-62.987
		V9.803C36.655,9.846,14.841,31.688,14.841,58.529c0,26.867,21.858,48.726,48.726,48.726c9.862,0,19.361-2.932,27.47-8.478
		c7.895-5.4,13.982-12.911,17.608-21.726l13.168,5.479c-4.695,11.383-12.569,21.082-22.772,28.051
		C88.565,117.735,76.3,121.516,63.566,121.516"/>
	<path id="Fill-3" fill="#FFFFFF" d="M63.566-4.537C28.735-4.537,0.5,23.698,0.5,58.529c0,34.83,28.235,63.066,63.066,63.066
		c26.348,0,48.917-16.16,58.35-39.107l-13.315-5.54c-7.261,17.733-24.687,30.228-45.034,30.228
		c-26.867,0-48.646-21.78-48.646-48.646c0-26.867,21.779-48.646,48.646-48.646V-4.537z M63.408-4.379V9.725
		c-12.978,0.041-25.172,5.113-34.353,14.294c-9.218,9.218-14.294,21.474-14.294,34.511c0,13.036,5.076,25.292,14.294,34.51
		s21.475,14.294,34.511,14.294c9.878,0,19.393-2.937,27.515-8.491c7.886-5.394,13.971-12.891,17.606-21.687l13.021,5.417
		c-4.693,11.337-12.545,20.997-22.714,27.942c-10.461,7.145-22.712,10.921-35.429,10.921c-8.492,0-16.731-1.663-24.486-4.944
		c-7.491-3.168-14.219-7.704-19.996-13.481S8.771,90.507,5.602,83.016c-3.28-7.755-4.943-15.994-4.943-24.486
		c0-8.493,1.663-16.731,4.943-24.487c3.169-7.491,7.705-14.219,13.482-19.996S31.589,3.733,39.08,0.565
		C46.787-2.695,54.971-4.358,63.408-4.379L63.408-4.379z"/>
	<path id="Fill-5" fill="#563D82" d="M111.322,48.819c-2.191-10.833-8.106-20.706-16.663-27.806
		C85.99,13.82,75.009,9.842,63.728,9.805l0.024-14.261c14.613,0.043,28.836,5.202,40.055,14.53
		c11.076,9.209,18.717,22.01,21.521,36.052L111.322,48.819z"/>
	<path id="Fill-7" fill="#FFFFFF" d="M63.673-4.536L63.648,9.884c23.537,0.039,43.153,16.794,47.612,39.028l14.161-2.724
		C119.69,17.3,94.231-4.485,63.673-4.536 M63.831-4.377c7.4,0.03,14.64,1.333,21.521,3.875c6.697,2.473,12.89,6.051,18.404,10.637
		c11.041,9.18,18.664,21.935,21.479,35.929l-13.851,2.664c-2.207-10.821-8.125-20.679-16.675-27.774
		c-4.275-3.548-9.075-6.317-14.265-8.23c-5.321-1.961-10.918-2.97-16.639-2.997L63.831-4.377"/>
	<path id="Fill-9" fill="#00AEC6" d="M112.145,62.334c0.098-1.271,0.147-2.55,0.147-3.805c0-3.188-0.312-6.383-0.928-9.499
		c4.823-0.923,9.573-1.831,14.009-2.679c0.783,3.999,1.181,8.095,1.181,12.178c0,1.661-0.068,3.363-0.204,5.06L112.145,62.334z"/>
	<g id="Group-13" transform="translate(110.603649, 50.706544)">
		<g id="Clip-12">
		</g>
		<defs>
			<filter id="Adobe_OpacityMaskFilter" filterUnits="userSpaceOnUse" x="0.668" y="-4.448" width="15.361" height="17.416">
				<feColorMatrix  type="matrix" values="1 0 0 0 0  0 1 0 0 0  0 0 1 0 0  0 0 0 1 0"/>
			</filter>
		</defs>
		<mask maskUnits="userSpaceOnUse" x="0.668" y="-4.448" width="15.361" height="17.416" id="mask-2">
			<g filter="url(#Adobe_OpacityMaskFilter)">
				<polygon id="path-1" fill="#FFFFFF" points="0.668,-4.448 16.029,-4.448 16.029,12.968 0.668,12.968 				"/>
			</g>
		</mask>
		<path id="Fill-11" mask="url(#mask-2)" fill="#FFFFFF" d="M14.832-4.448C10.35-3.591,5.546-2.673,0.668-1.739
			C1.284,1.353,1.609,4.55,1.609,7.823c0,1.305-0.053,2.598-0.153,3.877l14.363,1.269c0.137-1.697,0.21-3.413,0.21-5.146
			C16.029,3.624,15.615-0.478,14.832-4.448 M14.707-4.262c0.772,3.969,1.163,8.033,1.163,12.085c0,1.633-0.065,3.306-0.196,4.974
			L1.626,11.556c0.094-1.247,0.142-2.501,0.142-3.733c0-3.166-0.308-6.34-0.914-9.436C5.622-2.526,10.317-3.424,14.707-4.262"/>
	</g>
	<path id="Fill-14" fill="#E1572A" d="M108.704,76.905c1.863-4.573,3.014-9.393,3.42-14.328l14.21,1.278
		c-0.523,6.395-1.992,12.641-4.365,18.569L108.704,76.905z"/>
	<path id="Fill-16" fill="#FFFFFF" d="M112.052,62.491c-0.409,5.08-1.601,9.938-3.451,14.457l13.315,5.54l0.097,0.04
		c2.356-5.865,3.876-12.163,4.406-18.745L112.052,62.491z M112.196,62.663l14.052,1.264c-0.525,6.332-1.979,12.519-4.323,18.393
		l-13.118-5.458C110.646,72.328,111.786,67.553,112.196,62.663L112.196,62.663z"/>
	<text transform="matrix(1 0 0 1 36.8672 48.8223)" fill="#6F5A95" font-family="'Gotham-Book'" font-size="16">Patient</text>
	<text transform="matrix(1 0 0 1 93.043 48.8223)" fill="#6F5A95" font-family="'Gotham-Book'" font-size="16"> </text>
	<text transform="matrix(1 0 0 1 27.0029 66.8223)" fill="#6F5A95" font-family="'Gotham-Book'" font-size="16">Insurance</text>
	<text transform="matrix(1 0 0 1 102.9062 66.8223)" fill="#6F5A95" font-family="'Gotham-Book'" font-size="16"> </text>
	<text transform="matrix(1 0 0 1 39.9062 84.8223)" fill="#6F5A95" font-family="'Gotham-Book'" font-size="16">Status</text>
</g>
<g id="Chart-Legend_1_" transform="translate(343.500000, 550.162109)">
	<text transform="matrix(1 0 0 1 0.792 8.8281)" fill="#5FBC4A" font-family="'Gotham-Medium'" font-size="14">59%</text>
	<text transform="matrix(1 0 0 1 3.8164 24.8281)" fill="#6F5A95" font-family="'Gotham-Medium'" font-size="14">41%</text>
	<text transform="matrix(1 0 0 1 62.5 8.8281)" fill="#5FBC4A" font-family="'Gotham-Medium'" font-size="14">Ages 0-18</text>
	<text transform="matrix(1 0 0 1 62.5 24.8281)" fill="#6F5A95" font-family="'Gotham-Medium'" font-size="14">Ages 18+</text>
	<text transform="matrix(1 0 0 1 42.5 8.8281)" fill="#666666" font-family="'Gotham-Medium'" font-size="14">::</text>
	<text transform="matrix(1 0 0 1 50.3115 8.8281)" fill="#666666" font-family="'Gotham-Medium'" font-size="14"> </text>
	<text transform="matrix(1 0 0 1 42.5 24.8281)" fill="#666666" font-family="'Gotham-Medium'" font-size="14">::</text>
</g>
<g id="Age-Breakout" transform="translate(343.500000, 411.662109)">
	<g id="Group-5" transform="translate(0.000000, -0.000000)">
		<path id="Fill-1_1_" fill="#563D82" d="M19.85,77.169c-1.855-4.53-3.049-9.4-3.459-14.493c-0.002-0.028-0.006-0.057-0.008-0.085
			c-0.102-1.282-0.154-2.578-0.154-3.887c0-3.281,0.327-6.485,0.944-9.585c0.004-0.019,0.007-0.037,0.011-0.057
			c4.47-22.288,24.134-39.085,47.729-39.124c0.027,0,0.055-0.001,0.082-0.001c10.627,0,20.459,3.401,28.47,9.172l8.246-10.798
			C73.982-12.751,34.429-7.354,13.357,20.371C-3.459,42.497-3.42,72.158,11.37,93.948l0,0l12.728-8.681
			C22.44,82.722,21.015,80.013,19.85,77.169"/>
		<path id="Fill-3_1_" fill="#42AF2A" d="M101.724,8.32l-8.22,10.817c12.27,8.856,20.258,23.277,20.258,39.566
			c0,26.934-21.833,48.767-48.767,48.767c-17.121,0-32.178-8.825-40.878-22.173L11.37,93.947v0.001
			c3.745,5.518,8.435,10.531,14.037,14.789c27.729,21.074,67.293,15.68,88.367-12.05S129.453,29.395,101.724,8.32"/>
	</g>
	<text transform="matrix(1 0 0 1 48.3984 55.9629)" fill="#6F5A95" font-family="'Gotham-Book'" font-size="16">Age</text>
	<text transform="matrix(1 0 0 1 80.7344 55.9629)" fill="#6F5A95" font-family="'Gotham-Book'" font-size="16"> </text>
	<text transform="matrix(1 0 0 1 28.6777 73.9629)" fill="#6F5A95" font-family="'Gotham-Book'" font-size="16">Breakout</text>
</g>
<path id="Vertical-Rule" fill="none" stroke="#979797" stroke-linecap="square" d="M298.5,72.375l-0.766,514.338"/>
</svg>
