<?xml version="1.0" encoding="UTF-8"?>
<svg width="527px" height="609px" viewBox="0 0 527 609" version="1.1" xmlns="http://www.w3.org/2000/svg" xmlns:xlink="http://www.w3.org/1999/xlink">
    <!-- Generator: Sketch 55.2 (78181) - https://sketchapp.com -->
    <title>Group 18</title>
    <desc>Created with Sketch.</desc>
    <defs>
        <polygon id="path-1" points="0.167363287 0.0895921251 15.5288791 0.0895921251 15.5288791 17.5053885 0.167363287 17.5053885"></polygon>
    </defs>
    <g id="Page-1" stroke="none" stroke-width="1" fill="none" fill-rule="evenodd">
        <g id="Desktop-HD" transform="translate(-748.000000, -5254.000000)">
            <g id="CO-MDI" transform="translate(123.000000, 5202.000000)">
                <g id="Graphs" transform="translate(598.000000, 20.000000)">
                    <g id="Group-18" transform="translate(26.500000, 49.462891)">
                        <text id="CO-MDI-By-the-Number" font-family="Gotham-Book, Gotham" font-size="24" font-weight="300" fill="#E1714A">
                            <tspan x="8.5" y="-3.53611542e-13">CO MDI By the Numbers (2015-2022)</tspan>
                        </text>
                        <g id="100%" transform="translate(7.500000, 530.162109)">
                            <g id="005-doctor" fill="#9A8BB4" fill-rule="nonzero">
                                <path d="M19.3843343,4.79616347e-14 C14.6527095,4.79616347e-14 10.8042465,3.84951697 10.8042465,8.58114172 L10.8042465,13.0268104 C10.8042465,17.7587864 14.6527095,21.6083034 19.3843343,21.6083034 C24.1163103,21.6083034 27.9644221,17.7587864 27.9644221,13.0268104 L27.9644221,8.58114172 C27.9644221,3.84951697 24.1163103,4.79616347e-14 19.3843343,4.79616347e-14 Z" id="Path"></path>
                                <path d="M38.3066177,32.7904511 C35.5591207,28.1083593 31.1675518,24.6371896 25.940949,23.0163034 C25.8197514,22.9787146 25.6887175,23.0106826 25.5984341,23.0999122 C23.1671047,25.4971657 20.1459471,27.3674731 19.3906576,27.8192415 C18.5844301,27.3038882 15.1884381,25.0903633 13.1695319,23.0999122 C13.0795997,23.0106826 12.9475119,22.9787146 12.8270169,23.0163034 C7.59971152,24.6375409 3.20849396,28.1087106 0.462050844,32.7908024 C0.399168609,32.8979481 0.399168609,33.0310898 0.462050844,33.1382355 C4.36215464,39.7840798 11.6125818,43.9125269 19.383983,43.9125269 C27.1557355,43.9125269 34.4065139,39.7840798 38.3066177,33.1382355 C38.3698512,33.0307385 38.3698512,32.8975968 38.3066177,32.7904511 Z M31.0537315,35.350004 C31.0537315,35.5393533 30.8735159,35.6840878 30.6845179,35.6840878 L28.3606856,35.6840878 C28.1713363,35.6840878 27.9647734,35.8467385 27.9647734,36.0364391 L27.9647734,38.4396647 C27.9647734,38.6286627 27.8635997,38.7730459 27.6742504,38.7730459 L25.5871926,38.7730459 C25.3978433,38.7730459 25.2193842,38.6286627 25.2193842,38.4396647 L25.2193842,36.0364391 C25.2186816,35.8470898 25.0894041,35.6840878 24.9000548,35.6840878 L22.4761027,35.6840878 C22.2867534,35.6840878 22.1300748,35.539002 22.1300748,35.350004 L22.1300748,33.2808623 C22.1300748,33.091513 22.2867534,32.9386986 22.4761027,32.9386986 L24.9000548,32.9386986 C25.0894041,32.9386986 25.2186816,32.7841277 25.2186816,32.5944271 L25.2186816,30.1883912 C25.2186816,29.9990419 25.3971407,29.8497405 25.58649,29.8497405 L27.6510648,29.8497405 C27.8400628,29.8497405 27.9644221,29.9990419 27.9644221,30.1883912 L27.9644221,32.6014531 C27.9644221,32.7911537 28.1477993,32.9383473 28.3374999,32.9383473 L30.6845179,32.9383473 C30.8735159,32.9383473 31.0537315,33.0985389 31.0537315,33.2878882 L31.0537315,35.350004 L31.0537315,35.350004 Z" id="Shape"></path>
                            </g>
                            <text id="100%-of-patients-are" font-family="Gotham-Book, Gotham" font-size="16" font-weight="300" line-spacing="22" fill="#262626">
                                <tspan x="74.1481531" y="0">100% of patients are </tspan>
                                <tspan x="74.1481531" y="22">referred to a dentist</tspan>
                            </text>
                        </g>
                        <g id="&gt;55%" transform="translate(15.000000, 400.349609)">
                            <g id="004-tooth" transform="translate(0.000000, 11.000000)" fill="#E1714A" fill-rule="nonzero">
                                <path d="M29.834408,0.597174129 C27.6547662,1.19139303 26.5462289,1.87864677 25.2626766,2.67458706 C24.4475823,3.19830947 23.6022662,3.67343197 22.7311443,4.09747264 C24.9495323,5.04281592 26.7559403,5.33899502 28.3453035,5.02902488 C28.5755852,4.98405562 28.812365,5.06535612 28.9664504,5.24230127 C29.1205357,5.41924642 29.1685173,5.66495404 29.092321,5.88686845 C29.0161247,6.10878285 28.8273264,6.27318996 28.5970448,6.3181592 C27.2297612,6.58511443 24.9451542,6.70759204 20.9106169,4.70110448 C20.5104577,4.5021194 19.9684478,4.18919403 19.3409552,3.82668657 C17.2458109,2.61668657 14.0795622,0.788278607 11.5431045,0.451930348 C8.60922388,0.0627164179 6.12519403,0.523293532 4.15964179,1.82063682 C2.47647761,2.931801 1.22816915,4.64134328 0.549452736,6.76472637 C-0.129050509,8.92999847 -0.179150457,11.2433636 0.404975124,13.4359801 C0.999850746,15.5894627 2.17493532,17.2241393 3.7138408,18.0389055 C6.50543284,19.5165174 7.95951244,20.4228955 8.67292537,21.5753234 C9.4141393,22.7728458 9.30293532,24.0955821 9.11861692,26.2869353 C9.0899403,26.6277711 9.05918408,26.9929055 9.02919403,27.3857313 C8.60791045,32.8961294 9.40439801,40.0722886 12.9038209,43.6878408 C13.0271088,43.7758541 13.1651518,43.8410947 13.3114229,43.8804776 C13.6438386,44.0128526 14.0220696,43.9523371 14.2965894,43.7228546 C14.5711092,43.4933721 14.6977275,43.1318633 14.6263881,42.7812438 C14.6230315,42.7635124 14.6204046,42.7456716 14.6185075,42.7277214 C14.4158499,40.3556037 14.4200248,37.9703489 14.6309851,35.5989552 C15.0929851,30.2804279 16.4894925,26.1689453 18.7815423,23.3788856 C19.4051252,22.6320204 20.3296294,22.2026114 21.3025811,22.2079264 C22.2755327,22.2132413 23.1952905,22.652725 23.8106766,23.4063582 C26.0582886,26.2108657 27.4259005,30.3216915 27.8754229,35.6248955 C28.0809009,37.9878015 28.0832079,40.3639831 27.8823184,42.7272836 C27.8804577,42.7453433 27.8778308,42.763403 27.8744378,42.7812438 C27.8030968,43.1318253 27.9296722,43.4933023 28.2041337,43.7227971 C28.4785952,43.9522918 28.8567713,44.0128699 29.1891841,43.8805871 C29.335976,43.8412158 29.4744367,43.7756194 29.5978806,43.6869652 C33.0960995,40.0722886 33.8925871,32.8961294 33.4713035,27.3857313 C33.4414229,26.9948756 33.4108856,26.6312736 33.3823184,26.2918607 C33.1981095,24.0996318 33.086796,22.7763483 33.8282289,21.5790448 C34.5447065,20.4214726 35.9367264,19.5515423 38.7858905,18.0392338 C40.3880597,17.1887861 41.6189652,15.3138607 42.1631642,12.8961592 C42.7095522,10.4680597 42.5134129,7.78920398 41.6254229,5.54651741 C39.7709652,0.864676617 35.4736318,-0.940199005 29.834408,0.597174129 Z" id="Path"></path>
                            </g>
                            <text id="&gt;55%-of-those-needin" font-family="Gotham-Book, Gotham" font-size="16" font-weight="300" line-spacing="22" fill="#262626">
                                <tspan x="66.6481531" y="0">&gt;55% of those needing </tspan>
                                <tspan x="66.6481531" y="22">restorative care have </tspan>
                                <tspan x="66.6481531" y="44">received it</tspan>
                            </text>
                        </g>
                        <g id="39-locations" transform="translate(8.500000, 292.537109)">
                            <g id="placeholder" transform="translate(0.000000, 0.000000)" fill="#26BACF" fill-rule="nonzero">
                                <path d="M16.4312886,12.0769379 C13.9911852,12.0769379 12.0060013,14.1188414 12.0060013,16.6286621 C12.0060013,19.1384828 13.9911852,21.1803862 16.4312886,21.1803862 C18.8713921,21.1803862 20.856576,19.1384828 20.856576,16.6286621 C20.856576,14.1188414 18.8714904,12.0769379 16.4312886,12.0769379 Z" id="Path"></path>
                                <path d="M16.4312886,0 C7.39642529,0 0.0459246488,7.56041379 0.0459246488,16.8534161 C0.0459246488,20.7911632 1.36574202,24.4174713 3.57415709,27.2897103 L16.4312886,43.9164506 L29.2884202,27.2897103 C31.4968352,24.4174713 32.8166526,20.7911632 32.8166526,16.8534161 C32.8166526,7.56041379 25.466152,0 16.4312886,0 Z M16.4312886,24.214869 C12.3644496,24.214869 9.05580971,20.8116966 9.05580971,16.6286621 C9.05580971,12.4456276 12.3644496,9.04245517 16.4312886,9.04245517 C20.4981277,9.04245517 23.8067676,12.4456276 23.8067676,16.6286621 C23.8067676,20.8116966 20.4982261,24.214869 16.4312886,24.214869 Z" id="Shape"></path>
                            </g>
                            <text id="39-CO-MDI-locations" font-family="Gotham-Book, Gotham" font-size="16" font-weight="300" line-spacing="22" fill="#262626">
                                <tspan x="73.1481531" y="11">39 CO MDI locations</tspan>
                            </text>
                        </g>
                        <g id="26-grantees" transform="translate(0.000000, 184.724609)">
                            <g id="003-teamwork" transform="translate(0.000000, 0.000000)" fill="#6F5A95" fill-rule="nonzero">
                                <circle id="Oval" cx="23.0427992" cy="5.4897076" r="5.48927875"></circle>
                                <path d="M31.2657388,25.898846 L30.0196725,16.1938012 C29.8796959,14.7858012 28.7049903,13.7236257 27.291501,13.7236257 L25.7874386,13.7236257 C25.4224016,13.7236257 25.0738324,13.8690916 24.8158363,14.1243431 L23.0427992,15.8973801 L21.2697622,14.1243431 C21.0117661,13.8690916 20.6631969,13.7236257 20.2981598,13.7236257 L18.7968421,13.7236257 C17.3806082,13.7236257 16.2059025,14.7858012 16.0686706,16.1581209 L14.8198596,25.9015906 C14.7704561,26.2913294 14.8912203,26.6865575 15.151961,26.9802339 C15.4127018,27.276655 15.7859727,27.4468226 16.1812008,27.4468226 L17.663306,27.4468226 L18.8105653,41.4444834 C18.9477973,42.8497388 20.1252476,43.9146589 21.5414815,43.9146589 L24.5468616,43.9146589 C25.9630955,43.9146589 27.1378012,42.8497388 27.2805224,41.4197817 L28.425037,27.4468226 L29.9043977,27.4468226 C30.2996257,27.4468226 30.6728967,27.276655 30.9336374,26.9802339 C31.1971228,26.6865575 31.3178869,26.2913294 31.2657388,25.898846 Z" id="Path"></path>
                                <circle id="Oval" cx="36.7659961" cy="5.4897076" r="5.48927875"></circle>
                                <path d="M9.31960234,0.000428849902 C6.29226511,0.000428849902 3.83032359,2.46237037 3.83032359,5.4897076 C3.83032359,8.51704483 6.29226511,10.9789864 9.31960234,10.9789864 C12.3441949,10.9789864 14.8088811,8.51704483 14.8088811,5.4897076 C14.8088811,2.46237037 12.3441949,0.000428849902 9.31960234,0.000428849902 Z" id="Path"></path>
                                <path d="M44.9889357,25.898846 L43.7428694,16.1965458 C43.6028928,14.7858012 42.4309318,13.7236257 41.0146979,13.7236257 L39.5106355,13.7236257 C39.1455984,13.7236257 38.7970292,13.8690916 38.5390331,14.1243431 L36.7659961,15.8973801 L34.9929591,14.1243431 C34.734963,13.8690916 34.3863938,13.7236257 34.0241014,13.7236257 L32.520039,13.7236257 C32.3498713,13.7236257 32.1961715,13.7840078 32.0342378,13.8141988 C32.3882963,14.4399766 32.6655049,15.1179025 32.7478441,15.8781676 L33.9911657,25.5502768 C34.1448655,26.7277271 33.7770838,27.9134113 32.9866277,28.8054191 C32.6133567,29.2335828 32.1357895,29.5354932 31.6252865,29.7715322 L32.5365068,38.6998441 C32.6764834,40.1078441 33.8511891,41.1700195 35.267423,41.1700195 L38.2728031,41.1700195 C39.689037,41.1700195 40.8637427,40.1050994 41.0064639,38.6751423 L42.1482339,27.4468226 L43.6275945,27.4468226 C44.0228226,27.4468226 44.3960936,27.276655 44.6568343,26.9802339 C44.9203197,26.6865575 45.0410838,26.2913294 44.9889357,25.898846 Z" id="Path"></path>
                                <path d="M12.5050112,28.7916959 C11.7255337,27.9106667 11.3632413,26.7277271 11.5114518,25.5557661 L12.7602627,15.8095517 C12.8316233,15.0794776 13.100598,14.4207641 13.4436779,13.8114542 C13.2899781,13.7840078 13.1445122,13.7236257 12.9825785,13.7236257 L11.4785161,13.7236257 C11.1134791,13.7236257 10.7649099,13.8690916 10.5069138,14.1243431 L8.73387674,15.8973801 L6.9608397,14.1243431 C6.7028436,13.8690916 6.3542744,13.7236257 5.991982,13.7236257 L4.48783385,13.7236257 C3.07159993,13.7236257 1.89689428,14.7858012 1.75966231,16.1581209 L0.510851395,25.9015906 C0.461447887,26.2913294 0.582212019,26.6865575 0.84295276,26.9802339 C1.1036935,27.276655 1.4797091,27.4468226 1.87219253,27.4468226 L3.35429779,27.4468226 L4.50155705,38.6998441 C4.63878902,40.1050994 5.81623931,41.1700195 7.23247323,41.1700195 L10.2378533,41.1700195 C11.6540873,41.1700195 12.8287929,40.1050994 12.9715142,38.6751423 L13.8827344,29.7687875 C13.3695726,29.5300039 12.8892608,29.2253489 12.5050112,28.7916959 Z" id="Path"></path>
                            </g>
                            <text font-family="Gotham-Book, Gotham" font-size="16" font-weight="300" line-spacing="22" fill="#262626">
                                <tspan x="82.2338787" y="11">26 grantees</tspan>
                            </text>
                        </g>
                        <g id="$6.6-million" transform="translate(1.000000, 76.912109)">
                            <g id="001-coin" fill="#5FBC4A" fill-rule="nonzero">
                                <path d="M14.3408045,25.4817765 C15.7279106,25.4817765 17.0686816,25.3921788 18.3374302,25.2253966 L18.3374302,11.3188156 C17.0688045,11.1521564 15.7279106,11.0625587 14.3408045,11.0625587 C6.42068156,11.0625587 0.000122905028,13.9745475 0.000122905028,17.5668156 L0.000122905028,18.9773966 C0.000122905028,22.5695419 6.42068156,25.4817765 14.3408045,25.4817765 Z" id="Path"></path>
                                <path d="M14.3408045,32.7432514 C15.7279106,32.7432514 17.0686816,32.6536536 18.3374302,32.4871173 L18.3374302,28.4108492 C17.0684358,28.5775084 15.7282793,28.6683352 14.3408045,28.6683352 C7.42739665,28.6683352 1.65712849,26.4494078 0.301731844,23.4962458 C0.104346369,23.9264134 0.000122905028,24.3718212 0.000122905028,24.8284134 L0.000122905028,26.2389944 C0.000122905028,29.8312626 6.42068156,32.7432514 14.3408045,32.7432514 Z" id="Path"></path>
                                <path d="M18.3373073,35.989419 L18.3373073,35.6725698 C17.0683128,35.8392291 15.7281564,35.9300559 14.3406816,35.9300559 C7.42727374,35.9300559 1.65700559,33.7111285 0.301608939,30.7579665 C0.104223464,31.1880112 0,31.633419 0,32.0900112 L0,33.5005922 C0,37.0929832 6.42055866,40.0049721 14.3406816,40.0049721 C15.9245587,40.0049721 17.4479665,39.8882123 18.8725587,39.6731285 C18.5194525,38.9508156 18.3373073,38.1890503 18.3373073,37.3998771 L18.3373073,35.989419 Z" id="Path"></path>
                                <path d="M34.432375,0.0465810056 C26.5122521,0.0465810056 20.0916934,2.95856983 20.0916934,6.55083799 L20.0916934,7.96141899 C20.0916934,11.5536872 26.5122521,14.465676 34.432375,14.465676 C42.352375,14.465676 48.7730565,11.5536872 48.7730565,7.96141899 L48.7730565,6.55083799 C48.7730565,2.95856983 42.352375,0.0465810056 34.432375,0.0465810056 Z" id="Path"></path>
                                <path d="M35.0181006,17.6523575 C28.1046927,17.6523575 22.3344246,15.4335531 20.9790279,12.4802682 C20.7816425,12.9103128 20.677419,13.3557207 20.677419,13.8124358 L20.677419,15.2230168 C20.677419,18.8152849 27.0979777,21.7272737 35.0181006,21.7272737 C42.9381006,21.7272737 49.3587821,18.8152849 49.3587821,15.2230168 L49.3587821,13.8124358 C49.3587821,13.3557207 49.2545587,12.9103128 49.0571732,12.4802682 C47.7017765,15.4335531 41.9315084,17.6523575 35.0181006,17.6523575 Z" id="Path"></path>
                                <path d="M35.0181006,24.9140782 C28.1046927,24.9140782 22.3344246,22.6951508 20.9790279,19.7419888 C20.7816425,20.1720335 20.677419,20.6174413 20.677419,21.0741564 L20.677419,22.4847374 C20.677419,26.0771285 27.0979777,28.9891173 35.0181006,28.9891173 C42.9381006,28.9891173 49.3587821,26.0771285 49.3587821,22.4847374 L49.3587821,21.0741564 C49.3587821,20.6174413 49.2545587,20.1720335 49.0571732,19.7419888 C47.7017765,22.6952737 41.9315084,24.9140782 35.0181006,24.9140782 Z" id="Path"></path>
                                <path d="M35.0181006,32.567743 C28.1046927,32.567743 22.3344246,30.3488156 20.9790279,27.3956536 C20.7816425,27.8258212 20.677419,28.2711061 20.677419,28.7276983 L20.677419,30.1384022 C20.677419,33.7306704 27.0979777,36.6426592 35.0181006,36.6426592 C42.9381006,36.6426592 49.3587821,33.7306704 49.3587821,30.1384022 L49.3587821,28.7276983 C49.3587821,28.2711061 49.2545587,27.8255754 49.0571732,27.3956536 C47.7017765,30.3486927 41.9315084,32.567743 35.0181006,32.567743 Z" id="Path"></path>
                                <path d="M35.0181006,39.8293408 C28.1046927,39.8293408 22.3344246,37.6105363 20.9790279,34.6573743 C20.7816425,35.0875419 20.677419,35.5330726 20.677419,35.989419 L20.677419,37.4 C20.677419,40.9922682 27.0979777,43.904257 35.0181006,43.904257 C42.9381006,43.904257 49.3587821,40.9922682 49.3587821,37.4 L49.3587821,35.9892961 C49.3587821,35.5327039 49.2545587,35.0871732 49.0571732,34.6572514 C47.7017765,37.6104134 41.9315084,39.8293408 35.0181006,39.8293408 Z" id="Path"></path>
                            </g>
                            <text id="$6.6-million-in-fund" font-family="Gotham-Book, Gotham" font-size="16" font-weight="300" line-spacing="22" fill="#262626">
                                <tspan x="80.6481531" y="11">$6.6 million in funding</tspan>
                            </text>
                        </g>
                        <g id="Chart-Legend" transform="translate(344.500000, 304.662109)" font-family="Gotham-Medium, Gotham" font-size="14" font-weight="400">
                            <text id="71%-23%-3%-3%">
                                <tspan x="3.904" y="0.364780974" fill="#5FBC4A">71%</tspan>
                                <tspan x="0.88" y="0.364880974" fill="#6F5A95">23%</tspan>
                                <tspan x="9.462" y="0.364980974" fill="#26BACF">3%</tspan>
                                <tspan x="9.462" y="0.365080974" fill="#E1714A">3%</tspan>
                            </text>
                            <text id="Medicaid-Uninsured-C">
                                <tspan x="62" y="0.364780974" fill="#5FBC4A">Medicaid</tspan>
                                <tspan x="62" y="0.364880974" fill="#6F5A95">Uninsured</tspan>
                                <tspan x="62" y="0.364980974" fill="#26BACF">CHP+</tspan>
                                <tspan x="62" y="0.365080974" fill="#E1714A">Private Insurance</tspan>
                            </text>
                            <text id="::-::-::-::" fill="#666666">
                                <tspan x="42" y="0.364780974">::</tspan>
                                <tspan x="42" y="0.364880974">::</tspan>
                                <tspan x="42" y="0.364980974">::</tspan>
                                <tspan x="42" y="0.365080974">::</tspan>
                            </text>
                        </g>
                        <g id="Patient-Insurance-Status" transform="translate(344.500000, 166.162109)">
                            <path d="M63.0662642,126.053299 C28.3351338,126.053299 0.0792289752,97.7973947 0.0792289752,63.0662642 C0.0792289752,28.360487 28.2907655,0.120744958 62.9870353,0.0792289752 L62.9870353,14.3404445 C36.1553505,14.3832282 14.3404445,36.225072 14.3404445,63.0662642 C14.3404445,89.9337605 36.198768,111.792084 63.0662642,111.792084 C72.9283701,111.792084 82.4272904,108.860612 90.5359007,103.314584 C98.4309096,97.9146536 104.518547,90.4031129 108.144065,81.5890479 L121.312238,87.0672561 C116.616812,98.4502415 108.743353,108.149136 98.5396117,115.118433 C88.0658581,122.271859 75.7996282,126.053299 63.0662642,126.053299" id="Fill-1" fill="#42AF2A"></path>
                            <path d="M63.0662642,0 C28.2356222,0 0,28.2356222 0,63.0662642 C0,97.8965894 28.2356222,126.132528 63.0662642,126.132528 C89.4143353,126.132528 111.983184,109.972036 121.415552,87.0247894 L108.100964,81.4854164 C100.840104,99.2187625 83.4138496,111.712855 63.0662642,111.712855 C36.1994018,111.712855 14.4196735,89.9328097 14.4196735,63.0662642 C14.4196735,36.1994018 36.1994018,14.4196735 63.0662642,14.4196735 L63.0662642,0 Z M62.9078063,0.15845795 L62.9078063,14.2615324 C49.9304171,14.3020977 37.7367609,19.3749705 28.5557072,28.5557072 C19.3378913,37.77384 14.2612155,50.0299287 14.2612155,63.0662642 C14.2612155,76.1025998 19.3378913,88.3586884 28.5557072,97.5768212 C37.77384,106.794637 50.0299287,111.871313 63.0662642,111.871313 C72.9445329,111.871313 82.4586651,108.93477 90.5805858,103.379868 C98.4667211,97.9862766 104.55214,90.489314 108.187166,81.6926794 L121.208923,87.1103567 C116.515715,98.4473892 108.664124,108.107303 98.4949266,115.052832 C88.0344835,122.197701 75.7834655,125.974071 63.0662642,125.974071 C54.5738688,125.974071 46.3353231,124.310896 38.5797572,121.030499 C31.088816,117.861974 24.3610084,113.326274 18.5836315,107.54858 C12.8062546,101.77152 8.27055426,95.0437124 5.10202908,87.5527713 C1.8216326,79.7972054 0.15845795,71.5586596 0.15845795,63.0662642 C0.15845795,54.5738688 1.8216326,46.3353231 5.10202908,38.5797572 C8.27055426,31.088816 12.8062546,24.3610084 18.5836315,18.5836315 C24.3610084,12.8062546 31.088816,8.27055426 38.5797572,5.10202908 C46.286835,1.84191521 54.4711881,0.179057484 62.9078063,0.15845795 L62.9078063,0.15845795 Z" id="Fill-3" fill="#FFFFFF"></path>
                            <path d="M110.236722,53.3562146 C108.045249,42.5227614 102.129697,32.6505142 93.5736013,25.5506473 C84.9050007,18.3576071 73.9232309,14.3787279 62.6419756,14.3416488 L62.6660612,0.0807501715 C77.2790534,0.123533818 91.502239,5.28197393 102.721379,14.6103935 C113.797273,23.8196526 121.438115,36.6198859 124.242821,50.6627463 L110.236722,53.3562146 Z" id="Fill-5" fill="#563D82"></path>
                            <path d="M63.1725578,0.00139442996 L63.1481553,14.420751 C86.6858162,14.4597317 106.301326,31.2147584 110.760333,53.4489442 L124.922036,50.7256858 C119.190612,21.8375338 93.7318074,0.0517840582 63.1725578,0.00139442996 M63.3306989,0.160169296 C70.7310021,0.190593223 77.9706289,1.49375141 84.8521408,4.0347831 C91.5498414,6.50736095 97.7417443,10.0859753 103.256398,14.6714315 C114.297748,23.8515344 121.92116,36.6064486 124.735373,50.6001871 L110.884564,53.2635484 C108.677244,42.442138 102.760108,32.5844689 94.2100335,25.4896727 C89.9342041,21.9417991 85.1348297,19.1729049 79.9453319,17.2600005 C74.6243139,15.298608 69.0272622,14.2901816 63.3069302,14.26261 L63.3306989,0.160169296" id="Fill-7" fill="#FFFFFF"></path>
                            <path d="M111.644148,66.8712516 C111.742392,65.6007358 111.792147,64.3210294 111.792147,63.0663593 C111.792147,59.8785023 111.479985,56.6833562 110.864218,53.567439 C115.687361,52.644263 120.437613,51.7362989 124.873168,50.8885489 C125.656267,54.8873937 126.053363,58.9838487 126.053363,63.0663593 C126.053363,64.7276325 125.984909,66.4294708 125.849903,68.1259217 L111.644148,66.8712516 Z" id="Fill-9" fill="#00AEC6"></path>
                            <g id="Group-13" transform="translate(110.603649, 50.706544)">
                                <mask id="mask-2" fill="white">
                                    <use xlink:href="#path-1"></use>
                                </mask>
                                <g id="Clip-12"></g>
                                <path d="M14.3319195,0.0895921251 C9.85041172,0.945898889 5.04533283,1.86432117 0.167363287,2.79827233 C0.783764714,5.89010386 1.10923734,9.08683455 1.10923734,12.3596251 C1.10923734,13.6646847 1.05631239,14.9577016 0.955533132,16.2367742 L15.3187956,17.5053885 C15.4560202,15.807987 15.5289108,14.0925212 15.5289108,12.3596251 C15.5289108,8.16080628 15.1147017,4.05896378 14.3319195,0.0895921251 M14.2067377,0.274671011 C14.9790617,4.24340884 15.3704529,8.30817218 15.3704529,12.3596251 C15.3704529,13.9930096 15.3042175,15.6653748 15.1736481,17.3336201 L1.12540005,16.0925774 C1.21984099,14.8461472 1.26769529,13.5911602 1.26769529,12.3596251 C1.26769529,9.1936352 0.960286871,6.02003937 0.353709837,2.92377102 C5.12170956,2.01105323 9.81745246,1.11323048 14.2067377,0.274671011" id="Fill-11" fill="#FFFFFF" mask="url(#mask-2)"></path>
                            </g>
                            <path d="M108.204026,81.442601 C110.067491,76.8695046 111.217896,72.0498476 111.624182,67.1145163 L125.83374,68.3920043 C125.310512,74.7864164 123.842241,81.0328288 121.468541,86.9610576 L108.204026,81.442601 Z" id="Fill-14" fill="#E1572A"></path>
                            <path d="M111.551608,67.0283468 C111.142153,72.1078749 109.951183,76.9661956 108.101028,81.4854164 L121.415616,87.0247894 L121.512275,87.0650377 C123.869178,81.1998752 125.388473,74.9018055 125.918991,68.320096 L111.551608,67.0283468 Z M111.696439,67.2004322 L125.748173,68.4636589 C125.222409,74.7959555 123.768399,80.9824708 121.424806,86.856824 L108.307023,81.3995322 C110.146086,76.8654164 111.286033,72.0904445 111.696439,67.2004322 L111.696439,67.2004322 Z" id="Fill-16" fill="#FFFFFF"></path>
                            <text id="Patient-Insurance-St" font-family="Gotham-Book, Gotham" font-size="16" font-weight="300" fill="#6F5A95">
                                <tspan x="36.3669361" y="38.359781">Patient</tspan>
                                <tspan x="26.5029361" y="38.359881">Insurance</tspan>
                                <tspan x="39.4069361" y="38.359981">Status</tspan>
                            </text>
                        </g>
                        <g id="Chart-Legend" transform="translate(344.500000, 550.162109)" font-family="Gotham-Medium, Gotham" font-size="14" font-weight="400">
                            <text id="59%-41%">
                                <tspan x="0.292" y="0.364780974" fill="#5FBC4A">59%</tspan>
                                <tspan x="3.316" y="0.364880974" fill="#6F5A95">41%</tspan>
                            </text>
                            <text id="Ages-0-18-Ages-18+">
                                <tspan x="62" y="0.364780974" fill="#5FBC4A">Ages 0-18</tspan>
                                <tspan x="62" y="0.364880974" fill="#6F5A95">Ages 18+</tspan>
                            </text>
                            <text id="::-::" fill="#666666">
                                <tspan x="42" y="0.364780974">::</tspan>
                                <tspan x="42" y="0.364880974">::</tspan>
                            </text>
                        </g>
                        <g id="Age-Breakout" transform="translate(343.500000, 411.662109)">
                            <g id="Group-5">
                                <path d="M19.7638282,81.7057997 C17.9089195,77.1758038 16.7154142,72.3054403 16.3046912,67.2132356 C16.3024728,67.1847131 16.2993036,67.1565076 16.2974021,67.1279852 C16.195989,65.8454265 16.1430641,64.5495574 16.1430641,63.2413286 C16.1430641,59.9602983 16.4694875,56.7556447 17.0874735,53.6562072 C17.0909595,53.637826 17.0941287,53.6188111 17.0979317,53.600113 C21.5680305,31.3111008 41.2317114,14.5145581 64.8273678,14.4755774 C64.8549395,14.4755774 64.8821943,14.4746267 64.909766,14.4746267 C75.5365899,14.4746267 85.3685888,17.8760851 93.379589,23.6468067 L101.625107,12.8482143 C73.8965502,-8.21433338 34.3425935,-2.81693867 13.271806,24.9078151 C-3.5443855,47.0345663 -3.50603868,76.6950424 11.2841095,98.485229 L11.2844264,98.485229 L24.0114521,89.8045855 C22.3549326,87.2588001 20.9284942,84.5501199 19.7638282,81.7057997" id="Fill-1" fill="#563D82"></path>
                                <path d="M102.224048,12.8576901 L94.0035663,23.6743467 C106.273916,32.5308784 114.261781,46.9524534 114.261781,63.2412969 C114.261781,90.1743947 92.4284943,112.007682 65.4953965,112.007682 C48.3743319,112.007682 33.3176574,103.182842 24.6173652,89.8352947 L11.8700569,98.4848804 L11.8700569,98.4851973 C15.6150521,104.00302 20.3047736,109.01663 25.9075298,113.274395 C53.6370373,134.348668 93.1998676,128.953809 114.274141,101.224301 C135.348415,73.4951109 129.953238,33.9319636 102.224048,12.8576901" id="Fill-3" fill="#42AF2A"></path>
                            </g>
                            <text font-family="Gotham-Book, Gotham" font-size="16" font-weight="300" fill="#6F5A95">
                                <tspan x="47.832" y="62.875">Age</tspan>
                                <tspan x="28.112" y="62.8751">Breakout</tspan>
                            </text>
                        </g>
                        <path d="M299,76.9121094 L298.233879,591.25" id="Vertical-Rule" stroke="#979797" stroke-linecap="square"></path>
                    </g>
                </g>
            </g>
        </g>
    </g>
</svg>