<?xml version="1.0" encoding="utf-8"?>
<!-- Generator: Adobe Illustrator 22.0.1, SVG Export Plug-In . SVG Version: 6.00 Build 0)  -->
<svg version="1.1" id="Layer_1" xmlns="http://www.w3.org/2000/svg" xmlns:xlink="http://www.w3.org/1999/xlink" x="0px" y="0px"
	 viewBox="0 0 56 64" style="enable-background:new 0 0 56 64;" xml:space="preserve">
<path id="apple" d="M53.3,23.1c-2.5-6.2-7.7-10-14.1-10.2c-1.8-0.1-3.7,0.1-6,0.5c-0.8,0.1-1.5,0.4-2.3,0.6
	c-0.4,0.1-0.9,0.2-1.3,0.3c0.2-2.9,1.2-8.1,6-10.6L34,0.5c-3.7,1.9-6.2,5.3-7.4,9.9c-0.4,1.5-0.5,2.9-0.6,4
	c-0.4-0.1-0.9-0.2-1.3-0.4c-0.7-0.2-1.5-0.4-2.3-0.6c-2.3-0.4-4.2-0.6-6-0.5C10.1,13.1,4.8,17,2.3,23.1c-4,9.9-1.8,21.7,5.8,30.7
	c2.3,2.7,4.7,5,7.4,6.7c1.5,1,3.8,2.5,6.3,2.5c2.6,0,4.7-0.8,5.9-1.4c1.2,0.6,3.3,1.4,5.9,1.4l0,0c2.4,0,4.8-1.5,6.3-2.5
	c2.7-1.8,5.1-4,7.4-6.7c5.1-6.1,7.8-13.4,7.8-20.5C55.2,29.8,54.6,26.3,53.3,23.1z"/>
</svg>
