<?xml version="1.0" encoding="utf-8"?>
<!-- Generator: Adobe Illustrator 22.0.1, SVG Export Plug-In . SVG Version: 6.00 Build 0)  -->
<svg version="1.1" id="Layer_1" xmlns="http://www.w3.org/2000/svg" xmlns:xlink="http://www.w3.org/1999/xlink" x="0px" y="0px"
	 viewBox="0 0 45 64" style="enable-background:new 0 0 45 64;" xml:space="preserve">
<path id="baby" d="M31.7,40.3c0,0,6.1,6.1,6.1,6.1c1.9,2,1.4,5.4-0.4,7.3l-8.5,8.8c-3.3,3.3-7.7-1.3-4.5-4.4l5.4-5.4l-5.3-5.2
	L31.7,40.3z M12.8,40.3c0,0-6.1,6.1-6.1,6.1c-2,2-1.5,5.4,0.4,7.3l8.5,8.8c3.3,3.3,7.6-1.3,4.5-4.4l-5.4-5.4l5.2-5.2L12.8,40.3z
	 M22.5,17.7c4.9,0,8.8-3.9,8.8-8.8c0-4.9-4-8.8-8.8-8.8c-4.9,0-8.8,3.9-8.8,8.8C13.7,13.7,17.6,17.7,22.5,17.7z M32.1,36.8l0.1-6
	l7.3,6.8c0.6,0.6,1.4,0.8,2.1,0.8c0.8,0,1.7-0.3,2.3-1c1.2-1.3,1.1-3.2-0.1-4.4c0,0-8.4-9.1-9.6-10.2c-2.2-2-5.5-3.1-10.8-3.1h-1.7
	c-5.3,0-8.6,1.1-10.9,3.1C9.6,23.9,1.2,33,1.2,33c-1.3,1.2-1.3,3.1-0.1,4.4c0.6,0.7,1.4,1,2.3,1c0.8,0,1.5-0.3,2.1-0.8l7.3-6.8
	l0.1,6L32.1,36.8L32.1,36.8z"/>
</svg>
