<?xml version="1.0" encoding="utf-8"?>
<!-- Generator: Adobe Illustrator 22.0.1, SVG Export Plug-In . SVG Version: 6.00 Build 0)  -->
<svg version="1.1" id="Layer_1" xmlns="http://www.w3.org/2000/svg" xmlns:xlink="http://www.w3.org/1999/xlink" x="0px" y="0px"
	 viewBox="0 0 53 44" style="enable-background:new 0 0 53 44;" xml:space="preserve">
<path id="chair" d="M37.5,20.9c-1-0.3-2-0.7-2.6-0.7h-8.8V17h9.8c0-2-1.3-3.3-3.3-3.3H19.6c0,2,1.3,3.3,3.3,3.3v3.2
	c-1.6,0-3.3-0.7-3.9-1.9l-3.6-5.9c-1-1.3-2.3-2-3.6-2h-2V8.2c0-1-0.3-1.6-0.7-2.6l-1-2.3c-1-1.6-2.9-2.6-4.9-2.6H0l16.3,22.8
	c1.3,2,3.6,3.3,5.9,3.3h3.9v3.3h-3.2v6.5h-2c-3,0-5.9,1.3-7.8,3.3H9.8v3.3h35.9v-3.3h-3.3c-1.9-2-4.9-3.3-7.8-3.3h-2v-6.5h-3.3v-3.3
	h5.2c0.7,0,1.6,0.3,2.3,0.7l5.5,2.9c3,1.6,6.5,1.6,9.5,0h0.3L37.5,20.9z"/>
</svg>
