<?xml version="1.0" encoding="utf-8"?>
<!-- Generator: Adobe Illustrator 22.0.1, SVG Export Plug-In . SVG Version: 6.00 Build 0)  -->
<svg version="1.1" id="Layer_1" xmlns="http://www.w3.org/2000/svg" xmlns:xlink="http://www.w3.org/1999/xlink" x="0px" y="0px"
	 viewBox="0 0 46 44" style="enable-background:new 0 0 46 44;" xml:space="preserve">
<path id="Fill-1" d="M22.1,26c0.3,0.3,0.6,0.4,1,0.4c0.4,0,0.7-0.1,1-0.4L44.8,5.2c0.3-0.3,0.4-0.6,0.4-1c0-0.4-0.1-0.7-0.4-1
	L42.6,1c-0.3-0.3-0.6-0.4-1-0.4c-0.4,0-0.7,0.1-1,0.4L23.1,18.4L5.6,1C5.3,0.7,5,0.5,4.6,0.5c-0.4,0-0.7,0.1-1,0.4L1.3,3.2
	C1,3.5,0.9,3.8,0.9,4.2c0,0.4,0.1,0.7,0.4,1L22.1,26"/>
<path id="Fill-3" d="M42.6,18c-0.3-0.3-0.6-0.4-1-0.4c-0.4,0-0.7,0.1-1,0.4L23.1,35.5L5.6,18c-0.3-0.3-0.6-0.4-1-0.4
	c-0.4,0-0.7,0.1-1,0.4l-2.2,2.2c-0.3,0.3-0.4,0.6-0.4,1c0,0.4,0.1,0.7,0.4,1L22.1,43c0.3,0.3,0.6,0.4,1,0.4c0.4,0,0.7-0.1,1-0.4
	l20.7-20.7c0.3-0.3,0.4-0.6,0.4-1c0-0.4-0.1-0.7-0.4-1L42.6,18"/>
</svg>
