<?xml version="1.0" encoding="utf-8"?>
<!-- Generator: Adobe Illustrator 22.0.1, SVG Export Plug-In . SVG Version: 6.00 Build 0)  -->
<svg version="1.1" id="Layer_1" xmlns="http://www.w3.org/2000/svg" xmlns:xlink="http://www.w3.org/1999/xlink" x="0px" y="0px"
	 viewBox="0 0 29 29" style="enable-background:new 0 0 29 29;" xml:space="preserve">
<path id="email" d="M14.4,0.4C6.5,0.4,0.2,6.7,0.2,14.6c0,7.8,6.4,14.2,14.2,14.2c7.8,0,14.2-6.4,14.2-14.2
	C28.6,6.7,22.2,0.4,14.4,0.4z M14.4,5.3l8.4,5.2H6L14.4,5.3z M22.9,19c0,0.8-0.7,1.5-1.5,1.5h-14c-0.8,0-1.5-0.7-1.5-1.5v-8
	c0-0.1,0-0.2,0-0.3l8,5c0,0,0.1,0,0.1,0c0.1,0,0.1,0.1,0.2,0.1c0.1,0,0.2,0,0.2,0c0.1,0,0.1,0,0.2,0c0.1,0,0.1,0,0.2-0.1
	c0,0,0.1,0,0.1,0l8-5c0,0.1,0,0.2,0,0.3V19z"/>
</svg>
