<?xml version="1.0" encoding="utf-8"?>
<!-- Generator: Adobe Illustrator 22.0.1, SVG Export Plug-In . SVG Version: 6.00 Build 0)  -->
<svg version="1.1" id="Layer_1" xmlns="http://www.w3.org/2000/svg" xmlns:xlink="http://www.w3.org/1999/xlink" x="0px" y="0px"
	 viewBox="0 0 43 29" style="enable-background:new 0 0 43 29;" xml:space="preserve">
<path id="handshake" d="M40.6,8.5l-5.5,6.1l-2.4-2.2c-0.8-0.7-2.1-1.8-3-2.5L26,7.3c-0.6-0.4-1.4-0.7-2.3-0.7
	c-0.7,0-1.4,0.2-1.9,0.5l-1.3,0.8c-0.2,0.1-0.4,0.2-0.6,0.2c0,0,0,0,0,0c-0.4,0-0.8-0.2-1-0.5l-0.3-0.4c-0.1-0.2-0.2-0.4-0.2-0.6
	c0-0.3,0.1-0.6,0.4-0.8l3.9-2.8c0.3-0.2,0.9-0.4,1.4-0.4c0.4,0,0.7,0.1,0.9,0.2l3.2,1.5c0.5,0.3,1.2,0.4,1.9,0.4
	c0.9,0,1.7-0.2,2.4-0.6l3.3-2c0.2-0.1,0.4-0.2,0.6-0.2c0,0,0,0,0,0c0.4,0,0.8,0.2,1,0.4l3.3,4.3c0.2,0.2,0.3,0.5,0.3,0.8
	C40.9,7.9,40.8,8.3,40.6,8.5z M14.7,24.4l2-2.1c0.2-0.2,0.4-0.3,0.7-0.3c0.3,0,0.5,0.1,0.7,0.3l0.4,0.3c0.2,0.2,0.3,0.4,0.3,0.7
	c0,0.3-0.1,0.5-0.3,0.7l-2,2.1c-0.2,0.2-0.4,0.3-0.7,0.3c-0.3,0-0.5-0.1-0.7-0.3l-0.4-0.3c-0.2-0.2-0.3-0.4-0.3-0.7
	C14.4,24.8,14.5,24.5,14.7,24.4z M10.3,22.7l3.3-3.5c0.2-0.2,0.4-0.3,0.7-0.3c0.3,0,0.5,0.1,0.7,0.3l0.4,0.3
	c0.2,0.2,0.3,0.4,0.3,0.7c0,0.3-0.1,0.5-0.3,0.7l-3.2,3.3c-0.2,0.2-0.4,0.3-0.7,0.3c-0.3,0-0.5-0.1-0.7-0.3L10.4,24
	c-0.2-0.2-0.3-0.4-0.3-0.7C10.1,23.1,10.1,22.9,10.3,22.7z M6.4,20.5c1.4-1.5,4.6-4.8,4.8-5c0.2-0.2,0.4-0.3,0.7-0.3
	c0.3,0,0.5,0.1,0.7,0.3l0.4,0.3c0.2,0.2,0.3,0.4,0.3,0.7c0,0.3-0.1,0.5-0.3,0.7l-4.8,5c-0.2,0.2-0.4,0.3-0.7,0.3
	c-0.3,0-0.5-0.1-0.7-0.3l-0.4-0.3l0,0c-0.2-0.2-0.3-0.4-0.3-0.7C6.2,20.9,6.3,20.7,6.4,20.5z M4.4,16.4L8,12.7
	c0.2-0.2,0.4-0.3,0.7-0.3c0.3,0,0.5,0.1,0.7,0.3L9.7,13c0.1,0.2,0.3,0.6,0.3,0.7c0,0.2-0.1,0.4-0.2,0.5c-0.2,0.2-2.7,2.8-3.8,4
	c-0.2,0.1-0.4,0.2-0.6,0.2c-0.3,0-0.5-0.1-0.7-0.3l-0.4-0.3c-0.2-0.2-0.3-0.4-0.3-0.7C4.2,16.8,4.2,16.6,4.4,16.4z M26.9,15.4
	l6.2,5.7c0.2,0.2,0.3,0.4,0.3,0.7c0,0.3-0.1,0.5-0.3,0.7l-0.3,0.4c-0.2,0.2-0.4,0.3-0.7,0.3c-0.3,0-0.5-0.1-0.7-0.3l-5.8-5.4
	L24.4,19l5.2,4.8c0.2,0.2,0.3,0.4,0.3,0.7c0,0.3-0.1,0.5-0.3,0.7l-0.3,0.4c-0.2,0.2-0.4,0.3-0.7,0.3c-0.3,0-0.5-0.1-0.7-0.3l-5-4.6
	l-0.1-0.2L21.6,22l-0.2,0.2l0.2,0.1l2.5,2.3c0.2,0.2,0.3,0.4,0.3,0.7c0,0.3-0.1,0.5-0.3,0.7l-0.3,0.4c-0.2,0.2-0.4,0.3-0.7,0.3
	c-0.3,0-0.5-0.1-0.7-0.3l-2.1-1.9c0.2-0.4,0.3-0.8,0.3-1.1c0-0.8-0.3-1.5-0.9-2l-0.4-0.3c-0.5-0.5-1.2-0.8-1.9-0.8
	c-0.1-0.7-0.8-1.8-0.8-1.8l-0.4-0.4c-0.3-0.3-0.8-0.6-1.2-0.7c0.1-0.2,0.1-0.5,0.1-0.7c0-0.8-0.3-1.5-0.9-2l-0.4-0.3
	c-0.5-0.5-1.2-0.8-2-0.8c0,0,0,0,0,0c-0.1-0.6-0.3-1.2-0.8-1.7l-0.4-0.4c-0.5-0.5-1.2-0.8-2-0.8c0,0,0,0,0,0c-0.8,0-1.5,0.3-2,0.9
	L6,12.1L2.4,9.1C2.2,8.9,2,8.6,2,8.3c0-0.2,0.1-0.5,0.2-0.6l4-4.4C6.4,3.1,6.6,3,6.8,2.9c0.2-0.1,0.5-0.2,0.8-0.2c0,0,0,0,0,0
	c0.2,0,0.4,0,0.6,0.1l2.2,0.9C11,4,11.7,4.1,12.5,4.2c0.8,0,1.5-0.1,2.1-0.4l2.2-0.9c0.3-0.1,0.8-0.2,1.2-0.2c0,0,0,0,0,0
	c0.5,0,1,0.1,1.3,0.3l0.1,0c0.1,0,0.1,0.1,0.2,0.1l-1.9,1.4c-0.7,0.5-1.2,1.4-1.2,2.3c0,0.6,0.2,1.2,0.6,1.7l0.3,0.4
	c0.6,0.8,1.5,1.2,2.5,1.2c0.5,0,1.1-0.1,1.5-0.4l1.3-0.8c0.2-0.1,0.6-0.2,1-0.2c0,0,0,0,0,0c0.4,0,0.9,0.1,1.2,0.3l3.7,2.6
	c0.8,0.6,2.1,1.7,2.9,2.3l4.2,3.9c0.2,0.2,0.3,0.4,0.3,0.7c0,0.3-0.1,0.5-0.3,0.7l-0.3,0.4c-0.2,0.2-0.4,0.3-0.7,0.3
	c-0.3,0-0.5-0.1-0.7-0.3l-5.8-5.4L26.9,15.4z M42.1,5.6l-3.3-4.3c-0.6-0.7-1.5-1.2-2.4-1.2c-0.6,0-1.1,0.2-1.6,0.4l-3.3,2
	C31.2,2.9,30.6,3,30.1,3c-0.4,0-0.8-0.1-1.1-0.2l-3.2-1.5c-0.5-0.2-1.1-0.4-1.8-0.4c-0.9,0-1.8,0.3-2.5,0.7l-0.3,0.2
	c-0.3-0.1-0.7-0.3-1.2-0.6c-0.6-0.3-1.3-0.4-2.2-0.4c-0.7,0-1.4,0.1-2,0.4l-2.2,0.9c-0.3,0.1-0.9,0.2-1.4,0.2c0,0,0,0,0,0
	c-0.5,0-1.1-0.1-1.4-0.2L8.9,1.1C8.5,1,8.1,0.9,7.6,0.9c-0.5,0-1,0.1-1.5,0.3C5.6,1.4,5.2,1.7,4.9,2.1l-4,4.4C0.4,7,0.2,7.7,0.2,8.3
	c0,0.8,0.4,1.6,1,2.1l3.5,3l-1.6,1.7c-0.5,0.5-0.8,1.2-0.8,1.9c0,0.8,0.3,1.5,0.9,2l0.4,0.3c0.3,0.3,0.6,0.5,1,0.6
	c-0.2,0.4-0.2,0.7-0.2,1.1c0,0.8,0.3,1.5,0.9,2h0l0.4,0.3c0.5,0.5,1.2,0.8,2,0.8c0,0,0,0,0,0c0.3,0,0.6,0,0.9-0.1
	c0.1,0.4,0.4,0.8,0.7,1.1l0.4,0.3c0.5,0.5,1.2,0.8,2,0.8c0,0,0,0,0,0c0.5,0,0.9-0.1,1.3-0.3c0.2,0.4,0.4,0.7,0.7,1l0.4,0.3
	c0.5,0.5,1.2,0.8,2,0.8c0,0,0,0,0,0c0.8,0,1.5-0.3,2-0.9l1.4-1.5l2,1.8c0.5,0.5,1.2,0.8,1.9,0.8c0,0,0,0,0,0c0.8,0,1.5-0.3,2.1-0.9
	l0.3-0.4c0.2-0.2,0.4-0.5,0.5-0.8l0.6,0.5c0.5,0.5,1.2,0.8,1.9,0.8c0,0,0,0,0,0c0.8,0,1.5-0.3,2.1-0.9l0.3-0.4
	c0.3-0.4,0.6-0.8,0.7-1.3c0.2,0,0.3,0,0.5,0c0.8,0,1.5-0.3,2.1-0.9l0.3-0.4c0.5-0.5,0.8-1.2,0.8-1.9c0-0.1,0-0.3,0-0.4
	c0.6-0.1,1.1-0.4,1.5-0.8l0.3-0.4c0.5-0.5,0.8-1.2,0.8-1.9c0-0.8-0.3-1.5-0.9-2.1l-0.5-0.4L42,9.7c0.5-0.6,0.8-1.3,0.8-2.1v0
	C42.8,6.9,42.5,6.2,42.1,5.6z"/>
</svg>
