<?xml version="1.0" encoding="utf-8"?>
<!-- Generator: Adobe Illustrator 22.0.1, SVG Export Plug-In . SVG Version: 6.00 Build 0)  -->
<svg version="1.1" id="Layer_1" xmlns="http://www.w3.org/2000/svg" xmlns:xlink="http://www.w3.org/1999/xlink" x="0px" y="0px"
	 viewBox="0 0 40 41" style="enable-background:new 0 0 40 41;" xml:space="preserve">
<path id="health" d="M26.6,19.9c-0.3,1.9-2.5,4-4.3,5.7c0,0-0.9,0.9-1.2,1.1c-0.2,0.2-0.6,0.5-1.1,0.5c-0.5,0-0.9-0.3-1.1-0.5
	c-0.3-0.2-1.2-1.1-1.2-1.1c-1.8-1.7-4-3.8-4.3-5.7c-0.1-0.3-0.1-0.6-0.1-0.9c0-0.9,0.2-1.7,0.7-2.3c0.6-0.8,1.6-1.3,3-1.5
	c0.1,0,0.2,0,0.4,0c1,0,1.9,0.4,2.7,1c0.7-0.6,1.7-1,2.7-1c0.1,0,0.2,0,0.4,0c1.4,0.1,2.3,0.6,3,1.5C26.6,17.5,26.8,18.6,26.6,19.9
	 M34.8,13.9h-8.1V5.8c0-2.8-2.3-5.1-5.1-5.1h-3.4c-2.8,0-5.1,2.3-5.1,5.1v8.1H5.1C2.3,13.9,0,16.1,0,19v3.4c0,2.8,2.3,5.1,5.1,5.1
	h8.1v8.1c0,2.8,2.3,5.1,5.1,5.1h3.4c2.8,0,5.1-2.3,5.1-5.1v-8.1h8.1c2.8,0,5.1-2.3,5.1-5.1V19C39.9,16.1,37.6,13.9,34.8,13.9"/>
</svg>
