<?xml version="1.0" encoding="utf-8"?>
<!-- Generator: Adobe Illustrator 22.0.1, SVG Export Plug-In . SVG Version: 6.00 Build 0)  -->
<svg version="1.1" id="Layer_1" xmlns="http://www.w3.org/2000/svg" xmlns:xlink="http://www.w3.org/1999/xlink" x="0px" y="0px"
	 viewBox="0 0 56 66" style="enable-background:new 0 0 56 66;" xml:space="preserve">
<path id="Fill-1" d="M50.9,5.2c-2.8-2.8-6.5-4.3-10.4-4.3S32.8,2.5,30,5.2c-2.3,2.3-3.7,5.2-4.2,8.3h-8.6V7.2c0-3.5-2.8-6.3-6.3-6.3
	H2.5C1.4,0.9,0.4,1.9,0.4,3c0,1.2,0.9,2.1,2.1,2.1H11c1.2,0,2.1,0.9,2.1,2.1v6.3H6.7c-0.6,0-1.2,0.2-1.6,0.7c-0.4,0.4-0.6,1-0.5,1.6
	l3.3,37.1h31.4l2-22.5c3.6-0.2,7-1.7,9.6-4.3c2.8-2.8,4.3-6.5,4.3-10.4S53.7,8,50.9,5.2z M31.7,9.9l3.7,3.7h-5.2
	C30.4,12.2,30.9,11,31.7,9.9z M18,41.7c-1.2,0-2.1-0.9-2.1-2.1c0-1.2,0.9-2.1,2.1-2.1c1.2,0,2.1,0.9,2.1,2.1
	C20.1,40.7,19.1,41.7,18,41.7z M29.2,48.7c-1.2,0-2.1-0.9-2.1-2.1c0-1.2,0.9-2.1,2.1-2.1c1.2,0,2.1,0.9,2.1,2.1
	C31.3,47.8,30.4,48.7,29.2,48.7z M37.2,28.8c-1.6,0.1-3.2,0.4-4.7,1.2c-3.6,1.8-6.5-0.1-7.9-0.6c-2.5-0.9-5.4-0.9-8.1,0.2
	c-1.3,0.5-3.5,1.8-6.4,0.8L9,17.8h29.1L37.2,28.8z M40.5,12.7l-5.8-5.8c1.7-1.1,3.7-1.7,5.8-1.7c2.1,0,4.1,0.6,5.8,1.7L40.5,12.7z
	 M41.7,26.2l0.5-5.8l4.1,4.1C44.9,25.4,43.3,26,41.7,26.2z M49.3,21.5l-5.8-5.8l5.8-5.8c1.1,1.7,1.7,3.7,1.7,5.8
	S50.4,19.8,49.3,21.5z"/>
<path id="Fill-2" d="M8.3,57.2l0.6,6.5c0.1,1.1,1,1.9,2.1,1.9h25.3c1.1,0,2-0.8,2.1-1.9l0.6-6.5H8.3z"/>
</svg>
