<?xml version="1.0" encoding="utf-8"?>
<!-- Generator: Adobe Illustrator 22.0.1, SVG Export Plug-In . SVG Version: 6.00 Build 0)  -->
<svg version="1.1" id="Layer_1" xmlns="http://www.w3.org/2000/svg" xmlns:xlink="http://www.w3.org/1999/xlink" x="0px" y="0px"
	 viewBox="0 0 29 29" style="enable-background:new 0 0 29 29;" xml:space="preserve">
<path id="phone" d="M14.7,0.3C6.8,0.3,0.5,6.6,0.5,14.5c0,7.8,6.4,14.2,14.2,14.2s14.2-6.4,14.2-14.2C28.9,6.6,22.5,0.3,14.7,0.3z
	 M22.2,21L21,22.1c-0.2,0.2-0.8,0.3-0.8,0.3c-3.6,0-7.1-1.4-9.6-3.9c-2.6-2.6-4-6-3.9-9.6c0,0,0.1-0.6,0.3-0.8L8.2,7
	c0.4-0.4,1.2-0.6,1.8-0.4l0.2,0.1c0.6,0.2,1.1,0.8,1.3,1.4l0.6,2.1c0.2,0.6-0.1,1.4-0.5,1.8l-0.8,0.8c0.7,2.8,2.9,4.9,5.7,5.7
	l0.8-0.8c0.4-0.4,1.2-0.6,1.8-0.5l2.1,0.6c0.6,0.2,1.2,0.7,1.4,1.3l0.1,0.2C22.8,19.8,22.6,20.6,22.2,21z"/>
</svg>
