<?xml version="1.0" encoding="utf-8"?>
<!-- Generator: Adobe Illustrator 22.0.1, SVG Export Plug-In . SVG Version: 6.00 Build 0)  -->
<svg version="1.1" id="Layer_1" xmlns="http://www.w3.org/2000/svg" xmlns:xlink="http://www.w3.org/1999/xlink" x="0px" y="0px"
	 viewBox="0 0 39 36" style="enable-background:new 0 0 39 36;" xml:space="preserve">
<path id="Fill-1" d="M36.3,20.1c0,0.5-0.4,0.8-0.8,0.8h-1.2c-0.4,0-0.8,0.3-0.9,0.7c-0.7,2.3-2.1,4.4-4,6.1l0,0l0,0l-0.2,0.2
	c0,0,0,0,0,0c-2.1,1.9-2.3,4.1-2.3,4.7v1.5c0,0,0,0,0,0H21c0,0,0,0,0,0v-1.4c0-0.3-0.1-0.5-0.3-0.7c-0.2-0.2-0.4-0.2-0.6-0.2
	c0,0-0.1,0-0.1,0c-0.6,0.1-1.3,0.1-1.9,0.1c-0.8,0-1.7-0.1-2.5-0.2c-0.3,0-0.5,0-0.7,0.2c-0.2,0.2-0.3,0.4-0.3,0.7v1.4c0,0,0,0,0,0
	H8.6c0,0,0,0,0,0v-0.5c0-1.1-0.4-3.7-2.5-5.9c-1-1-1.9-2.4-2.7-4c0,0,0,0,0,0c-0.4-0.9-0.8-1.8-1-2.7c0,0,0,0,0,0v0
	C2.2,20,2.1,19,2.1,18.1C2.1,10.4,9.2,4.2,18,4.2c1.9,0,3.7,0.3,5.4,0.8c0.4,0.1,0.8,0,1.1-0.4c0.7-1,2.1-2.3,4.8-2.7
	c0.1,0,0.1,0,0.1,0.1c0,0.1,0,0.1,0,0.1c-1,1.7-1.3,3.4-0.9,5c0,0,0,0,0,0c0,0.3,0.1,0.5,0.4,0.7c2.1,1.7,3.7,3.9,4.5,6.3
	c0.1,0.4,0.5,0.7,0.9,0.7h1.3c0.5,0,0.8,0.4,0.8,0.8L36.3,20.1L36.3,20.1z M35.5,13h-0.6c-0.9-2.4-2.5-4.6-4.6-6.3v0
	C30,5.6,30.2,4.4,31,3.2c0.4-0.6,0.4-1.4,0.1-2c-0.4-0.6-1-1-1.7-1c-0.1,0-0.2,0-0.3,0c-2.9,0.4-4.7,1.7-5.7,2.9
	c-1.7-0.5-3.5-0.7-5.4-0.7C13.3,2.3,8.8,4,5.4,6.9c-3.4,3-5.3,6.9-5.3,11.1c0,1.1,0.1,2.2,0.4,3.2c0,0,0,0,0,0.1c0,0,0,0,0,0
	c0.3,1.1,0.7,2.1,1.2,3.1c0.8,1.8,1.9,3.4,3,4.5c1.6,1.7,1.9,3.8,1.9,4.6v0.5c0,0,0,0.1,0,0.1c0.1,1,0.9,1.7,1.9,1.7h5.8
	c1,0,1.9-0.9,1.9-1.9v-0.4c0.9,0.1,1.8,0.1,2.7,0v0.4c0,1,0.9,1.9,1.9,1.9h5.8c1,0,1.9-0.9,1.9-1.9v-1.4c0-0.3,0.1-1.9,1.7-3.3
	c0.1-0.1,0.1-0.1,0.2-0.2l0,0c0,0,0,0,0.1,0c2-1.8,3.4-3.9,4.3-6.2h0.5c1.5,0,2.7-1.2,2.7-2.7v-4.4C38.2,14.2,37,13,35.5,13z"/>
<path id="Fill-4" d="M19,17.1h-2.1c-0.8,0-1.4-0.6-1.4-1.4c0-0.8,0.6-1.4,1.4-1.4h3.7c0.5,0,0.9-0.4,0.9-0.9c0-0.5-0.4-0.9-0.9-0.9
	h-1.7v-1.3c0-0.5-0.4-0.9-0.9-0.9c-0.5,0-0.9,0.4-0.9,0.9v1.3h-0.1c-1.8,0-3.3,1.5-3.3,3.2c0,1.8,1.5,3.3,3.3,3.3H19
	c0.8,0,1.4,0.6,1.4,1.4s-0.6,1.4-1.4,1.4h-3.8c-0.5,0-0.9,0.4-0.9,0.9c0,0.5,0.4,0.9,0.9,0.9H17v1.3c0,0.5,0.4,0.9,0.9,0.9
	c0.5,0,0.9-0.4,0.9-0.9v-1.3h0.2c1.8,0,3.2-1.5,3.2-3.2C22.3,18.6,20.8,17.1,19,17.1"/>
</svg>
