<?xml version="1.0" encoding="utf-8"?>
<!-- Generator: Adobe Illustrator 22.0.1, SVG Export Plug-In . SVG Version: 6.00 Build 0)  -->
<svg version="1.1" id="Layer_1" xmlns="http://www.w3.org/2000/svg" xmlns:xlink="http://www.w3.org/1999/xlink" x="0px" y="0px"
	 viewBox="0 0 29 29" style="enable-background:new 0 0 29 29;" xml:space="preserve">
<path id="map-pin" d="M14.7,0C6.8,0,0.5,6.4,0.5,14.2c0,7.8,6.4,14.2,14.2,14.2c7.8,0,14.2-6.4,14.2-14.2C28.9,6.4,22.5,0,14.7,0z
	 M14.7,6.5C14.7,6.5,14.7,6.5,14.7,6.5C14.7,6.5,14.7,6.5,14.7,6.5c2.5,0,4.4,2,4.4,4.4c0,2.9-3.1,5.9-4.4,7
	c-0.1-0.1-0.2-0.2-0.3-0.2c0,0,0,0,0,0c-1.4-1.2-4.1-4-4.1-6.7C10.3,8.5,12.3,6.6,14.7,6.5z M14.7,22c-2.6,0-5.3-0.8-5.3-2.2
	c0-1,1.3-1.7,3-2c0.3,0.3,0.6,0.6,0.9,0.9c-1.8,0.2-2.9,0.8-2.9,1.1c0,0.4,1.6,1.2,4.3,1.2c2.7,0,4.3-0.8,4.3-1.2
	c0-0.4-1.1-0.9-3-1.1c0.3-0.2,0.6-0.5,0.9-0.9c1.7,0.3,3.1,1,3.1,2C20,21.3,17.4,22,14.7,22z"/>
</svg>
