<?xml version="1.0" encoding="utf-8"?>
<!-- Generator: Adobe Illustrator 22.0.1, SVG Export Plug-In . SVG Version: 6.00 Build 0)  -->
<svg version="1.1" id="Layer_1" xmlns="http://www.w3.org/2000/svg" xmlns:xlink="http://www.w3.org/1999/xlink" x="0px" y="0px"
	 viewBox="0 0 33 41" style="enable-background:new 0 0 33 41;" xml:space="preserve">
<path id="Fill-1" d="M3,26.3c-0.6-1.1-0.3-2.7,0.1-4.4c0.3-1.1,0.4-2.3,0.5-3.4l0,0l0,0c0-1.1-0.2-2.3-0.5-3.4
	c-0.4-1.7-0.7-3.3-0.1-4.4c0.7-1.1,2.3-1.7,4-2.2C8,8.1,9,7.7,10,7.2l0,0c0.9-0.6,1.7-1.3,2.5-2c1.3-1.2,2.6-2.4,4-2.4
	c1.4,0,2.6,1.2,4,2.4c0.8,0.8,1.6,1.4,2.5,2l0,0c1,0.5,2,0.9,3.1,1.2c1.7,0.5,3.3,1,4,2.2c0.6,1.1,0.3,2.7-0.1,4.4
	c-0.3,1.1-0.4,2.3-0.5,3.4l0,0l0,0c0,1.1,0.2,2.3,0.5,3.4c0.4,1.7,0.7,3.3,0.1,4.4c-0.7,1.1-2.3,1.7-4,2.2C25,28.7,24,29.2,23,29.7
	l0,0c-0.9,0.6-1.7,1.3-2.5,2c-1.3,1.2-2.6,2.4-4,2.4c-1.4,0-2.6-1.2-4-2.4c-0.8-0.8-1.6-1.4-2.5-2l0,0c-1-0.5-2-0.9-3.1-1.2
	C5.2,27.9,3.6,27.4,3,26.3z M6.2,30.3l0.1,0l0,0c0.9,0.3,1.8,0.6,2.7,1c0.8,0.5,1.5,1.1,2.1,1.7l0,0l-2.9,3.7l-0.8-2.8
	c-0.1-0.4-0.5-0.7-1-0.7c0,0-0.1,0-0.1,0l-2.9,0.4L6.2,30.3z M21.8,33.2c0.7-0.7,1.4-1.2,2.1-1.7c0.9-0.4,1.8-0.8,2.7-1l0.2,0
	l2.7,3.5l-2.9-0.4h0c-0.5-0.1-1,0.2-1.1,0.7l-0.8,2.8L21.8,33.2L21.8,33.2z M32.6,34.5l-3.8-4.8c1.2-0.5,2.2-1.3,2.9-2.4l0,0
	c1-1.8,0.6-3.8,0.1-5.8l0,0c-0.2-1-0.4-2-0.4-3c0-1,0.2-2,0.4-3l0,0c0.4-2,0.9-4.1-0.1-5.8c-1.1-1.8-3.1-2.5-5.1-3.1l0,0
	c-0.9-0.3-1.8-0.6-2.7-1.1c-0.8-0.5-1.5-1.1-2.1-1.7l0,0c-1.5-1.4-3.1-2.9-5.3-2.9c-2.2,0-3.9,1.5-5.3,2.9l0,0C10.5,4.4,9.8,5,9,5.5
	c-0.9,0.4-1.8,0.8-2.7,1l0,0c-2,0.6-4,1.3-5.1,3.1c-1,1.8-0.6,3.8-0.1,5.8l0,0c0.2,1,0.4,2,0.4,3c0,1-0.2,2-0.4,3l0,0
	c-0.4,2-0.9,4.1,0.1,5.8l0,0c0.7,1.1,1.7,1.9,2.9,2.4l-3.8,4.8c-0.3,0.4-0.3,1.1,0.2,1.4C0.8,36,1,36.1,1.3,36.1l4.5-0.6l1.1,3.8
	C7,39.7,7.3,40,7.7,40.1c0.1,0,0.1,0,0.2,0c0,0,0,0,0,0c0.3,0,0.6-0.1,0.8-0.4l4-5.2c1.1,0.9,2.4,1.5,3.8,1.6l0,0l0,0
	c1.4-0.1,2.7-0.7,3.8-1.6l4,5.2c0.2,0.2,0.5,0.4,0.8,0.4c0.1,0,0.1,0,0.2,0c0.4-0.1,0.7-0.3,0.8-0.7l1.1-3.8l4.5,0.6
	c0.3,0,0.5,0,0.7-0.2s0.3-0.4,0.4-0.7C32.8,34.9,32.8,34.7,32.6,34.5z"/>
<path id="Fill-4" d="M18.5,16.8l3.5,0l-2.8,2.1h0c-0.4,0.3-0.5,0.7-0.4,1.1l1.1,3.3l-2.8-2.1c-0.4-0.3-0.8-0.3-1.2,0l-2.8,2.1
	l1.1-3.3c0.1-0.4,0-0.9-0.4-1.1l-2.8-2.1h3.5c0.4,0,0.8-0.3,1-0.7l1.1-3.3l1.1,3.3C17.7,16.5,18.1,16.8,18.5,16.8z M10.8,23.7
	c-0.1,0.4-0.1,0.9,0.1,1.3c0.2,0.4,0.5,0.7,1,0.8c0.5,0.2,1.1,0.1,1.5-0.2l3.1-2.3l3.1,2.2c0.3,0.2,0.6,0.3,1,0.3
	c0.3,0,0.7-0.1,1-0.3c0.6-0.4,0.8-1.2,0.6-1.9L21,20l3.1-2.3c0.4-0.3,0.6-0.6,0.7-1.1c0.1-0.4,0-0.9-0.3-1.2
	c-0.3-0.4-0.8-0.7-1.3-0.7h-3.8l-1.2-3.6c-0.3-0.9-1.2-1.4-2.1-1.1c-0.5,0.2-0.9,0.6-1.1,1.1l-1.2,3.6H9.9c-0.9,0-1.7,0.7-1.7,1.7
	c0,0.5,0.3,1,0.7,1.4L12,20L10.8,23.7z"/>
</svg>
