<?xml version="1.0" encoding="utf-8"?>
<!-- Generator: Adobe Illustrator 22.0.1, SVG Export Plug-In . SVG Version: 6.00 Build 0)  -->
<svg version="1.1" id="Layer_1" xmlns="http://www.w3.org/2000/svg" xmlns:xlink="http://www.w3.org/1999/xlink" x="0px" y="0px"
	 viewBox="0 0 47 58" style="enable-background:new 0 0 47 58;" xml:space="preserve">
<g id="tap" transform="translate(0.823296, 5.499632)">
	<path id="Fill-1" d="M44.4,9.2C43.8,1.3,37.1-4.9,29.1-4.9c-8.5,0-15.3,6.9-15.3,15.3v41.9h-3.4V41.1H0.1v11.2h36.7V41.1H26.5v11.2
		h-3.4V10.4c0-3.3,2.7-6,6-6c2.9,0,5.4,2.1,5.9,4.9c-0.7,0.6-1.2,1.5-1.2,2.5v3.6c0,1.7,1.4,3.1,3.1,3.1h5.7c1.7,0,3.1-1.4,3.1-3.1
		v-3.6C45.7,10.7,45.2,9.8,44.4,9.2z"/>
	<path id="Fill-2" d="M40.8,21.1l-1.1-1l-1.1,1c-0.3,0.3-3,2.9-3,5.9c0,2.3,1.8,4.1,4.1,4.1c2.3,0,4.1-1.8,4.1-4.1
		C43.8,24,41.1,21.4,40.8,21.1z"/>
	<path id="Fill-3" d="M0.1,35.2v2.5h10.3v-6.6H4.1C1.9,31.1,0.1,32.9,0.1,35.2z"/>
	<path id="Fill-4" d="M32.7,31.1h-6.2v6.6h10.3v-2.5C36.8,32.9,34.9,31.1,32.7,31.1z"/>
</g>
</svg>
