<?xml version="1.0" encoding="utf-8"?>
<!-- Generator: Adobe Illustrator 22.0.1, SVG Export Plug-In . SVG Version: 6.00 Build 0)  -->
<svg version="1.1" id="Layer_1" xmlns="http://www.w3.org/2000/svg" xmlns:xlink="http://www.w3.org/1999/xlink" x="0px" y="0px"
	 viewBox="0 0 31 38" style="enable-background:new 0 0 31 38;" xml:space="preserve">
<path id="tooth-sparkle" d="M31,8.5c0,4.3-1.3,6.5-2.3,8c-0.3,0.4-0.9,0.5-1.3,0.2c-0.4-0.3-0.5-0.9-0.2-1.3c0.9-1.2,2-3.1,2-6.9
	c0-3.9-3.3-6.7-7.8-6.7c-1.9,0-3.7,0.9-5.1,2.6c0,0,0,0-0.1,0.1c-0.1,0.1-0.2,0.2-0.2,0.3c-1,1.5-2,2.9-5.1,2.9
	c-0.5,0-0.9-0.4-0.9-0.9c0-0.5,0.4-0.9,0.9-0.9c2.1,0,2.6-0.7,3.5-1.9c-1.3-1.3-3-2.1-4.7-2.1c-4.5,0-7.8,2.8-7.8,6.7
	c0,4.7,1.6,6.5,2.9,7.9c1.2,1.4,2.3,2.6,1.1,5.3c-0.3,0.7-0.6,1.4-0.7,2.2c-0.1,0.2-0.2,0.4-0.4,0.6c-0.1,0.1-0.3,0.1-0.5,0.1
	c-0.1,0-0.1,0-0.2,0c-0.5-0.1-0.8-0.6-0.7-1.1c0.2-0.9,0.5-1.8,0.9-2.6c0.7-1.6,0.3-2-0.8-3.3C1.9,16.1,0,13.9,0,8.5
	c0-2.3,1-4.5,2.7-6C4.5,0.9,6.9,0,9.7,0c2.1,0,4.2,0.9,5.8,2.5C17.1,0.9,19.2,0,21.3,0c2.7,0,5.2,0.9,6.9,2.5C30,4.1,31,6.2,31,8.5z
	 M27.6,32.1c-0.5,2.1-1.3,3.9-2.1,4.9c-0.6,0.6-1.2,1-1.8,1c-1.6,0-2.1-2-2.8-4.8c-0.5-1.9-1-4-1.9-5.6c-0.9-1.7-2-2.5-3.5-2.5
	c-1.4,0-2.5,0.8-3.5,2.5c-0.9,1.6-1.4,3.7-1.9,5.6C9.4,36,8.9,38,7.3,38c-0.6,0-1.2-0.3-1.7-0.9c-0.8-0.9-1.6-2.5-2.1-4.4
	c-0.4-1.5-0.8-3.8-0.6-6.6c0-0.2,0.1-0.5,0.3-0.6c0.2-0.2,0.4-0.2,0.7-0.2c0.5,0,0.9,0.5,0.8,1c-0.1,1.9,0.1,4,0.5,5.9
	c0.4,1.6,1,3,1.7,3.7c0.1,0.1,0.2,0.2,0.3,0.3c0.1-0.1,0.2-0.3,0.3-0.6c0.3-0.7,0.5-1.7,0.8-2.8c1-4,2.4-9.4,7.1-9.4
	c4.7,0,6.1,5.4,7.1,9.4c0.3,1.1,0.5,2.1,0.8,2.8c0.1,0.3,0.2,0.5,0.3,0.6c0.1,0,0.2-0.1,0.4-0.3c1.3-1.4,2.7-5.9,2.1-10.5
	c0-0.2,0-0.5,0.2-0.7c0.1-0.2,0.4-0.3,0.6-0.3c0.2,0,0.5,0,0.7,0.2c0.2,0.1,0.3,0.4,0.3,0.6C28.2,27.3,28.1,29.8,27.6,32.1z
	 M27,19.6c-0.3,0.2-0.5,0.5-0.7,0.8v0c-0.1,0.1-0.2,0.3-0.3,0.4c-0.1-0.2-0.2-0.3-0.3-0.4c-0.2-0.3-0.5-0.6-0.7-0.8
	c0.3-0.2,0.5-0.5,0.7-0.8c0.1-0.1,0.2-0.3,0.3-0.4c0.1,0.2,0.2,0.3,0.3,0.4C26.5,19.1,26.7,19.4,27,19.6z M28.9,18.9
	c-1.2,0-2.2-1.5-2.2-3.4c0-0.4-0.3-0.7-0.7-0.7c-0.4,0-0.7,0.3-0.7,0.7c0,1.8-1,3.4-2.2,3.4c-0.4,0-0.7,0.3-0.7,0.7s0.3,0.7,0.7,0.7
	c1.2,0,2.2,1.5,2.2,3.4c0,0.4,0.3,0.7,0.7,0.7c0.4,0,0.7-0.3,0.7-0.7c0-1.8,1-3.4,2.2-3.4c0.4,0,0.7-0.3,0.7-0.7
	S29.3,18.9,28.9,18.9z M18.2,15.5c-0.3,0.2-0.5,0.5-0.7,0.8c-0.1,0.1-0.2,0.3-0.3,0.4c-0.1-0.2-0.2-0.3-0.3-0.4
	c-0.2-0.3-0.5-0.6-0.7-0.8c0.3-0.2,0.5-0.5,0.7-0.8c0.1-0.1,0.2-0.3,0.3-0.4c0.1,0.2,0.2,0.3,0.3,0.4C17.7,15,18,15.3,18.2,15.5z
	 M20.1,14.8c-1.2,0-2.2-1.5-2.2-3.4c0-0.4-0.3-0.7-0.7-0.7c-0.4,0-0.7,0.3-0.7,0.7c0,1.8-1,3.4-2.2,3.4c-0.4,0-0.7,0.3-0.7,0.7
	c0,0.4,0.3,0.7,0.7,0.7c1.2,0,2.2,1.5,2.2,3.4c0,0.4,0.3,0.7,0.7,0.7c0.4,0,0.7-0.3,0.7-0.7c0-1.8,1-3.4,2.2-3.4
	c0.4,0,0.7-0.3,0.7-0.7C20.8,15.1,20.5,14.8,20.1,14.8z M25.5,9.1c-0.7,0.5-1.4,1.2-1.8,2.1c-0.4-0.9-1.1-1.6-1.8-2.1
	c0.7-0.5,1.4-1.2,1.8-2.1C24.1,7.9,24.7,8.6,25.5,9.1z M27.7,8.4c-1.9,0-3.4-2-3.4-4.5c0-0.4-0.3-0.7-0.7-0.7
	c-0.4,0-0.7,0.3-0.7,0.7c0,2.5-1.5,4.5-3.4,4.5c-0.4,0-0.7,0.3-0.7,0.7c0,0.4,0.3,0.7,0.7,0.7c1.9,0,3.4,2,3.4,4.5
	c0,0.4,0.3,0.7,0.7,0.7c0.4,0,0.7-0.3,0.7-0.7c0-2.5,1.5-4.5,3.4-4.5c0.4,0,0.7-0.3,0.7-0.7C28.4,8.7,28.1,8.4,27.7,8.4z"/>
</svg>
