<?xml version="1.0" encoding="utf-8"?>
<!-- Generator: Adobe Illustrator 22.0.1, SVG Export Plug-In . SVG Version: 6.00 Build 0)  -->
<svg version="1.1" id="Layer_1" xmlns="http://www.w3.org/2000/svg" xmlns:xlink="http://www.w3.org/1999/xlink" x="0px" y="0px"
	 viewBox="0 0 30 40" style="enable-background:new 0 0 30 40;" xml:space="preserve">
<path id="tooth-plain" d="M29.5,5.9c-0.5-2.7-1.9-4.4-4-5.1c-1.5-0.5-3.3-0.5-5.6,0.2c-2.3,0.7-3.9,1.1-5,1.1c-1.1,0-2.7-0.4-5-1.1
	C7.6,0.4,5.7,0.3,4.3,0.8C2.2,1.6,0.8,3.3,0.2,5.9c-0.3,1.6-0.3,3.3,0.2,4.9c0.4,1.6,1,3.3,1.8,5c0.8,1.7,1.2,3,1.4,4.1
	c0.1,0.6,0.1,1.9,0.1,4c-0.1,2.1,0,4.1,0.2,6.1c0.9,6.6,2.4,9.9,4.4,9.9c0.4,0,0.8-0.1,1.1-0.4c0.3-0.2,0.6-0.6,0.7-1.2
	c0.2-0.5,0.3-1.1,0.4-1.6c0.1-0.5,0.1-1.2,0.1-2.1c0-0.9-0.1-1.6-0.1-2.1c0-0.5-0.1-1.3-0.1-2.2c-0.1-1.6-0.1-2.6-0.1-3.2
	c0.3-3.6,1.9-5.4,4.6-5.4c2.7,0,4.3,1.8,4.6,5.4c0.1,0.6,0,1.7-0.1,3.2c-0.1,0.9-0.1,1.7-0.2,2.2c-0.1,0.5-0.1,1.2-0.1,2.1
	c0,0.9,0,1.6,0.1,2.1c0.1,0.5,0.2,1,0.4,1.6c0.2,0.5,0.4,0.9,0.7,1.2c0.3,0.2,0.7,0.4,1.1,0.4c2,0,3.5-3.3,4.4-9.9
	c0.2-2,0.3-4,0.2-6.1c-0.1-2.1,0-3.5,0.1-3.9c0.2-1,0.6-2.4,1.4-4.1c0.8-1.7,1.4-3.3,1.8-5C29.8,9.2,29.9,7.6,29.5,5.9"/>
</svg>
