<?xml version="1.0" encoding="utf-8"?>
<!-- Generator: Adobe Illustrator 22.0.1, SVG Export Plug-In . SVG Version: 6.00 Build 0)  -->
<svg version="1.1" id="Layer_1" xmlns="http://www.w3.org/2000/svg" xmlns:xlink="http://www.w3.org/1999/xlink" x="0px" y="0px"
	 viewBox="0 0 29 29" style="enable-background:new 0 0 29 29;" xml:space="preserve">
<path id="web" d="M14.7,0.5C6.8,0.5,0.5,6.9,0.5,14.7c0,7.8,6.4,14.2,14.2,14.2c7.8,0,14.2-6.4,14.2-14.2
	C28.9,6.9,22.5,0.5,14.7,0.5z M20.3,9.4l-3.6,10.2c0,0.1-0.1,0.1-0.2,0.2c-0.1,0-0.2,0-0.2-0.1l-1.8-2.5l-3,3c0,0-0.1,0.1-0.2,0.1
	c-0.1,0-0.1,0-0.2-0.1l-1.8-1.8c-0.1-0.1-0.1-0.3,0-0.3l3-3l-2.5-1.8c-0.1-0.1-0.1-0.1-0.1-0.2c0-0.1,0.1-0.2,0.2-0.2l10.2-3.6
	c0.1,0,0.2,0,0.3,0.1C20.3,9.2,20.3,9.3,20.3,9.4z"/>
</svg>
