<?xml version="1.0" encoding="utf-8"?>
<!-- Generator: Adobe Illustrator 22.0.1, SVG Export Plug-In . SVG Version: 6.00 Build 0)  -->
<svg version="1.1" id="Layer_1" xmlns="http://www.w3.org/2000/svg" xmlns:xlink="http://www.w3.org/1999/xlink" x="0px" y="0px"
	 viewBox="0 0 127 126" style="enable-background:new 0 0 127 126;" xml:space="preserve">
<style type="text/css">
	.st0{enable-background:new    ;}
	.st1{fill:#6F5A95;}
	.st2{fill:#9CD9E4;}
	.st3{fill:#DC5829;}
	.st4{fill:#563D82;}
	.st5{fill:#00ADC6;}
	.st6{fill:#42AF48;}
	.st7{fill:#9A8BB3;}
</style>
<g id="_x35_2380" class="st0">
	<path class="st1" d="M23.4,65.2l1.8-2.1c1.3,1.2,2.8,2,4.3,2c2,0,3.3-1.2,3.3-2.9v0c0-1.7-1.4-2.8-3.5-2.8c-1.2,0-2.2,0.3-3.1,0.7
		l-1.8-1.2l0.5-8.2h10v2.6h-7.5l-0.3,3.9c0.8-0.3,1.5-0.5,2.7-0.5c3.3,0,5.8,1.7,5.8,5.3v0c0,3.4-2.5,5.7-6.2,5.7
		C27,67.8,25,66.7,23.4,65.2z"/>
	<path class="st1" d="M38.1,65.1l5.8-4.9c2.3-1.9,3.1-3,3.1-4.5c0-1.7-1.2-2.6-2.7-2.6s-2.6,0.8-3.9,2.5L38.4,54
		c1.6-2.3,3.2-3.5,6.2-3.5c3.3,0,5.5,2,5.5,5v0c0,2.6-1.4,4.1-4.4,6.5l-3.5,2.9h8v2.6H38.1V65.1z"/>
	<path class="st1" d="M52.5,69.7c1.5-0.3,2.2-1,2-2.3h-1.2v-3.3h3.2V67c0,2.7-1.3,3.8-3.7,4L52.5,69.7z"/>
	<path class="st1" d="M59.2,64.8l2.1-1.9c1.2,1.4,2.5,2.2,4.4,2.2c1.7,0,2.9-1,2.9-2.5v0c0-1.7-1.5-2.6-3.9-2.6h-1.4l-0.5-1.8
		l4.5-4.8h-7.3v-2.6h11.1v2.2l-4.7,4.8c2.5,0.3,4.9,1.6,4.9,4.7c0,0,0,0,0,0c0,3.1-2.4,5.3-5.9,5.3C62.7,67.8,60.6,66.5,59.2,64.8z"
		/>
	<path class="st1" d="M74.1,62.9L74.1,62.9c0-2.1,1.1-3.4,3-4.2c-1.4-0.7-2.4-1.9-2.4-3.7v0c0-2.6,2.5-4.5,5.8-4.5s5.8,1.9,5.8,4.5
		v0c0,1.9-1,3-2.4,3.7c1.8,0.8,3,2,3,4v0c0,3-2.7,4.9-6.4,4.9S74.1,65.8,74.1,62.9z M84.1,62.7L84.1,62.7c0-1.6-1.5-2.6-3.5-2.6
		s-3.5,1-3.5,2.5v0c0,1.4,1.3,2.5,3.5,2.5C82.7,65.2,84.1,64.1,84.1,62.7z M83.5,55.3L83.5,55.3c0-1.3-1.2-2.4-3-2.4
		c-1.8,0-3,1.1-3,2.3v0c0,1.5,1.3,2.5,3,2.5S83.5,56.7,83.5,55.3z"/>
	<path class="st1" d="M89.5,59.1L89.5,59.1c0-4.8,2.9-8.7,7.3-8.7c4.4,0,7.3,3.8,7.3,8.6v0c0,4.8-2.9,8.7-7.3,8.7
		C92.3,67.8,89.5,63.9,89.5,59.1z M101,59.1L101,59.1c0-3.4-1.7-6.1-4.3-6.1c-2.6,0-4.2,2.6-4.2,6v0c0,3.3,1.7,6,4.3,6
		C99.4,65.1,101,62.4,101,59.1z"/>
</g>
<g id="patients" class="st0">
	<path class="st1" d="M33.2,75.9h1.2v1.7c0.7-1,1.6-1.8,3.2-1.8c2,0,4,1.6,4,4.3v0c0,2.7-2,4.3-4,4.3c-1.5,0-2.5-0.8-3.2-1.8v4.1
		h-1.2V75.9z M40.2,80.1L40.2,80.1c0-2-1.3-3.2-2.9-3.2c-1.5,0-3,1.3-3,3.2v0c0,1.9,1.5,3.2,3,3.2C38.9,83.3,40.2,82.1,40.2,80.1z"
		/>
	<path class="st1" d="M43.2,81.8L43.2,81.8c0-1.8,1.4-2.7,3.5-2.7c1.1,0,1.8,0.1,2.5,0.4v-0.3c0-1.5-0.9-2.2-2.4-2.2
		c-1,0-1.7,0.2-2.5,0.6l-0.4-1c0.9-0.4,1.8-0.7,3-0.7c1.2,0,2.1,0.3,2.7,0.9c0.6,0.6,0.9,1.4,0.9,2.4v5.1h-1.2V83
		c-0.6,0.7-1.5,1.4-3,1.4C44.7,84.4,43.2,83.5,43.2,81.8z M49.2,81.2v-0.8c-0.6-0.2-1.4-0.4-2.4-0.4c-1.5,0-2.4,0.7-2.4,1.7v0
		c0,1,1,1.6,2.1,1.6C48,83.4,49.2,82.5,49.2,81.2z"/>
	<path class="st1" d="M53.4,82v-5h-1.2v-1.1h1.2v-2.5h1.2v2.5h2.6V77h-2.6v4.8c0,1,0.6,1.4,1.4,1.4c0.4,0,0.8-0.1,1.2-0.3V84
		c-0.4,0.2-0.9,0.4-1.5,0.4C54.4,84.3,53.4,83.7,53.4,82z"/>
	<path class="st1" d="M59.5,72.8h1.4v1.4h-1.4V72.8z M59.5,75.9h1.2v8.3h-1.2V75.9z"/>
	<path class="st1" d="M67.3,83.3c1.1,0,1.9-0.5,2.6-1.2l0.8,0.7c-0.8,0.9-1.8,1.6-3.4,1.6c-2.3,0-4.1-1.7-4.1-4.3
		c0-2.4,1.7-4.3,4-4.3c2.4,0,3.9,2,3.9,4.4c0,0.1,0,0.2,0,0.4h-6.6C64.5,82.3,65.8,83.3,67.3,83.3z M69.7,79.6
		c-0.1-1.5-1-2.8-2.6-2.8c-1.4,0-2.5,1.2-2.7,2.8H69.7z"/>
	<path class="st1" d="M73.1,75.9h1.2v1.4c0.5-0.9,1.4-1.6,2.8-1.6c2,0,3.2,1.3,3.2,3.3v5.1h-1.2v-4.8c0-1.5-0.8-2.5-2.3-2.5
		c-1.4,0-2.5,1-2.5,2.6v4.7h-1.2V75.9z"/>
	<path class="st1" d="M83.4,82v-5h-1.2v-1.1h1.2v-2.5h1.2v2.5h2.6V77h-2.6v4.8c0,1,0.6,1.4,1.4,1.4c0.4,0,0.8-0.1,1.2-0.3V84
		c-0.4,0.2-0.9,0.4-1.5,0.4C84.4,84.3,83.4,83.7,83.4,82z"/>
	<path class="st1" d="M88.7,83.1l0.6-0.9c0.9,0.7,1.9,1.1,2.9,1.1c1,0,1.7-0.5,1.7-1.3v0c0-0.8-1-1.2-2.1-1.5
		c-1.3-0.4-2.7-0.8-2.7-2.3v0c0-1.4,1.2-2.4,2.8-2.4c1,0,2.1,0.4,3,0.9l-0.6,0.9c-0.8-0.5-1.6-0.8-2.4-0.8c-1,0-1.6,0.5-1.6,1.2v0
		c0,0.8,1,1.1,2.1,1.4c1.3,0.4,2.7,0.9,2.7,2.4v0c0,1.6-1.3,2.5-2.9,2.5C91,84.4,89.7,83.9,88.7,83.1z"/>
</g>
<g id="chart" transform="translate(0.888672, 0.539468)">
	<path id="lt-blue" class="st2" d="M108.9,71.3c0.2-1.5,0.5-2.9,0.6-4.4l0.2-4.4h16l-0.3,5.9c-0.2,2-0.6,3.9-0.8,5.9L108.9,71.3z"/>
	<path id="orange" class="st3" d="M62.8,109.4c5.4-0.1,10.8-1,15.9-2.8c5.1-1.8,9.8-4.5,14-7.9c8.3-6.9,14.1-16.7,16.2-27.3l15.7,3
		c-2.7,14.2-10.5,27.4-21.7,36.7c-5.6,4.6-12,8.2-18.8,10.7c-6.8,2.5-14.1,3.7-21.3,3.8L62.8,109.4z"/>
	<path id="purple" class="st4" d="M18.3,77l1.3,3.5c0.5,1.1,1.1,2.2,1.6,3.3c0.5,1.1,1.2,2.1,1.8,3.2l0.9,1.6c0.3,0.5,0.7,1,1.1,1.5
		l1.1,1.5l0.5,0.7c0.2,0.2,0.4,0.5,0.6,0.7l2.5,2.7l2.7,2.5c0.2,0.2,0.4,0.4,0.7,0.6l0.7,0.5l1.5,1.1c0.5,0.4,1,0.8,1.5,1.1l1.6,0.9
		c1.1,0.6,2.1,1.3,3.2,1.8c1.1,0.5,2.2,1.1,3.3,1.6l3.5,1.3c4.7,1.5,9.6,2.2,14.5,2.3l0,16c-6.6-0.1-13.1-1.1-19.4-3.1l-4.6-1.7
		c-1.5-0.6-3-1.4-4.5-2.1c-1.5-0.7-2.9-1.6-4.3-2.4l-2.1-1.3c-0.7-0.5-1.3-1-2-1.5l-2-1.5l-1-0.7c-0.3-0.3-0.6-0.5-0.9-0.8l-3.6-3.3
		l-3.3-3.6c-0.3-0.3-0.6-0.6-0.8-0.9l-0.7-1l-1.5-2c-0.5-0.7-1-1.3-1.4-2l-1.3-2.1c-0.8-1.4-1.8-2.8-2.4-4.3c-0.7-1.5-1.5-3-2.1-4.5
		l-1.7-4.6L18.3,77z"/>
	<path id="aqua" class="st5" d="M21.8,40c-3.1,5.6-5,11.8-5.6,18.2C15.6,64.5,16.3,71,18.3,77L3.1,81.9c-2.7-8.2-3.6-16.8-2.8-25.3
		c0.8-8.5,3.3-16.9,7.5-24.4L21.8,40z"/>
	<path id="green" class="st6" d="M109.3,56.7l-0.6-3.6l-0.9-3.6l-0.2-0.9l-0.3-0.9l-0.6-1.7l-0.6-1.7l-0.8-1.7
		c-1-2.3-2.3-4.3-3.6-6.4l-2.2-2.9c-0.3-0.5-0.8-0.9-1.2-1.4L97,30.5c-3.4-3.6-7.3-6.6-11.6-9c-4.3-2.3-9-4-13.8-4.9
		c-9.7-1.8-19.9-0.6-28.7,3.7c-2.3,1-4.3,2.3-6.4,3.6L33.6,26c-0.5,0.3-0.9,0.8-1.4,1.2l-1.4,1.2c-3.6,3.4-6.6,7.3-9,11.6l-14-7.7
		c3.2-5.8,7.3-11,12.1-15.5l1.8-1.7c0.6-0.5,1.2-1.1,1.9-1.6l4-3c2.8-1.8,5.6-3.5,8.6-4.8l2.2-1.1l2.3-0.9L43,2.9l1.2-0.4l1.2-0.3
		L50.1,1c1.6-0.3,3.3-0.5,4.9-0.8c1.6-0.3,3.3-0.3,4.9-0.4l2.5-0.1c0.8-0.1,1.6,0,2.5,0.1c1.6,0.1,3.3,0.1,4.9,0.3l4.9,0.7
		c6.5,1.3,12.7,3.5,18.5,6.6c5.8,3.2,11,7.3,15.5,12.1l1.7,1.8c0.5,0.6,1.1,1.2,1.6,1.9l3,4c1.8,2.8,3.5,5.6,4.8,8.6l1.1,2.2
		l0.9,2.3l0.8,2.3l0.4,1.2l0.3,1.2l1.2,4.8c0.3,1.6,0.5,3.3,0.8,4.9L109.3,56.7z"/>
	<path id="lilac" class="st7" d="M109.7,62.5l-0.2-2.9c0-1-0.1-2-0.3-2.9l15.9-2c0.2,1.3,0.3,2.6,0.3,3.9l0.2,3.9H109.7z"/>
</g>
</svg>
