<?xml version="1.0" encoding="utf-8"?>
<!-- Generator: Adobe Illustrator 22.0.1, SVG Export Plug-In . SVG Version: 6.00 Build 0)  -->
<svg version="1.1" id="Layer_1" xmlns="http://www.w3.org/2000/svg" xmlns:xlink="http://www.w3.org/1999/xlink" x="0px" y="0px"
	 viewBox="0 0 127 127" style="enable-background:new 0 0 127 127;" xml:space="preserve">
<style type="text/css">
	.st0{fill:#E1714A;}
	.st1{fill:#FEFEFE;}
	.st2{enable-background:new    ;}
	.st3{fill:#6F5A95;}
</style>
<g id="chart">
	<path id="orange" class="st0" d="M49.1,19.1l-3,1.1l-0.8,0.3l-0.7,0.4l-1.5,0.7c-2,0.8-3.8,2.1-5.6,3.2c-0.9,0.6-1.7,1.3-2.6,1.9
		c-0.4,0.3-0.9,0.6-1.3,1l-1.2,1.1c-0.8,0.7-1.6,1.4-2.4,2.2l-2.2,2.4l-0.5,0.6l-0.5,0.6l-1,1.3c-0.6,0.9-1.3,1.7-1.8,2.6l-1.7,2.8
		c-0.5,1-0.9,1.9-1.4,2.9c-0.2,0.5-0.5,1-0.7,1.5l-0.5,1.5c-0.4,1-0.8,2-1.1,3c-0.5,2.1-1.2,4.1-1.4,6.3c-0.8,4.2-0.7,8.6-0.3,12.9
		l0.5,3.2l0.1,0.8l0.2,0.8l0.4,1.6c0.4,2.1,1.3,4.1,2,6.1c0.4,1,0.9,1.9,1.4,2.9l0.7,1.5l0.8,1.4c0.6,0.9,1.1,1.9,1.7,2.7l1.9,2.6
		c2.7,3.3,5.7,6.5,9.3,8.9l1.3,1l1.4,0.8c0.9,0.5,1.8,1.1,2.8,1.7c2,0.9,3.8,2,5.9,2.6l1.5,0.6l0.8,0.3l0.8,0.2l3.1,0.8
		c0.5,0.2,1.1,0.2,1.6,0.3l1.6,0.2c1.1,0.2,2.1,0.4,3.2,0.4l3.2,0.2c1.1,0,2.2-0.1,3.2-0.1c2.2,0,4.3-0.5,6.4-0.8
		c1.1-0.2,2.1-0.5,3.1-0.8l1.6-0.4c0.5-0.2,1-0.4,1.5-0.6l3-1.1l2.9-1.4c3.8-2,7.4-4.4,10.5-7.4l1.2-1.1c0.4-0.4,0.7-0.8,1.1-1.2
		l2.2-2.4c1.2-1.8,2.7-3.4,3.7-5.3c4.6-7.3,6.8-15.9,7-24.5h16c-0.1,11.5-3.2,23.1-9.3,32.9c-1.4,2.5-3.3,4.8-5,7.1
		c-0.9,1.1-1.9,2.1-2.9,3.2c-0.5,0.5-1,1.1-1.5,1.6l-1.6,1.5c-4.2,4-9,7.2-14.1,9.9l-3.9,1.9c-1.3,0.5-2.7,1-4.1,1.5
		c-0.7,0.2-1.4,0.5-2,0.7l-2.1,0.5c-1.4,0.3-2.8,0.8-4.2,1c-2.9,0.4-5.7,1-8.6,1c-1.4,0.1-2.9,0.2-4.3,0.1l-4.3-0.2
		c-1.4,0-2.9-0.3-4.3-0.5l-2.1-0.3c-0.7-0.1-1.4-0.2-2.1-0.4l-4.2-1.1l-1-0.3l-1-0.4l-2-0.7c-2.8-0.9-5.3-2.3-7.9-3.5
		c-1.3-0.7-2.5-1.5-3.7-2.2l-1.8-1.1l-1.7-1.3c-4.7-3.3-8.8-7.5-12.4-11.9l-2.6-3.5c-0.8-1.2-1.5-2.5-2.3-3.7l-1.1-1.9l-0.9-1.9
		c-0.6-1.3-1.3-2.6-1.8-3.9c-1-2.7-2.1-5.4-2.7-8.2l-0.5-2.1l-0.3-1.1l-0.2-1.1l-0.7-4.3c-0.6-5.7-0.6-11.5,0.4-17.2
		c0.3-2.9,1.2-5.6,1.9-8.4c0.4-1.4,1-2.7,1.4-4.1l0.8-2c0.3-0.7,0.6-1.3,0.9-2c0.6-1.3,1.2-2.6,1.9-3.9l2.2-3.7
		c0.7-1.3,1.6-2.4,2.5-3.5l1.3-1.7l0.7-0.9l0.7-0.8l2.9-3.2c1-1.1,2.1-2,3.2-3l1.6-1.4c0.6-0.5,1.1-0.9,1.7-1.3
		c1.2-0.9,2.3-1.7,3.5-2.6c2.5-1.5,4.9-3.1,7.5-4.3l2-0.9l1-0.5l1-0.4l4.1-1.5L49.1,19.1z"/>
	<path id="white" class="st1" d="M110.6,63.8c0-7.4-1.8-14.7-5.2-21.3c-3.3-6.6-8.3-12.3-14.3-16.7l-1.1-0.8
		c-0.4-0.3-0.8-0.5-1.2-0.7l-2.4-1.4c-0.2-0.1-0.4-0.2-0.6-0.4l-0.6-0.3l-1.2-0.6c-0.8-0.4-1.6-0.8-2.5-1.2c-3.4-1.3-7-2.5-10.6-2.9
		c-7.3-1.1-14.9-0.7-21.9,1.7L44.1,3.8c0.6-0.2,1.2-0.4,1.8-0.5l1.8-0.5c1.2-0.3,2.4-0.6,3.6-0.9L55,1.4l1.8-0.3C57.4,1,58,1,58.7,1
		c2.5-0.1,4.9-0.3,7.4-0.1l3.7,0.2c1.2,0.1,2.4,0.3,3.7,0.5c4.9,0.7,9.7,2.2,14.3,4c1.1,0.5,2.2,1,3.4,1.6l1.7,0.8l0.8,0.4l0.8,0.5
		l3.2,1.9c0.5,0.3,1.1,0.6,1.6,1l1.5,1.1c8,5.8,14.7,13.5,19.1,22.3c4.5,8.8,6.9,18.7,6.9,28.6H110.6z"/>
</g>
<g id="_x37_0_x25_" class="st2">
	<path class="st3" d="M49.1,50h-8.4v-2.6h11.8v2.2l-7.6,14.6h-3.3L49.1,50z"/>
	<path class="st3" d="M54.5,55.8L54.5,55.8c0-4.8,2.9-8.7,7.3-8.7c4.4,0,7.3,3.8,7.3,8.6v0c0,4.8-2.9,8.7-7.3,8.7
		C57.4,64.5,54.5,60.6,54.5,55.8z M66.1,55.8L66.1,55.8c0-3.4-1.7-6.1-4.3-6.1c-2.6,0-4.2,2.6-4.2,6v0c0,3.3,1.7,6,4.3,6
		C64.5,61.8,66.1,59.1,66.1,55.8z"/>
	<path class="st3" d="M71.7,51.5L71.7,51.5c0-2.4,1.6-4.3,4-4.3c2.4,0,3.9,1.9,3.9,4.2v0c0,2.3-1.6,4.3-4,4.3
		C73.2,55.8,71.7,53.8,71.7,51.5z M85.7,47.4H88L75.7,64.2h-2.4L85.7,47.4z M77.4,51.5L77.4,51.5c0-1.4-0.8-2.5-1.8-2.5
		c-1.1,0-1.8,1.1-1.8,2.4v0c0,1.4,0.8,2.4,1.8,2.4C76.8,53.9,77.4,52.8,77.4,51.5z M81.8,60.1L81.8,60.1c0-2.4,1.6-4.3,4-4.3
		c2.4,0,3.9,1.9,3.9,4.2v0c0,2.3-1.6,4.3-4,4.3C83.4,64.4,81.8,62.4,81.8,60.1z M87.6,60.1L87.6,60.1c0-1.4-0.8-2.5-1.8-2.5
		c-1.1,0-1.8,1.1-1.8,2.4v0c0,1.4,0.8,2.4,1.8,2.4C86.9,62.5,87.6,61.4,87.6,60.1z"/>
</g>
<g id="coverage" class="st2">
	<path class="st3" d="M29.9,77.4L29.9,77.4c0-2.4,1.8-4.4,4.2-4.4c1.6,0,2.5,0.7,3.3,1.5l-0.8,0.9c-0.7-0.7-1.4-1.2-2.5-1.2
		c-1.7,0-3,1.4-3,3.2v0c0,1.8,1.3,3.2,3,3.2c1.1,0,1.9-0.5,2.5-1.2l0.8,0.7c-0.8,0.9-1.8,1.6-3.4,1.6C31.7,81.7,29.9,79.7,29.9,77.4
		z"/>
	<path class="st3" d="M38.8,77.4L38.8,77.4c0-2.4,1.8-4.4,4.3-4.4c2.5,0,4.3,2,4.3,4.3v0c0,2.3-1.8,4.3-4.3,4.3
		C40.6,81.7,38.8,79.7,38.8,77.4z M46.1,77.4L46.1,77.4c0-1.8-1.3-3.3-3.1-3.3c-1.8,0-3,1.5-3,3.2v0c0,1.8,1.3,3.2,3.1,3.2
		C44.9,80.6,46.1,79.2,46.1,77.4z"/>
	<path class="st3" d="M48.3,73.2h1.4l2.8,6.9l2.8-6.9h1.3L53,81.6h-1.1L48.3,73.2z"/>
	<path class="st3" d="M61.7,80.6c1.1,0,1.9-0.5,2.6-1.2l0.8,0.7c-0.8,0.9-1.8,1.6-3.4,1.6c-2.3,0-4.1-1.7-4.1-4.3
		c0-2.4,1.7-4.3,4-4.3c2.4,0,3.9,2,3.9,4.4c0,0.1,0,0.2,0,0.4h-6.6C59,79.6,60.2,80.6,61.7,80.6z M64.1,76.9c-0.1-1.5-1-2.8-2.6-2.8
		c-1.4,0-2.5,1.2-2.7,2.8H64.1z"/>
	<path class="st3" d="M67.5,73.2h1.2v2.2c0.6-1.4,1.8-2.4,3.4-2.3v1.3H72c-1.8,0-3.3,1.3-3.3,3.8v3.3h-1.2V73.2z"/>
	<path class="st3" d="M73,79.1L73,79.1c0-1.8,1.4-2.7,3.5-2.7c1.1,0,1.8,0.1,2.5,0.4v-0.3c0-1.5-0.9-2.2-2.4-2.2
		c-1,0-1.7,0.2-2.5,0.6l-0.4-1c0.9-0.4,1.8-0.7,3-0.7c1.2,0,2.1,0.3,2.7,0.9c0.6,0.6,0.9,1.4,0.9,2.4v5.1H79v-1.2
		c-0.6,0.7-1.5,1.4-3,1.4C74.5,81.7,73,80.8,73,79.1z M79.1,78.5v-0.8c-0.6-0.2-1.4-0.4-2.4-0.4c-1.5,0-2.4,0.7-2.4,1.7v0
		c0,1,1,1.6,2.1,1.6C77.8,80.7,79.1,79.8,79.1,78.5z"/>
	<path class="st3" d="M82.8,82.9l0.6-1c0.9,0.7,2,1.1,3.2,1.1c1.8,0,3-1,3-2.9v-1c-0.7,1-1.7,1.7-3.2,1.7c-2,0-3.9-1.5-3.9-3.9v0
		c0-2.4,1.9-3.9,3.9-3.9c1.6,0,2.6,0.8,3.2,1.7v-1.5h1.2v6.8c0,1.3-0.4,2.3-1.1,2.9c-0.7,0.7-1.8,1.1-3.2,1.1
		C85.1,84.1,83.9,83.7,82.8,82.9z M89.5,77L89.5,77c0-1.7-1.5-2.8-3-2.8s-2.9,1.1-2.9,2.8v0c0,1.7,1.3,2.8,2.9,2.8
		C88.1,79.8,89.5,78.6,89.5,77z"/>
	<path class="st3" d="M97.1,80.6c1.1,0,1.9-0.5,2.6-1.2l0.8,0.7c-0.8,0.9-1.8,1.6-3.4,1.6c-2.3,0-4.1-1.7-4.1-4.3
		c0-2.4,1.7-4.3,4-4.3c2.4,0,3.9,2,3.9,4.4c0,0.1,0,0.2,0,0.4h-6.6C94.4,79.6,95.7,80.6,97.1,80.6z M99.5,76.9
		c-0.1-1.5-1-2.8-2.6-2.8c-1.4,0-2.5,1.2-2.7,2.8H99.5z"/>
</g>
</svg>
