<?xml version="1.0" encoding="UTF-8"?>
<svg width="339px" height="436px" viewBox="0 0 339 436" version="1.1" xmlns="http://www.w3.org/2000/svg" xmlns:xlink="http://www.w3.org/1999/xlink">
    <!-- Generator: Sketch 50.2 (55047) - http://www.bohemiancoding.com/sketch -->
    <title>Group</title>
    <desc>Created with Sketch.</desc>
    <defs></defs>
    <g id="Page-1" stroke="none" stroke-width="1" fill="none" fill-rule="evenodd">
        <g id="Desktop-HD" transform="translate(-960.000000, -3359.000000)">
            <g id="Initiative-Highlights" transform="translate(-8.000000, 2727.000000)">
                <g id="CO-MDI" transform="translate(76.000000, 589.000000)">
                    <g id="Graphs" transform="translate(834.000000, 0.000000)">
                        <g id="Group" transform="translate(58.000000, 35.000000)">
                            <g id="52,380" transform="translate(11.000000, 312.000000)">
                                <g id="Chart-Legend" transform="translate(164.000000, 29.000000)" font-family=".AppleSystemUIFont" font-size="14" font-weight="normal">
                                    <text id="&lt;-1-1-5-6-12-13-18-&gt;">
                                        <tspan x="46.6819187" y="14.364781" fill="#8BDBE6">&lt; 1</tspan>
                                        <tspan x="44.4465672" y="31.364781" fill="#EC4C09">1-5</tspan>
                                        <tspan x="65.788364" y="31.364781" fill="#262626"></tspan>
                                        <tspan x="35.8811375" y="48.364781" fill="#563D82">6-12</tspan>
                                        <tspan x="65.788364" y="48.364781" fill="#262626"></tspan>
                                        <tspan x="29.1614109" y="65.364781" fill="#00ADC6">13-18</tspan>
                                        <tspan x="37.9114109" y="82.364781" fill="#42AF48">&gt; 19</tspan>
                                        <tspan x="65.788364" y="82.364781" fill="#00ADC6"></tspan>
                                        <tspan x="7.29324685" y="99.364781" fill="#9D8AB6">Pregnant</tspan>
                                    </text>
                                    <text id="1,958-11,-829-10,505">
                                        <tspan x="100" y="14.364781" fill="#8BDBE6">1,958</tspan>
                                        <tspan x="100" y="31.364781" fill="#EC4C09">11, 829</tspan>
                                        <tspan x="146.087891" y="31.364781" fill="#262626"></tspan>
                                        <tspan x="100" y="48.364781" fill="#563D82">10,505</tspan>
                                        <tspan x="143.75" y="48.364781" fill="#262626"></tspan>
                                        <tspan x="100" y="65.364781" fill="#00ADC6">6,760</tspan>
                                        <tspan x="100" y="82.364781" fill="#42AF48">21,287</tspan>
                                        <tspan x="142.998047" y="82.364781" fill="#00ADC6"></tspan>
                                        <tspan x="100" y="99.364781" fill="#9D8AB6">1,585</tspan>
                                    </text>
                                    <text id="::-::-::-::-::-::" fill="#666666">
                                        <tspan x="79.5" y="14.364781">::</tspan>
                                        <tspan x="79.5" y="31.364781">::</tspan>
                                        <tspan x="79.5" y="48.364781">::</tspan>
                                        <tspan x="79.5" y="65.364781">::</tspan>
                                        <tspan x="79.5" y="82.364781">::</tspan>
                                        <tspan x="79.5" y="99.364781">::</tspan>
                                    </text>
                                </g>
                                <g id="Chart" transform="translate(0.000000, 0.664062)">
                                    <g id="Caption" transform="translate(21.388672, 43.179688)" fill="#6F5A95" font-weight="normal">
                                        <text id="patients" font-family=".AppleSystemUIFont" font-size="16">
                                            <tspan x="10.3886719" y="41.359781">patients</tspan>
                                        </text>
                                        <text id="52,380" font-family=".SFNSDisplay, .SF NS Display" font-size="24">
                                            <tspan x="0.888671875" y="23.628344">52,380</tspan>
                                        </text>
                                    </g>
                                    <g id="Pie-Chart" transform="translate(0.888672, 0.539468)">
                                        <path d="M108.8888,71.664 C109.0808,70.205 109.3708,68.76 109.5188,67.295 L109.7438,62.875 L125.7438,62.875 L125.4488,68.783 C125.2548,70.744 124.8948,72.693 124.6088,74.646 L108.8888,71.664 Z" id="Lt-Blue" fill="#9CD9E4"></path>
                                        <path d="M62.8488,109.7548 C68.2678,109.6958 73.6418,108.7628 78.7128,106.9418 C83.7848,105.1268 88.5448,102.4318 92.7298,99.0078 C101.0578,92.0828 106.8418,82.2678 108.8858,71.6798 L124.6048,74.6658 C121.8748,88.9158 114.0828,102.0868 102.9318,111.3338 C97.3348,115.9268 90.9488,119.5548 84.1278,121.9968 C77.3108,124.4478 70.0738,125.6988 62.8448,125.7548 L62.8488,109.7548 Z" id="Orange" fill="#DC5829"></path>
                                        <path d="M18.2853,77.3447 L19.5473,80.7977 C20.0173,81.9277 20.6043,83.0087 21.1163,84.1217 C21.5893,85.2577 22.3053,86.2647 22.9263,87.3217 L23.8743,88.8987 C24.2073,89.4127 24.6063,89.8837 24.9663,90.3807 L26.0673,91.8567 L26.6143,92.5977 C26.8023,92.8397 27.0253,93.0537 27.2283,93.2827 L29.7023,96.0137 L32.4313,98.4887 C32.6613,98.6927 32.8783,98.9117 33.1153,99.1057 L33.8563,99.6527 L35.3333,100.7527 C35.8283,101.1147 36.3023,101.5087 36.8123,101.8477 L38.3903,102.7957 C39.4483,103.4137 40.4523,104.1357 41.5883,104.6077 C42.7013,105.1207 43.7833,105.7027 44.9113,106.1797 L48.3643,107.4417 C53.0433,108.9067 57.9213,109.6657 62.8473,109.7547 L62.8423,125.7547 C56.2683,125.6657 49.7033,124.6477 43.4183,122.6577 L38.7773,120.9577 C37.2623,120.3207 35.7963,119.5607 34.3083,118.8557 C32.7973,118.1927 31.4303,117.2667 30.0143,116.4287 L27.9073,115.1397 C27.2233,114.6857 26.5793,114.1707 25.9143,113.6877 L23.9383,112.2077 L22.9543,111.4647 C22.6363,111.2047 22.3403,110.9187 22.0313,110.6477 L18.3853,107.3237 L15.0633,103.6757 C14.7923,103.3667 14.5033,103.0737 14.2483,102.7507 L13.5053,101.7657 L12.0253,99.7907 C11.5433,99.1247 11.0243,98.4847 10.5763,97.7947 L9.2883,95.6897 C8.4473,94.2747 7.5283,92.9037 6.8633,91.3927 C6.1613,89.9037 5.3963,88.4407 4.7653,86.9217 L3.0653,82.2817 L18.2853,77.3447 Z" id="Purple" fill="#563D82"></path>
                                        <path d="M21.7882,40.2871 C18.6752,45.8601 16.8012,52.0861 16.2082,58.4391 C15.6092,64.8081 16.3032,71.2951 18.2852,77.3451 L3.0652,82.2811 C0.4022,74.1301 -0.5218,65.4511 0.2782,56.9461 C1.0692,48.4321 3.6062,40.0431 7.7752,32.5621 L21.7882,40.2871 Z" id="Aqua" fill="#00ADC6"></path>
                                        <path d="M109.3293,56.9892 L108.7743,53.3512 L107.8533,49.7932 L107.6273,48.9022 L107.3063,48.0412 L106.6713,46.3152 L106.0433,44.5882 L105.2373,42.9352 C104.2673,40.6772 102.9163,38.6192 101.6363,36.5282 L99.4283,33.5802 C99.0863,33.0672 98.6463,32.6352 98.2343,32.1792 L96.9953,30.8162 C93.6123,27.2642 89.7323,24.1682 85.4343,21.7892 C81.1083,19.4692 76.4553,17.8132 71.6483,16.8482 C61.9983,15.0802 51.7573,16.2342 42.9253,20.4992 C40.6663,21.4692 38.6093,22.8202 36.5173,24.1002 L33.5693,26.3082 C33.0583,26.6512 32.6243,27.0902 32.1693,27.5022 L30.8073,28.7412 C27.2553,32.1242 24.1573,36.0042 21.7783,40.3022 L7.7643,32.5822 C10.9523,26.8122 15.0853,21.6032 19.8503,17.0812 L21.6773,15.4222 C22.2893,14.8742 22.8823,14.3012 23.5583,13.8292 L27.5123,10.8762 C30.2963,9.1252 33.0813,7.3562 36.1023,6.0272 L38.3313,4.9632 L40.6463,4.1002 L42.9683,3.2542 L44.1303,2.8352 L45.3243,2.5172 L50.1113,1.2922 C51.7333,1.0172 53.3633,0.7782 54.9913,0.5322 C56.6133,0.2212 58.2633,0.2452 59.9023,0.1332 L62.3643,0.0152 C63.1853,-0.0368 64.0063,0.0632 64.8273,0.0842 C66.4673,0.1802 68.1133,0.2082 69.7463,0.3852 L74.6293,1.1282 C81.0903,2.4062 87.3563,4.6432 93.1533,7.7742 C98.9233,10.9632 104.1323,15.0942 108.6553,19.8602 L110.3133,21.6862 C110.8623,22.3002 111.4343,22.8912 111.9073,23.5672 L114.8603,27.5212 C116.6113,30.3052 118.3803,33.0912 119.7103,36.1122 L120.7733,38.3412 L121.6373,40.6562 L122.4833,42.9772 L122.9023,44.1392 L123.2193,45.3342 L124.4443,50.1212 C124.7193,51.7432 124.9593,53.3732 125.2053,55.0012 L109.3293,56.9892 Z" id="Green" fill="#42AF48"></path>
                                        <path d="M109.7443,62.875 L109.5863,59.928 C109.5373,58.946 109.5313,57.959 109.3303,56.995 L125.2063,55.008 C125.4493,56.307 125.4853,57.622 125.5553,58.935 L125.7443,62.875 L109.7443,62.875 Z" id="Lilac" fill="#9A8BB3"></path>
                                    </g>
                                </g>
                                <g id="Header" transform="translate(114.000000, 0.000000)">
                                    <path d="M0.5,25.5 L199.5,25.5" id="Line-4" stroke="#BFBFBF" stroke-linecap="square" fill-rule="nonzero"></path>
                                    <text id="Age-Breakout" font-family=".AppleSystemUIFont" font-size="14" font-weight="normal" line-spacing="22" fill="#262626">
                                        <tspan x="88" y="14.6640625">Age Breakout</tspan>
                                    </text>
                                </g>
                            </g>
                            <g id="70%" transform="translate(0.000000, 152.000000)">
                                <g id="70%-Graph" transform="translate(212.000000, 0.503547)">
                                    <g id="Pie-Chart">
                                        <path d="M49.0762879,18.5642125 L46.0482879,19.6732125 L45.2902879,19.9472125 L44.5652879,20.3022125 L43.1142879,21.0052125 C41.1242879,21.8412125 39.3572879,23.0932125 37.4942879,24.1702125 C36.6122879,24.7862125 35.7702879,25.4602125 34.9002879,26.0942125 C34.4722879,26.4202125 34.0262879,26.7252125 33.6102879,27.0662125 L32.4192879,28.1592125 C31.6392879,28.9012125 30.7862879,29.5702125 30.0552879,30.3602125 L27.8822879,32.7522125 L27.3352879,33.3472125 L26.8542879,33.9972125 L25.8902879,35.2932125 C25.2522879,36.1602125 24.5542879,36.9872125 24.0432879,37.9382125 L22.3622879,40.6952125 C21.8672879,41.6492125 21.4302879,42.6332125 20.9522879,43.5962125 C20.7222879,44.0822125 20.4712879,44.5592125 20.2542879,45.0502125 L19.7072879,46.5682125 C19.3572879,47.5832125 18.9292879,48.5742125 18.6262879,49.6042125 C18.1332879,51.6962125 17.4512879,53.7462125 17.2372879,55.8972125 C16.4582879,60.1362125 16.5552879,64.5032125 16.9542879,68.7802125 L17.4412879,71.9702125 L17.5622879,72.7682125 L17.7682879,73.5482125 L18.1742879,75.1092125 C18.6032879,77.2242125 19.4752879,79.2012125 20.1772879,81.2322125 C20.5832879,82.2262125 21.1032879,83.1712125 21.5532879,84.1482125 L22.2452879,85.6052125 L23.0862879,86.9832125 C23.6592879,87.8942125 24.1792879,88.8392125 24.7792879,89.7322125 L26.7172879,92.3172125 C29.4382879,95.6382125 32.4542879,98.7872125 36.0092879,101.233213 L37.2982879,102.208213 L38.6802879,103.042213 C39.6082879,103.585213 40.5052879,104.187213 41.4502879,104.700213 C43.4042879,105.596213 45.2862879,106.660213 47.3472879,107.296213 L48.8602879,107.855213 L49.6162879,108.137213 L50.3982879,108.333213 L53.5212879,109.137213 C54.0352879,109.299213 54.5722879,109.361213 55.1042879,109.438213 L56.7002879,109.678213 C57.7642879,109.833213 58.8202879,110.061213 59.9042879,110.056213 L63.1352879,110.222213 C64.2122879,110.266213 65.2892879,110.128213 66.3662879,110.100213 C68.5342879,110.109213 70.6392879,109.608213 72.7742879,109.338213 C73.8282879,109.130213 74.8572879,108.808213 75.9022879,108.558213 L77.4662879,108.166213 C77.9772879,108.001213 78.4752879,107.795213 78.9812879,107.615213 L82.0072879,106.502213 L84.9112879,105.095213 C88.7092879,103.099213 92.3582879,100.722213 95.4582879,97.7192125 L96.6592879,96.6372125 C97.0542879,96.2722125 97.3882879,95.8442125 97.7572879,95.4532125 L99.9292879,93.0602125 C101.174288,91.3032125 102.603288,89.6732125 103.628288,87.7712125 C108.249288,80.4732125 110.453288,71.8642125 110.597288,63.2502125 L126.597288,63.2502125 C126.465288,74.7482125 123.427288,86.3572125 117.263288,96.1432125 C115.854288,98.6712125 114.000288,100.896213 112.291288,103.217213 C111.346288,104.304213 110.365288,105.363213 109.397288,106.431213 C108.903288,106.955213 108.442288,107.512213 107.917288,108.006213 L106.322288,109.466213 C102.153288,113.459213 97.2932879,116.681213 92.1862879,119.345213 L88.2822879,121.219213 C86.9412879,121.752213 85.5772879,122.232213 84.2222879,122.732213 C83.5422879,122.973213 82.8682879,123.236213 82.1812879,123.455213 L80.0852879,124.002213 C78.6842879,124.348213 77.2942879,124.755213 75.8802879,125.034213 C73.0262879,125.446213 70.1842879,126.040213 67.2972879,126.073213 C65.8582879,126.123213 64.4192879,126.269213 62.9802879,126.222213 L58.6632879,126.007213 C57.2202879,125.985213 55.7982879,125.715213 54.3702879,125.508213 L52.2302879,125.178213 C51.5172879,125.068213 50.8022879,124.970213 50.1072879,124.768213 L45.9102879,123.690213 L44.8632879,123.415213 L43.8442879,123.048213 L41.8082879,122.307213 C39.0532879,121.414213 36.4992879,120.048213 33.8952879,118.804213 C32.6272879,118.119213 31.4132879,117.333213 30.1752879,116.593213 L28.3322879,115.460213 L26.5952879,114.170213 C21.8572879,110.863213 17.7842879,106.697213 14.1582879,102.230213 L11.5712879,98.7632125 C10.7642879,97.5692125 10.0482879,96.3132125 9.29028786,95.0852125 L8.17828786,93.2292125 L7.23128786,91.2822125 C6.61828786,89.9762125 5.94428786,88.6952125 5.39728786,87.3612125 C4.41228786,84.6462125 3.30528786,81.9682125 2.68928786,79.1382125 L2.15428786,77.0402125 L1.88928786,75.9902125 L1.71628786,74.9212125 L1.06328786,70.6412125 C0.495287862,64.9162125 0.425287862,59.1062125 1.43128786,53.4122125 C1.75928786,50.5372125 2.60628786,47.7632125 3.31328786,44.9642125 C3.72328786,43.5822125 4.27128786,42.2412125 4.75228786,40.8802125 L5.50528786,38.8482125 C5.79328786,38.1882125 6.11828786,37.5432125 6.42628786,36.8892125 C7.05728786,35.5922125 7.66128786,34.2782125 8.33228786,33.0022125 L10.5762879,29.3002125 C11.2852879,28.0402125 12.1902879,26.9132125 13.0462879,25.7522125 L14.3442879,24.0222125 L14.9972879,23.1602125 L15.7212879,22.3562125 L18.6312879,19.1572125 C19.6182879,18.1072125 20.7352879,17.1872125 21.7872879,16.2022125 L23.3922879,14.7532125 C23.9492879,14.2962125 24.5372879,13.8772125 25.1102879,13.4392125 C26.2692879,12.5822125 27.4082879,11.6942125 28.5932879,10.8752125 C31.0662879,9.3892125 33.4682879,7.7732125 36.1212879,6.6142125 L38.0742879,5.6782125 L39.0522879,5.2132125 L40.0662879,4.8342125 L44.1352879,3.3462125 L49.0762879,18.5642125 Z" id="Orange" fill="#E1714A"></path>
                                        <path d="M110.597288,63.2497125 C110.551288,55.8417125 108.768288,48.5167125 105.442288,41.9357125 C102.183288,35.3057125 97.1142879,29.6337125 91.1842879,25.2667125 L90.0792879,24.4317125 C89.7162879,24.1457125 89.2962879,23.9447125 88.9082879,23.6957125 L86.5442879,22.2567125 C86.3472879,22.1387125 86.1542879,22.0107125 85.9532879,21.8977125 L85.3272879,21.6027125 L84.0802879,21.0057125 C83.2432879,20.6217125 82.4352879,20.1677125 81.5792879,19.8287125 C78.1372879,18.5297125 74.6162879,17.3627125 70.9502879,16.8907125 C63.6682879,15.7807125 56.0682879,16.2367125 49.0762879,18.5637125 L44.1352879,3.3457125 C44.7112879,3.1167125 45.3102879,2.9597125 45.9102879,2.8087125 L47.7082879,2.3427125 C48.9092879,2.0497125 50.1002879,1.6937125 51.3142879,1.4647125 L54.9822879,0.8987125 L56.8172879,0.6257125 C57.4282879,0.5287125 58.0482879,0.5387125 58.6632879,0.4917125 C61.1302879,0.3827125 63.5972879,0.1467125 66.0642879,0.3647125 L69.7632879,0.5597125 C70.9912879,0.6907125 72.2112879,0.9077125 73.4352879,1.0837125 C78.3442879,1.7517125 83.0982879,3.2657125 87.7082879,5.0497125 C88.8562879,5.5087125 89.9512879,6.0927125 91.0722879,6.6147125 L92.7432879,7.4237125 L93.5762879,7.8317125 L94.3742879,8.3037125 L97.5462879,10.2287125 C98.0672879,10.5617125 98.6182879,10.8507125 99.1102879,11.2237125 L100.599288,12.3287125 C108.555288,18.1707125 115.286288,25.7807125 119.693288,34.6597125 C124.171288,43.4827125 126.559288,53.3747125 126.597288,63.2497125 L110.597288,63.2497125 Z" id="White" fill="#FEFEFE"></path>
                                    </g>
                                    <g id="Caption" transform="translate(29.000000, 39.000000)" fill="#6F5A95" font-weight="normal">
                                        <text id="70%" font-family=".SFNSDisplay, .SF NS Display" font-size="24">
                                            <tspan x="10" y="23.6713125">70%</tspan>
                                        </text>
                                        <text id="coverage" font-family=".AppleSystemUIFont" font-size="16">
                                            <tspan x="0" y="42">coverage</tspan>
                                        </text>
                                    </g>
                                </g>
                                <g id="Header" transform="translate(0.000000, 10.000000)">
                                    <path d="M1,30.8525764 L216.5,30.8525764" id="Line-4" stroke="#BFBFBF" stroke-linecap="square" fill-rule="nonzero"></path>
                                    <text id="16-Wave-I-Grantees-S" font-family=".AppleSystemUIFont" font-size="14" font-weight="normal" line-spacing="20">
                                        <tspan x="0" y="14.4478461" fill="#262626">16 Wave I Grantees</tspan>
                                        <tspan x="0" y="34.4478461" font-size="7" line-spacing="10" fill="#262626"> </tspan>
                                        <tspan x="0" y="44.4478461" fill="#262626">Served more than </tspan>
                                        <tspan x="0" y="64.4478461" fill="#262626">52,380 patients, </tspan>
                                        <tspan x="109.928711" y="64.4478461" fill="#6F5A95">70% </tspan>
                                        <tspan x="0" y="84.4478461" fill="#6F5A95">have Medicaid dental </tspan>
                                        <tspan x="0" y="104.447846" fill="#6F5A95">coverage</tspan>
                                        <tspan x="59.5273438" y="104.447846" fill="#262626">.</tspan>
                                    </text>
                                </g>
                            </g>
                            <g id="26-Clinics" transform="translate(11.000000, 0.000000)">
                                <g id="Chart" transform="translate(0.888672, 8.701991)">
                                    <g id="Caption" transform="translate(37.000000, 35.000000)" fill="#6F5A95" font-weight="normal">
                                        <text id="clinics" font-family=".AppleSystemUIFont" font-size="16">
                                            <tspan x="0.5" y="42.5">clinics</tspan>
                                        </text>
                                        <text id="26" font-family=".SFNSDisplay, .SF NS Display" font-size="24">
                                            <tspan x="9.5" y="23.896">26</tspan>
                                        </text>
                                    </g>
                                    <g id="pie-chart">
                                        <path d="M21.3459,41.1518 C18.0769,47.4478 16.2459,54.4518 16.0279,61.5588 C15.7929,68.6668 17.1279,75.8128 20.1169,82.2498 C23.0519,88.7008 27.4459,94.4898 32.8689,99.0788 C38.3309,103.6278 44.8369,106.8578 51.7059,108.5608 C58.5689,110.2458 65.8939,110.4378 72.8179,108.9208 C79.7429,107.4048 86.2999,104.3058 91.9009,99.9438 C97.5469,95.6238 102.0649,89.8918 105.1609,83.5258 C108.2669,77.1548 109.9189,70.1028 109.9479,62.9788 L125.9479,62.9788 C125.9719,82.0058 116.8869,100.9248 101.7769,112.5318 C94.2869,118.3808 85.4689,122.5458 76.1609,124.5678 C66.8469,126.5898 57.1349,126.3618 47.8889,124.0988 C38.6519,121.8168 29.9229,117.4528 22.6189,111.3638 C15.3509,105.2368 9.4629,97.4928 5.5299,88.8238 C-2.4811,71.4618 -1.6671,50.5838 7.1849,33.7048 L21.3459,41.1518 Z" id="Orange" fill="#E07149"></path>
                                        <path d="M109.948,62.9789 C109.875,57.7549 109.013,52.5789 107.337,47.6609 L106.668,45.8309 C106.448,45.2189 106.248,44.5989 105.934,44.0269 L104.239,40.5149 L102.209,37.1809 C101.904,36.6029 101.457,36.1199 101.081,35.5899 L99.912,34.0259 C93.466,25.8759 84.337,19.7399 74.189,17.3959 C73.559,17.2399 72.935,17.0539 72.301,16.9159 L70.371,16.6299 C69.083,16.4559 67.809,16.1579 66.498,16.1659 C65.196,16.1249 63.895,15.9949 62.593,15.9999 L58.687,16.1979 C53.505,16.7119 48.427,18.0359 43.677,20.1479 C42.519,20.7369 41.313,21.2349 40.182,21.8749 L36.845,23.8999 C35.784,24.6519 34.761,25.4589 33.709,26.2259 C33.168,26.5909 32.69,27.0349 32.216,27.4809 L30.771,28.7949 C26.991,32.3749 23.796,36.5639 21.346,41.1519 L7.185,33.7049 C10.462,27.5429 14.739,21.9339 19.802,17.1469 L21.737,15.3889 C22.379,14.7989 23.025,14.2149 23.739,13.7119 C25.136,12.6709 26.517,11.6019 27.944,10.6039 L32.415,7.8859 C33.933,7.0309 35.539,6.3329 37.103,5.5619 C43.476,2.7149 50.315,0.9329 57.256,0.2619 L62.473,-0.0001 C64.213,-0.0081 65.953,0.1359 67.692,0.2109 C69.436,0.2349 71.154,0.5839 72.88,0.8279 L75.466,1.2319 C76.318,1.4139 77.16,1.6489 78.007,1.8579 C91.64,5.0519 103.888,13.2259 112.501,24.1499 L114.068,26.2439 C114.573,26.9539 115.144,27.6179 115.572,28.3799 L118.285,32.8539 C119.068,34.4129 119.816,35.9909 120.571,37.5639 C120.974,38.3389 121.26,39.1649 121.562,39.9839 L122.463,42.4429 C124.722,49.0479 125.876,56.0139 125.948,62.9789 L109.948,62.9789 Z" id="Blue" fill="#27B9CE"></path>
                                    </g>
                                </g>
                                <g id="Header" transform="translate(114.000000, 0.000000)">
                                    <path d="M0.5,33.7479913 L199.5,33.7479913" id="Line-4" stroke="#BFBFBF" stroke-linecap="square" fill-rule="nonzero"></path>
                                    <text id="26-CO-MDI-Project-Cl" font-family=".AppleSystemUIFont" font-size="14" font-weight="normal" line-spacing="22">
                                        <tspan x="27.9951686" y="14.7019913" fill="#262626">26 CO MDI Project Clinics</tspan>
                                        <tspan x="194.942434" y="36.7019913" line-spacing="10" fill="#262626"></tspan>
                                        <tspan x="73.4336451" y="46.7019913" fill="#E1714A">11 rural</tspan>
                                        <tspan x="119.33013" y="46.7019913" fill="#262626">  |  </tspan>
                                        <tspan x="139.003958" y="46.7019913" fill="#26BACF">15 urban</tspan>
                                    </text>
                                </g>
                            </g>
                        </g>
                    </g>
                </g>
            </g>
        </g>
    </g>
</svg>