<?xml version="1.0" encoding="utf-8"?>
<!-- Generator: Adobe Illustrator 22.0.1, SVG Export Plug-In . SVG Version: 6.00 Build 0)  -->
<svg version="1.1" id="Layer_1" xmlns="http://www.w3.org/2000/svg" xmlns:xlink="http://www.w3.org/1999/xlink" x="0px" y="0px"
	 viewBox="0 0 213 106" style="enable-background:new 0 0 213 106;" xml:space="preserve">
<style type="text/css">
	.st0{fill:#5CB24B;}
	.st1{fill:#FFFFFE;}
</style>
<polygon id="top-green" class="st0" points="0,52.9 212.6,52.9 212.6,0.6 0,0.6 "/>
<path id="delta" class="st1" d="M191.3,20.5c0.3,0,0.7,0,0.7-0.3c0-0.2-0.3-0.3-0.5-0.3h-0.6v0.5H191.3z M192.2,21.8h-0.4l-0.6-1
	h-0.4v1h-0.3v-2.1h0.9c0.4,0,0.7,0.1,0.7,0.6c0,0.4-0.3,0.6-0.7,0.6L192.2,21.8z M193,20.7c0-0.9-0.8-1.6-1.6-1.6
	c-0.9,0-1.6,0.7-1.6,1.6c0,0.9,0.8,1.6,1.6,1.6C192.2,22.3,193,21.6,193,20.7z M189.4,20.7c0-1.1,0.9-1.9,1.9-1.9
	c1.1,0,1.9,0.9,1.9,1.9c0,1.1-0.8,1.9-1.9,1.9C190.3,22.6,189.4,21.8,189.4,20.7z M155.7,24.2v-4.6h10.8v4.6h-2.8v9.6h-5.3v-9.6
	H155.7z M86.2,24.2v-4.6H97v4.6h-2.8v9.6h-5.3v-9.6H86.2z M180.2,33.9V19.7h5.1v9.6h4.3v4.6H180.2z M78.3,33.9V19.7h5.1v9.6h4.3v4.6
	H78.3z M139,33.9h-9.6V19.7h9.6v3.8h-4.5v1.4h4v3.7h-3.9V30h4.5V33.9z M120,29.6c0-1.8,0-3.6,0-5.5C124.5,23.7,124.5,30,120,29.6z
	 M126.6,21.8c-1.7-1.7-4-2.1-6.9-2.2c0,0-4,0.1-4.9,0.1c0,4.7,0,9.5,0,14.2c3.2,0,7.6,0.3,9.8-0.6C128.6,31.5,130.1,25.2,126.6,21.8
	z M77.1,33.9h-9.6V19.7h9.6v3.8h-4.5v1.4h4v3.7h-3.9V30h4.5V33.9z M174.4,19.7l5.1,14.2h-4.9l-2.6-8.5l-2.6,8.5h-5l5.1-14.2H174.4z
	 M104.8,19.7l5.1,14.2H105l-2.6-8.5l-2.6,8.5h-5l5.1-14.2H104.8z M34.4,20l-5.2,9.2h10.7l-5.3-9.4L34.4,20z M37.3,14.8l8.4,14.3
	l-3.1,4.7H25.6l-2.7-4.6l6.1-9.7h5.2l0.3,0l-2.6-4.8H37.3z M140.2,19.8c1.7,0,3.4,0,5.1,0c2.5,4.8,4.3,7.2,4.3,7.2
	c0-2.4,0-4.8,0-7.2c1.7,0,3.4,0,5,0c0,3.5,0,8.6,0,14.1c-1.8,0-3.5,0-5.3,0c-0.9-1.5-2.5-4.4-4.1-6.7c0,1.2,0,5,0,6.7
	c-1.7,0-3.4,0-5.1,0C140.2,32,140.3,23.4,140.2,19.8z M58.1,29.6c0-1.8,0-3.6,0-5.5C62.7,23.7,62.6,30,58.1,29.6z M64.7,21.8
	c-1.7-1.7-4-2.1-6.9-2.2c0,0-4,0.1-4.9,0.1c0,4.7,0,9.5,0,14.2c3.2,0,7.6,0.3,9.8-0.6C66.8,31.5,68.2,25.2,64.7,21.8z"/>
<polygon id="bottom-green" class="st0" points="0,105.2 212.6,105.2 212.6,79.1 0,79.1 "/>
<path id="foundation" class="st1" d="M184.7,89.7V96h1.2l0-2.7c0-0.5,0-1.3-0.1-1.8c0.1,0.4,0.5,1.3,0.9,2.1l1.1,2.4h1.3v-6.3h-1.2
	l0,2.6c0,0.4,0.1,1.2,0.1,1.7c-0.1-0.5-0.4-1.1-0.7-1.8l-1.2-2.5H184.7z M181,90.6c-0.4,0-0.8,0.2-1,0.6c-0.2,0.4-0.3,1-0.3,1.7
	c0,1.1,0.2,1.8,0.6,2c0.2,0.1,0.5,0.2,0.8,0.2c0.9,0,1.3-0.7,1.3-2.3c0-0.6-0.1-1.1-0.2-1.5C182,91.1,181.7,90.6,181,90.6z
	 M181,89.6c1.7,0,2.7,1.2,2.7,3.2c0,1.4-0.5,2.5-1.4,3c-0.4,0.2-0.7,0.3-1.3,0.3c-1,0-1.6-0.3-2.1-0.9c-0.5-0.6-0.7-1.4-0.7-2.4
	c0-1.4,0.5-2.5,1.4-3C180.1,89.7,180.5,89.6,181,89.6z M176.1,96h1.3v-6.3h-1.3V96z M170.9,89.7v1.1h1.5V96h1.3v-5.3h1.5l0.2-1.1
	H170.9z M168.3,93.5h1.2c0,0-0.2-0.7-0.3-1.3c-0.1-0.3-0.3-1.1-0.3-1.1s-0.2,0.7-0.3,1.2C168.5,92.7,168.4,93,168.3,93.5z
	 M168.3,89.7h1.4l2,6.3h-1.4l-0.4-1.5H168l-0.4,1.5h-1.3L168.3,89.7z M162.7,90.7V95h0.7c0.8,0,1.2-0.6,1.2-2c0-0.7-0.1-1.4-0.3-1.8
	c-0.2-0.3-0.5-0.5-1-0.5H162.7z M161.4,89.7h1.3c0.4,0,0.9,0,1.1,0c0.5,0,1,0.3,1.4,0.6c0.6,0.6,0.9,1.4,0.9,2.5
	c0,0.9-0.2,1.6-0.6,2.2c-0.4,0.5-0.9,0.8-1.5,0.9c-0.2,0-0.5,0-0.9,0h-1.5V89.7z M155.8,89.7V96h1.2l0-2.7c0-0.5,0-1.3-0.1-1.8
	c0.1,0.4,0.5,1.3,0.9,2.1l1.1,2.4h1.3v-6.3H159l0,2.6c0,0.4,0.1,1.2,0.1,1.7c-0.1-0.5-0.4-1.1-0.7-1.8l-1.2-2.5H155.8z M150.1,89.7
	v4.4c0,0.6,0.1,0.9,0.3,1.2c0.4,0.6,1.1,0.8,2,0.8c1.4,0,2-0.7,2.2-1.2c0.1-0.3,0.1-0.4,0.1-1v-4.3h-1.3v4.1c0,0.3,0,0.4,0,0.6
	c-0.1,0.5-0.4,0.7-1,0.7c-0.4,0-0.7-0.2-0.9-0.4c-0.1-0.2-0.1-0.3-0.1-0.8v-4.2H150.1z M146.6,90.6c-0.4,0-0.8,0.2-1,0.6
	c-0.2,0.4-0.3,1-0.3,1.7c0,1.1,0.2,1.8,0.6,2c0.2,0.1,0.5,0.2,0.8,0.2c0.9,0,1.3-0.7,1.3-2.3c0-0.6-0.1-1.1-0.2-1.5
	C147.6,91.1,147.2,90.6,146.6,90.6z M146.6,89.6c1.7,0,2.7,1.2,2.7,3.2c0,1.4-0.5,2.5-1.4,3c-0.4,0.2-0.7,0.3-1.3,0.3
	c-1,0-1.6-0.3-2.1-0.9c-0.5-0.6-0.7-1.4-0.7-2.4c0-1.4,0.5-2.5,1.4-3C145.7,89.7,146.1,89.6,146.6,89.6z M140.2,89.7V96h1.3v-2.8
	h1.6v-1h-1.6v-1.5h2l0.1-1H140.2z M133.5,90.6c-0.4,0-0.8,0.2-1,0.6c-0.2,0.4-0.3,1-0.3,1.7c0,1.1,0.2,1.8,0.6,2
	c0.2,0.1,0.5,0.2,0.8,0.2c0.9,0,1.3-0.7,1.3-2.3c0-0.6-0.1-1.1-0.2-1.5C134.5,91.1,134.1,90.6,133.5,90.6z M133.5,89.6
	c1.7,0,2.7,1.2,2.7,3.2c0,1.4-0.5,2.5-1.4,3c-0.4,0.2-0.7,0.3-1.3,0.3c-1,0-1.6-0.3-2.1-0.9c-0.5-0.6-0.7-1.4-0.7-2.4
	c0-1.4,0.5-2.5,1.4-3C132.6,89.7,133,89.6,133.5,89.6z M126.9,90.7V95h0.7c0.8,0,1.2-0.6,1.2-2c0-0.7-0.1-1.4-0.3-1.8
	c-0.2-0.3-0.5-0.5-1-0.5H126.9z M125.6,89.7h1.3c0.4,0,0.8,0,1.1,0c0.5,0,1,0.3,1.4,0.6c0.6,0.6,0.9,1.4,0.9,2.5
	c0,0.9-0.2,1.6-0.6,2.2c-0.4,0.5-0.9,0.8-1.5,0.9c-0.2,0-0.5,0-0.9,0h-1.5V89.7z M121.7,93.5h1.2c0,0-0.2-0.7-0.3-1.3
	c-0.1-0.3-0.3-1.1-0.3-1.1s-0.2,0.7-0.3,1.2C122,92.7,121.9,93,121.7,93.5z M121.7,89.7h1.4l2,6.3h-1.4l-0.4-1.5h-1.9L121,96h-1.3
	L121.7,89.7z M116.4,90.7l0,1.7h0.4c0.5,0,0.8-0.1,1-0.2c0.2-0.1,0.2-0.4,0.2-0.6c0-0.4-0.2-0.7-0.5-0.8c-0.1-0.1-0.4-0.1-0.7-0.1
	H116.4z M115.1,89.7l2.4,0c1.1,0,1.9,0.8,1.9,1.9c0,0.9-0.6,1.7-1.4,1.7c0.1,0.1,0.2,0.2,0.3,0.3c0.4,0.5,1.5,2.5,1.5,2.5h-1.5
	c-0.2-0.4-0.3-0.6-0.6-1c-0.6-1.1-0.8-1.4-1-1.6c-0.1,0-0.1,0-0.2-0.1V96h-1.3V89.7z M111.5,90.6c-0.4,0-0.8,0.2-1,0.6
	c-0.2,0.4-0.3,1-0.3,1.7c0,1.1,0.2,1.8,0.6,2c0.2,0.1,0.5,0.2,0.8,0.2c0.9,0,1.3-0.7,1.3-2.3c0-0.6-0.1-1.1-0.2-1.5
	C112.6,91.1,112.2,90.6,111.5,90.6z M111.6,89.6c1.7,0,2.7,1.2,2.7,3.2c0,1.4-0.5,2.5-1.4,3c-0.4,0.2-0.7,0.3-1.3,0.3
	c-1,0-1.6-0.3-2.1-0.9c-0.5-0.6-0.7-1.4-0.7-2.4c0-1.4,0.5-2.5,1.4-3C110.6,89.7,111.1,89.6,111.6,89.6z M105,89.7V96h3.3l0.2-1.1
	h-2.3v-5.3H105z M101.3,90.6c-0.4,0-0.8,0.2-1,0.6c-0.2,0.4-0.3,1-0.3,1.7c0,1.1,0.2,1.8,0.6,2c0.2,0.1,0.5,0.2,0.8,0.2
	c0.9,0,1.3-0.7,1.3-2.3c0-0.6-0.1-1.1-0.2-1.5C102.3,91.1,102,90.6,101.3,90.6z M101.3,89.6c1.7,0,2.7,1.2,2.7,3.2
	c0,1.4-0.5,2.5-1.4,3c-0.4,0.2-0.7,0.3-1.3,0.3c-1,0-1.6-0.3-2.1-0.9c-0.5-0.6-0.7-1.4-0.7-2.4c0-1.4,0.5-2.5,1.4-3
	C100.4,89.7,100.9,89.6,101.3,89.6z M98.2,90c-0.3-0.3-1-0.5-1.6-0.5c-1,0-1.9,0.5-2.4,1.5c-0.3,0.5-0.4,1.2-0.4,2
	c0,0.9,0.3,1.7,0.8,2.3c0.5,0.6,1.2,0.9,2.1,0.9c0.7,0,1.3-0.2,1.8-0.6l-0.6-0.8c0,0-0.1,0.1-0.1,0.1c-0.3,0.2-0.6,0.3-1,0.3
	c-0.5,0-1-0.2-1.2-0.7c-0.2-0.3-0.3-0.8-0.3-1.7c0-0.7,0.1-1.3,0.4-1.6c0.2-0.3,0.6-0.5,1.1-0.5c0.4,0,0.7,0.1,1,0.4L98.2,90z
	 M87,89.7V96h1.3v-2.8h1.6v-1h-1.6v-1.5h2l0.1-1H87z M83.3,90.6c-0.4,0-0.8,0.2-1,0.6c-0.2,0.4-0.3,1-0.3,1.7c0,1.1,0.2,1.8,0.6,2
	c0.2,0.1,0.5,0.2,0.8,0.2c0.9,0,1.3-0.7,1.3-2.3c0-0.6-0.1-1.1-0.2-1.5C84.3,91.1,84,90.6,83.3,90.6z M83.4,89.6
	c1.7,0,2.7,1.2,2.7,3.2c0,1.4-0.5,2.5-1.4,3c-0.4,0.2-0.7,0.3-1.3,0.3c-1,0-1.6-0.3-2.1-0.9c-0.5-0.6-0.7-1.4-0.7-2.4
	c0-1.4,0.5-2.5,1.4-3C82.4,89.7,82.9,89.6,83.4,89.6z M73.8,89.7V96h3.3l0.2-1.1h-2.3v-5.3H73.8z M69.9,93.5h1.2
	c0,0-0.2-0.7-0.3-1.3c-0.1-0.3-0.3-1.1-0.3-1.1s-0.2,0.7-0.3,1.2C70.1,92.7,70,93,69.9,93.5z M69.9,89.7h1.4l2,6.3h-1.4l-0.4-1.5
	h-1.9L69.1,96h-1.3L69.9,89.7z M64.1,89.7v1.1h1.5V96h1.3v-5.3h1.5l0.2-1.1H64.1z M59,89.7V96h1.2l0-2.7c0-0.5,0-1.3-0.1-1.8
	c0.1,0.4,0.5,1.3,0.9,2.1l1.1,2.4h1.3v-6.3h-1.2l0,2.6c0,0.4,0.1,1.2,0.1,1.7c-0.1-0.5-0.4-1.1-0.7-1.8l-1.2-2.5H59z M54.4,89.7V96
	h3.7v-1.1h-2.4v-1.7h1.8v-1h-1.8v-1.5h2.2l0.2-1H54.4z M50.2,90.7V95h0.7c0.8,0,1.2-0.6,1.2-2c0-0.7-0.1-1.4-0.3-1.8
	c-0.2-0.3-0.5-0.5-1-0.5H50.2z M48.9,89.7h1.3c0.4,0,0.8,0,1.1,0c0.5,0,1,0.3,1.4,0.6c0.6,0.6,0.9,1.4,0.9,2.5
	c0,0.9-0.2,1.6-0.6,2.2c-0.4,0.5-0.9,0.8-1.5,0.9c-0.2,0-0.5,0-0.9,0h-1.5V89.7z M42.4,93.5h1.2c0,0-0.2-0.7-0.3-1.3
	c-0.1-0.3-0.3-1.1-0.3-1.1s-0.2,0.7-0.3,1.2C42.6,92.7,42.5,93,42.4,93.5z M42.3,89.7h1.4l2,6.3h-1.4l-0.4-1.5H42L41.6,96h-1.3
	L42.3,89.7z M36.6,89.7v1.1h1.5V96h1.3v-5.3h1.5l0.2-1.1H36.6z M33.5,89.7V96h3.3L37,95h-2.3v-5.3H33.5z M28.8,89.7V96h3.7v-1.1
	h-2.4v-1.7h1.8v-1h-1.8v-1.5h2.2l0.2-1H28.8z M24.6,90.7V95h0.7c0.8,0,1.2-0.6,1.2-2c0-0.7-0.1-1.4-0.3-1.8c-0.2-0.3-0.5-0.5-1-0.5
	H24.6z M23.3,89.7h1.3c0.4,0,0.8,0,1.1,0c0.5,0,1,0.3,1.4,0.6c0.6,0.6,0.9,1.4,0.9,2.5c0,0.9-0.2,1.6-0.6,2.2
	c-0.4,0.5-0.9,0.8-1.5,0.9c-0.2,0-0.5,0-0.9,0h-1.5V89.7z"/>
</svg>
