<svg xmlns="http://www.w3.org/2000/svg" xmlns:xlink="http://www.w3.org/1999/xlink" width="0" height="0" style="position:absolute">
	
		<symbol id="apple" viewBox="0 0 56 64">
			<path d="M53.3 23.1c-2.5-6.2-7.7-10-14.1-10.2-1.8-.1-3.7.1-6 .5-.8.1-1.5.4-2.3.6-.4.1-.9.2-1.3.3.2-2.9 1.2-8.1 6-10.6L34 .5c-3.7 1.9-6.2 5.3-7.4 9.9-.4 1.5-.5 2.9-.6 4-.4-.1-.9-.2-1.3-.4-.7-.2-1.5-.4-2.3-.6-2.3-.4-4.2-.6-6-.5-6.3.2-11.6 4.1-14.1 10.2-4 9.9-1.8 21.7 5.8 30.7 2.3 2.7 4.7 5 7.4 6.7 1.5 1 3.8 2.5 6.3 2.5 2.6 0 4.7-.8 5.9-1.4 1.2.6 3.3 1.4 5.9 1.4 2.4 0 4.8-1.5 6.3-2.5 2.7-1.8 5.1-4 7.4-6.7 5.1-6.1 7.8-13.4 7.8-20.5.1-3.5-.5-7-1.8-10.2z"></path>
		</symbol>
	
		<symbol id="baby" viewBox="0 0 45 64">
			<path d="M31.7 40.3l6.1 6.1c1.9 2 1.4 5.4-.4 7.3l-8.5 8.8c-3.3 3.3-7.7-1.3-4.5-4.4l5.4-5.4-5.3-5.2 7.2-7.2zm-18.9 0l-6.1 6.1c-2 2-1.5 5.4.4 7.3l8.5 8.8c3.3 3.3 7.6-1.3 4.5-4.4l-5.4-5.4 5.2-5.2-7.1-7.2zm9.7-22.6c4.9 0 8.8-3.9 8.8-8.8S27.3.1 22.5.1c-4.9 0-8.8 3.9-8.8 8.8 0 4.8 3.9 8.8 8.8 8.8zm9.6 19.1l.1-6 7.3 6.8c.6.6 1.4.8 2.1.8.8 0 1.7-.3 2.3-1 1.2-1.3 1.1-3.2-.1-4.4 0 0-8.4-9.1-9.6-10.2-2.2-2-5.5-3.1-10.8-3.1h-1.7c-5.3 0-8.6 1.1-10.9 3.1C9.6 23.9 1.2 33 1.2 33c-1.3 1.2-1.3 3.1-.1 4.4.6.7 1.4 1 2.3 1 .8 0 1.5-.3 2.1-.8l7.3-6.8.1 6h19.2z"></path>
		</symbol>
	
		<symbol id="chair" viewBox="0 0 53 44">
			<path d="M37.5 20.9c-1-.3-2-.7-2.6-.7h-8.8V17h9.8c0-2-1.3-3.3-3.3-3.3h-13c0 2 1.3 3.3 3.3 3.3v3.2c-1.6 0-3.3-.7-3.9-1.9l-3.6-5.9c-1-1.3-2.3-2-3.6-2h-2V8.2c0-1-.3-1.6-.7-2.6l-1-2.3C7.1 1.7 5.2.7 3.2.7H0l16.3 22.8c1.3 2 3.6 3.3 5.9 3.3h3.9v3.3h-3.2v6.5h-2c-3 0-5.9 1.3-7.8 3.3H9.8v3.3h35.9v-3.3h-3.3c-1.9-2-4.9-3.3-7.8-3.3h-2v-6.5h-3.3v-3.3h5.2c.7 0 1.6.3 2.3.7l5.5 2.9c3 1.6 6.5 1.6 9.5 0h.3l-14.6-9.5z"></path>
		</symbol>
	
		<symbol id="double-down" viewBox="0 0 46 44">
			<path d="M22.1 26c.3.3.6.4 1 .4s.7-.1 1-.4L44.8 5.2c.3-.3.4-.6.4-1s-.1-.7-.4-1L42.6 1c-.3-.3-.6-.4-1-.4s-.7.1-1 .4L23.1 18.4 5.6 1C5.3.7 5 .5 4.6.5s-.7.1-1 .4L1.3 3.2c-.3.3-.4.6-.4 1s.1.7.4 1L22.1 26"></path><path d="M42.6 18c-.3-.3-.6-.4-1-.4s-.7.1-1 .4L23.1 35.5 5.6 18c-.3-.3-.6-.4-1-.4s-.7.1-1 .4l-2.2 2.2c-.3.3-.4.6-.4 1s.1.7.4 1L22.1 43c.3.3.6.4 1 .4s.7-.1 1-.4l20.7-20.7c.3-.3.4-.6.4-1s-.1-.7-.4-1L42.6 18"></path>
		</symbol>
	
		<symbol id="download" viewBox="0 0 24 32">
			<path d="M7.3 15.4c-.2-.2-.5-.2-.8 0-.2.2-.2.5 0 .8l5.3 5.3c.1.1.2.2.4.2s.3-.1.4-.2l5.3-5.3c.2-.2.2-.5 0-.8-.2-.2-.5-.2-.8 0l-4.4 4.4V.8c0-.3-.2-.5-.5-.5s-.5.2-.5.5v19l-4.4-4.4z"></path><path d="M16 8.8c-.3 0-.5.2-.5.5s.2.5.5.5h6.9v20.7H1.6V9.9h6.9c.3 0 .5-.2.5-.5s-.2-.5-.5-.5h-8v22.9H24v-23h-8z"></path>
		</symbol>
	
		<symbol id="email" viewBox="0 0 29 29">
			<path d="M14.4.4C6.5.4.2 6.7.2 14.6c0 7.8 6.4 14.2 14.2 14.2 7.8 0 14.2-6.4 14.2-14.2C28.6 6.7 22.2.4 14.4.4zm0 4.9l8.4 5.2H6l8.4-5.2zM22.9 19c0 .8-.7 1.5-1.5 1.5h-14c-.8 0-1.5-.7-1.5-1.5v-8-.3l8 5h.1c.1 0 .1.1.2.1h.4c.1 0 .1 0 .2-.1h.1l8-5V19z"></path>
		</symbol>
	
		<symbol id="handshake" viewBox="0 0 43 29">
			<path d="M40.6 8.5l-5.5 6.1-2.4-2.2c-.8-.7-2.1-1.8-3-2.5L26 7.3c-.6-.4-1.4-.7-2.3-.7-.7 0-1.4.2-1.9.5l-1.3.8c-.2.1-.4.2-.6.2-.4 0-.8-.2-1-.5l-.3-.4c-.1-.2-.2-.4-.2-.6 0-.3.1-.6.4-.8L22.7 3c.3-.2.9-.4 1.4-.4.4 0 .7.1.9.2l3.2 1.5c.5.3 1.2.4 1.9.4.9 0 1.7-.2 2.4-.6l3.3-2c.2-.1.4-.2.6-.2.4 0 .8.2 1 .4l3.3 4.3c.2.2.3.5.3.8-.1.5-.2.9-.4 1.1zM14.7 24.4l2-2.1c.2-.2.4-.3.7-.3.3 0 .5.1.7.3l.4.3c.2.2.3.4.3.7 0 .3-.1.5-.3.7l-2 2.1c-.2.2-.4.3-.7.3-.3 0-.5-.1-.7-.3l-.4-.3c-.2-.2-.3-.4-.3-.7 0-.3.1-.6.3-.7zm-4.4-1.7l3.3-3.5c.2-.2.4-.3.7-.3.3 0 .5.1.7.3l.4.3c.2.2.3.4.3.7 0 .3-.1.5-.3.7l-3.2 3.3c-.2.2-.4.3-.7.3-.3 0-.5-.1-.7-.3l-.4-.2c-.2-.2-.3-.4-.3-.7 0-.2 0-.4.2-.6zm-3.9-2.2c1.4-1.5 4.6-4.8 4.8-5 .2-.2.4-.3.7-.3.3 0 .5.1.7.3l.4.3c.2.2.3.4.3.7 0 .3-.1.5-.3.7l-4.8 5c-.2.2-.4.3-.7.3-.3 0-.5-.1-.7-.3l-.4-.3c-.2-.2-.3-.4-.3-.7.1-.3.2-.5.3-.7zm-2-4.1L8 12.7c.2-.2.4-.3.7-.3.3 0 .5.1.7.3l.3.3c.1.2.3.6.3.7 0 .2-.1.4-.2.5-.2.2-2.7 2.8-3.8 4-.2.1-.4.2-.6.2-.3 0-.5-.1-.7-.3l-.4-.3c-.2-.2-.3-.4-.3-.7.2-.3.2-.5.4-.7zm22.5-1l6.2 5.7c.2.2.3.4.3.7 0 .3-.1.5-.3.7l-.3.4c-.2.2-.4.3-.7.3-.3 0-.5-.1-.7-.3l-5.8-5.4-1.2 1.5 5.2 4.8c.2.2.3.4.3.7 0 .3-.1.5-.3.7l-.3.4c-.2.2-.4.3-.7.3-.3 0-.5-.1-.7-.3l-5-4.6-.1-.2-1.2 1.2-.2.2.2.1 2.5 2.3c.2.2.3.4.3.7 0 .3-.1.5-.3.7l-.3.4c-.2.2-.4.3-.7.3-.3 0-.5-.1-.7-.3l-2.1-1.9c.2-.4.3-.8.3-1.1 0-.8-.3-1.5-.9-2l-.4-.3c-.5-.5-1.2-.8-1.9-.8-.1-.7-.8-1.8-.8-1.8l-.4-.4c-.3-.3-.8-.6-1.2-.7.1-.2.1-.5.1-.7 0-.8-.3-1.5-.9-2l-.4-.3c-.5-.5-1.2-.8-2-.8-.1-.6-.3-1.2-.8-1.7l-.4-.4c-.5-.5-1.2-.8-2-.8s-1.5.3-2 .9l-.6.5-3.6-3c-.2-.2-.4-.5-.4-.8 0-.2.1-.5.2-.6l4-4.4c.2-.2.4-.3.6-.4.2-.1.5-.2.8-.2.2 0 .4 0 .6.1l2.2.9c.6.3 1.3.4 2.1.5.8 0 1.5-.1 2.1-.4l2.2-.9c.3-.1.8-.2 1.2-.2.5 0 1 .1 1.3.3h.1c.1 0 .1.1.2.1l-1.9 1.4c-.7.5-1.2 1.4-1.2 2.3 0 .6.2 1.2.6 1.7l.3.4c.6.8 1.5 1.2 2.5 1.2.5 0 1.1-.1 1.5-.4l1.3-.8c.2-.1.6-.2 1-.2s.9.1 1.2.3l3.7 2.6c.8.6 2.1 1.7 2.9 2.3l4.2 3.9c.2.2.3.4.3.7 0 .3-.1.5-.3.7l-.3.4c-.2.2-.4.3-.7.3-.3 0-.5-.1-.7-.3l-5.8-5.4-1.3 1.2zm15.2-9.8l-3.3-4.3C38.2.6 37.3.1 36.4.1c-.6 0-1.1.2-1.6.4l-3.3 2c-.3.4-.9.5-1.4.5-.4 0-.8-.1-1.1-.2l-3.2-1.5c-.5-.2-1.1-.4-1.8-.4-.9 0-1.8.3-2.5.7l-.3.2c-.3-.1-.7-.3-1.2-.6-.6-.3-1.3-.4-2.2-.4-.7 0-1.4.1-2 .4l-2.2.9c-.3.1-.9.2-1.4.2-.5 0-1.1-.1-1.4-.2l-1.9-1C8.5 1 8.1.9 7.6.9s-1 .1-1.5.3c-.5.2-.9.5-1.2.9l-4 4.4C.4 7 .2 7.7.2 8.3c0 .8.4 1.6 1 2.1l3.5 3-1.6 1.7c-.5.5-.8 1.2-.8 1.9 0 .8.3 1.5.9 2l.4.3c.3.3.6.5 1 .6-.2.4-.2.7-.2 1.1 0 .8.3 1.5.9 2l.4.3c.5.5 1.2.8 2 .8.3 0 .6 0 .9-.1.1.4.4.8.7 1.1l.4.3c.5.5 1.2.8 2 .8.5 0 .9-.1 1.3-.3.2.4.4.7.7 1l.4.3c.5.5 1.2.8 2 .8s1.5-.3 2-.9l1.4-1.5 2 1.8c.5.5 1.2.8 1.9.8.8 0 1.5-.3 2.1-.9l.3-.4c.2-.2.4-.5.5-.8l.6.5c.5.5 1.2.8 1.9.8.8 0 1.5-.3 2.1-.9l.3-.4c.3-.4.6-.8.7-1.3h.5c.8 0 1.5-.3 2.1-.9l.3-.4c.5-.5.8-1.2.8-1.9v-.4c.6-.1 1.1-.4 1.5-.8l.3-.4c.5-.5.8-1.2.8-1.9 0-.8-.3-1.5-.9-2.1l-.5-.4L42 9.7c.5-.6.8-1.3.8-2.1 0-.7-.3-1.4-.7-2z"></path>
		</symbol>
	
		<symbol id="health" viewBox="0 0 40 41">
			<path d="M26.6 19.9c-.3 1.9-2.5 4-4.3 5.7 0 0-.9.9-1.2 1.1-.2.2-.6.5-1.1.5-.5 0-.9-.3-1.1-.5-.3-.2-1.2-1.1-1.2-1.1-1.8-1.7-4-3.8-4.3-5.7-.1-.3-.1-.6-.1-.9 0-.9.2-1.7.7-2.3.6-.8 1.6-1.3 3-1.5h.4c1 0 1.9.4 2.7 1 .7-.6 1.7-1 2.7-1h.4c1.4.1 2.3.6 3 1.5.4.8.6 1.9.4 3.2m8.2-6h-8.1V5.8C26.7 3 24.4.7 21.6.7h-3.4c-2.8 0-5.1 2.3-5.1 5.1v8.1h-8C2.3 13.9 0 16.1 0 19v3.4c0 2.8 2.3 5.1 5.1 5.1h8.1v8.1c0 2.8 2.3 5.1 5.1 5.1h3.4c2.8 0 5.1-2.3 5.1-5.1v-8.1h8.1c2.8 0 5.1-2.3 5.1-5.1V19c-.1-2.9-2.4-5.1-5.2-5.1"></path>
		</symbol>
	
		<symbol id="juice" viewBox="0 0 56 66">
			<path d="M50.9 5.2C48.1 2.4 44.4.9 40.5.9S32.8 2.5 30 5.2c-2.3 2.3-3.7 5.2-4.2 8.3h-8.6V7.2c0-3.5-2.8-6.3-6.3-6.3H2.5C1.4.9.4 1.9.4 3c0 1.2.9 2.1 2.1 2.1H11c1.2 0 2.1.9 2.1 2.1v6.3H6.7c-.6 0-1.2.2-1.6.7-.4.4-.6 1-.5 1.6l3.3 37.1h31.4l2-22.5c3.6-.2 7-1.7 9.6-4.3 2.8-2.8 4.3-6.5 4.3-10.4S53.7 8 50.9 5.2zM31.7 9.9l3.7 3.7h-5.2c.2-1.4.7-2.6 1.5-3.7zM18 41.7c-1.2 0-2.1-.9-2.1-2.1 0-1.2.9-2.1 2.1-2.1 1.2 0 2.1.9 2.1 2.1 0 1.1-1 2.1-2.1 2.1zm11.2 7c-1.2 0-2.1-.9-2.1-2.1 0-1.2.9-2.1 2.1-2.1 1.2 0 2.1.9 2.1 2.1 0 1.2-.9 2.1-2.1 2.1zm8-19.9c-1.6.1-3.2.4-4.7 1.2-3.6 1.8-6.5-.1-7.9-.6-2.5-.9-5.4-.9-8.1.2-1.3.5-3.5 1.8-6.4.8L9 17.8h29.1l-.9 11zm3.3-16.1l-5.8-5.8c1.7-1.1 3.7-1.7 5.8-1.7 2.1 0 4.1.6 5.8 1.7l-5.8 5.8zm1.2 13.5l.5-5.8 4.1 4.1c-1.4.9-3 1.5-4.6 1.7zm7.6-4.7l-5.8-5.8 5.8-5.8c1.1 1.7 1.7 3.7 1.7 5.8s-.6 4.1-1.7 5.8zM8.3 57.2l.6 6.5c.1 1.1 1 1.9 2.1 1.9h25.3c1.1 0 2-.8 2.1-1.9l.6-6.5H8.3z"></path>
		</symbol>
	
		<symbol id="phone" viewBox="0 0 29 29">
			<path d="M14.7.3C6.8.3.5 6.6.5 14.5c0 7.8 6.4 14.2 14.2 14.2s14.2-6.4 14.2-14.2C28.9 6.6 22.5.3 14.7.3zM22.2 21L21 22.1c-.2.2-.8.3-.8.3-3.6 0-7.1-1.4-9.6-3.9-2.6-2.6-4-6-3.9-9.6 0 0 .1-.6.3-.8L8.2 7c.4-.4 1.2-.6 1.8-.4l.2.1c.6.2 1.1.8 1.3 1.4l.6 2.1c.2.6-.1 1.4-.5 1.8l-.8.8c.7 2.8 2.9 4.9 5.7 5.7l.8-.8c.4-.4 1.2-.6 1.8-.5l2.1.6c.6.2 1.2.7 1.4 1.3l.1.2c.1.5-.1 1.3-.5 1.7z"></path>
		</symbol>
	
		<symbol id="piggy" viewBox="0 0 39 36">
			<path d="M36.3 20.1c0 .5-.4.8-.8.8h-1.2c-.4 0-.8.3-.9.7-.7 2.3-2.1 4.4-4 6.1l-.2.2c-2.1 1.9-2.3 4.1-2.3 4.7v1.5H21v-1.4c0-.3-.1-.5-.3-.7-.2-.2-.4-.2-.6-.2H20c-.6.1-1.3.1-1.9.1-.8 0-1.7-.1-2.5-.2-.3 0-.5 0-.7.2-.2.2-.3.4-.3.7V34h-6v-.5c0-1.1-.4-3.7-2.5-5.9-1-1-1.9-2.4-2.7-4-.4-.9-.8-1.8-1-2.7-.2-.9-.3-1.9-.3-2.8C2.1 10.4 9.2 4.2 18 4.2c1.9 0 3.7.3 5.4.8.4.1.8 0 1.1-.4.7-1 2.1-2.3 4.8-2.7.1 0 .1 0 .1.1v.1c-1 1.7-1.3 3.4-.9 5 0 .3.1.5.4.7 2.1 1.7 3.7 3.9 4.5 6.3.1.4.5.7.9.7h1.3c.5 0 .8.4.8.8l-.1 4.5zm-.8-7.1h-.6c-.9-2.4-2.5-4.6-4.6-6.3-.3-1.1-.1-2.3.7-3.5.4-.6.4-1.4.1-2-.4-.6-1-1-1.7-1h-.3c-2.9.4-4.7 1.7-5.7 2.9-1.7-.5-3.5-.7-5.4-.7C13.3 2.3 8.8 4 5.4 6.9 2 9.9.1 13.8.1 18c0 1.1.1 2.2.4 3.2v.1c.3 1.1.7 2.1 1.2 3.1.8 1.8 1.9 3.4 3 4.5 1.6 1.7 1.9 3.8 1.9 4.6v.6c.1 1 .9 1.7 1.9 1.7h5.8c1 0 1.9-.9 1.9-1.9v-.4c.9.1 1.8.1 2.7 0v.4c0 1 .9 1.9 1.9 1.9h5.8c1 0 1.9-.9 1.9-1.9v-1.4c0-.3.1-1.9 1.7-3.3l.2-.2h.1c2-1.8 3.4-3.9 4.3-6.2h.5c1.5 0 2.7-1.2 2.7-2.7v-4.4c.2-1.5-1-2.7-2.5-2.7z"></path><path d="M19 17.1h-2.1c-.8 0-1.4-.6-1.4-1.4 0-.8.6-1.4 1.4-1.4h3.7c.5 0 .9-.4.9-.9s-.4-.9-.9-.9h-1.7v-1.3c0-.5-.4-.9-.9-.9s-.9.4-.9.9v1.3H17c-1.8 0-3.3 1.5-3.3 3.2 0 1.8 1.5 3.3 3.3 3.3h2c.8 0 1.4.6 1.4 1.4s-.6 1.4-1.4 1.4h-3.8c-.5 0-.9.4-.9.9s.4.9.9.9H17v1.3c0 .5.4.9.9.9s.9-.4.9-.9v-1.3h.2c1.8 0 3.2-1.5 3.2-3.2.1-1.8-1.4-3.3-3.2-3.3"></path>
		</symbol>
	
		<symbol id="pin" viewBox="0 0 29 29">
			<path d="M14.7 0C6.8 0 .5 6.4.5 14.2c0 7.8 6.4 14.2 14.2 14.2 7.8 0 14.2-6.4 14.2-14.2C28.9 6.4 22.5 0 14.7 0zm0 6.5c2.5 0 4.4 2 4.4 4.4 0 2.9-3.1 5.9-4.4 7-.1-.1-.2-.2-.3-.2-1.4-1.2-4.1-4-4.1-6.7 0-2.5 2-4.4 4.4-4.5zm0 15.5c-2.6 0-5.3-.8-5.3-2.2 0-1 1.3-1.7 3-2l.9.9c-1.8.2-2.9.8-2.9 1.1 0 .4 1.6 1.2 4.3 1.2 2.7 0 4.3-.8 4.3-1.2 0-.4-1.1-.9-3-1.1.3-.2.6-.5.9-.9 1.7.3 3.1 1 3.1 2 0 1.5-2.6 2.2-5.3 2.2z"></path>
		</symbol>
	
		<symbol id="ribbon" viewBox="0 0 33 41">
			<path d="M3 26.3c-.6-1.1-.3-2.7.1-4.4.3-1.1.4-2.3.5-3.4 0-1.1-.2-2.3-.5-3.4-.4-1.7-.7-3.3-.1-4.4.7-1.1 2.3-1.7 4-2.2 1-.4 2-.8 3-1.3.9-.6 1.7-1.3 2.5-2 1.3-1.2 2.6-2.4 4-2.4s2.6 1.2 4 2.4c.8.8 1.6 1.4 2.5 2 1 .5 2 .9 3.1 1.2 1.7.5 3.3 1 4 2.2.6 1.1.3 2.7-.1 4.4-.3 1.1-.4 2.3-.5 3.4 0 1.1.2 2.3.5 3.4.4 1.7.7 3.3.1 4.4-.7 1.1-2.3 1.7-4 2.2-1.1.3-2.1.8-3.1 1.3-.9.6-1.7 1.3-2.5 2-1.3 1.2-2.6 2.4-4 2.4s-2.6-1.2-4-2.4c-.8-.8-1.6-1.4-2.5-2-1-.5-2-.9-3.1-1.2-1.7-.6-3.3-1.1-3.9-2.2zm3.2 4h.1c.9.3 1.8.6 2.7 1 .8.5 1.5 1.1 2.1 1.7l-2.9 3.7-.8-2.8c-.1-.4-.5-.7-1-.7h-.1l-2.9.4 2.8-3.3zm15.6 2.9c.7-.7 1.4-1.2 2.1-1.7.9-.4 1.8-.8 2.7-1h.2l2.7 3.5-2.9-.4c-.5-.1-1 .2-1.1.7l-.8 2.8-2.9-3.9zm10.8 1.3l-3.8-4.8c1.2-.5 2.2-1.3 2.9-2.4 1-1.8.6-3.8.1-5.8-.2-1-.4-2-.4-3s.2-2 .4-3c.4-2 .9-4.1-.1-5.8-1.1-1.8-3.1-2.5-5.1-3.1-.9-.3-1.8-.6-2.7-1.1-.8-.5-1.5-1.1-2.1-1.7C20.3 2.4 18.7.9 16.5.9c-2.2 0-3.9 1.5-5.3 2.9-.7.6-1.4 1.2-2.2 1.7-.9.4-1.8.8-2.7 1-2 .6-4 1.3-5.1 3.1-1 1.8-.6 3.8-.1 5.8.2 1 .4 2 .4 3s-.2 2-.4 3c-.4 2-.9 4.1.1 5.8.7 1.1 1.7 1.9 2.9 2.4L.3 34.4c-.3.4-.3 1.1.2 1.4.3.2.5.3.8.3l4.5-.6 1.1 3.8c.1.4.4.7.8.8h.2c.3 0 .6-.1.8-.4l4-5.2c1.1.9 2.4 1.5 3.8 1.6 1.4-.1 2.7-.7 3.8-1.6l4 5.2c.2.2.5.4.8.4h.2c.4-.1.7-.3.8-.7l1.1-3.8 4.5.6c.3 0 .5 0 .7-.2s.3-.4.4-.7c0-.4 0-.6-.2-.8z"></path><path d="M18.5 16.8H22l-2.8 2.1c-.4.3-.5.7-.4 1.1l1.1 3.3-2.8-2.1c-.4-.3-.8-.3-1.2 0l-2.8 2.1 1.1-3.3c.1-.4 0-.9-.4-1.1L11 16.8h3.5c.4 0 .8-.3 1-.7l1.1-3.3 1.1 3.3c0 .4.4.7.8.7zm-7.7 6.9c-.1.4-.1.9.1 1.3s.5.7 1 .8c.5.2 1.1.1 1.5-.2l3.1-2.3 3.1 2.2c.3.2.6.3 1 .3.3 0 .7-.1 1-.3.6-.4.8-1.2.6-1.9L21 20l3.1-2.3c.4-.3.6-.6.7-1.1.1-.4 0-.9-.3-1.2-.3-.4-.8-.7-1.3-.7h-3.8l-1.2-3.6c-.3-.9-1.2-1.4-2.1-1.1-.5.2-.9.6-1.1 1.1l-1.2 3.6H9.9c-.9 0-1.7.7-1.7 1.7 0 .5.3 1 .7 1.4L12 20l-1.2 3.7z"></path>
		</symbol>
	
		<symbol id="tap" viewBox="0 0 47 58">
			<g transform="translate(.823 5.5)"><path d="M44.4 9.2c-.6-7.9-7.3-14.1-15.3-14.1-8.5 0-15.3 6.9-15.3 15.3v41.9h-3.4V41.1H.1v11.2h36.7V41.1H26.5v11.2h-3.4V10.4c0-3.3 2.7-6 6-6 2.9 0 5.4 2.1 5.9 4.9-.7.6-1.2 1.5-1.2 2.5v3.6c0 1.7 1.4 3.1 3.1 3.1h5.7c1.7 0 3.1-1.4 3.1-3.1v-3.6c0-1.1-.5-2-1.3-2.6z"></path><path d="M40.8 21.1l-1.1-1-1.1 1c-.3.3-3 2.9-3 5.9 0 2.3 1.8 4.1 4.1 4.1s4.1-1.8 4.1-4.1c0-3-2.7-5.6-3-5.9zM.1 35.2v2.5h10.3v-6.6H4.1c-2.2 0-4 1.8-4 4.1zM32.7 31.1h-6.2v6.6h10.3v-2.5c0-2.3-1.9-4.1-4.1-4.1z"></path></g>
		</symbol>
	
		<symbol id="tooth-plain" viewBox="0 0 30 40">
			<path d="M29.5 5.9c-.5-2.7-1.9-4.4-4-5.1-1.5-.5-3.3-.5-5.6.2s-3.9 1.1-5 1.1-2.7-.4-5-1.1C7.6.4 5.7.3 4.3.8 2.2 1.6.8 3.3.2 5.9c-.3 1.6-.3 3.3.2 4.9.4 1.6 1 3.3 1.8 5 .8 1.7 1.2 3 1.4 4.1.1.6.1 1.9.1 4-.1 2.1 0 4.1.2 6.1.9 6.6 2.4 9.9 4.4 9.9.4 0 .8-.1 1.1-.4.3-.2.6-.6.7-1.2.2-.5.3-1.1.4-1.6.1-.5.1-1.2.1-2.1 0-.9-.1-1.6-.1-2.1s-.1-1.3-.1-2.2c-.1-1.6-.1-2.6-.1-3.2.3-3.6 1.9-5.4 4.6-5.4 2.7 0 4.3 1.8 4.6 5.4.1.6 0 1.7-.1 3.2-.1.9-.1 1.7-.2 2.2-.1.5-.1 1.2-.1 2.1 0 .9 0 1.6.1 2.1s.2 1 .4 1.6c.2.5.4.9.7 1.2.3.2.7.4 1.1.4 2 0 3.5-3.3 4.4-9.9.2-2 .3-4 .2-6.1-.1-2.1 0-3.5.1-3.9.2-1 .6-2.4 1.4-4.1.8-1.7 1.4-3.3 1.8-5 .5-1.7.6-3.3.2-5"></path>
		</symbol>
	
		<symbol id="tooth-sparkle" viewBox="0 0 31 38">
			<path d="M31 8.5c0 4.3-1.3 6.5-2.3 8-.3.4-.9.5-1.3.2s-.5-.9-.2-1.3c.9-1.2 2-3.1 2-6.9 0-3.9-3.3-6.7-7.8-6.7-1.9 0-3.7.9-5.1 2.6l-.1.1c-.1.1-.2.2-.2.3-1 1.5-2 2.9-5.1 2.9-.5 0-.9-.4-.9-.9s.4-.9.9-.9c2.1 0 2.6-.7 3.5-1.9-1.3-1.3-3-2.1-4.7-2.1-4.5 0-7.8 2.8-7.8 6.7 0 4.7 1.6 6.5 2.9 7.9 1.2 1.4 2.3 2.6 1.1 5.3-.3.7-.6 1.4-.7 2.2-.1.2-.2.4-.4.6-.1.1-.3.1-.5.1h-.2c-.5-.1-.8-.6-.7-1.1.2-.9.5-1.8.9-2.6.7-1.6.3-2-.8-3.3C1.9 16.1 0 13.9 0 8.5c0-2.3 1-4.5 2.7-6C4.5.9 6.9 0 9.7 0c2.1 0 4.2.9 5.8 2.5C17.1.9 19.2 0 21.3 0c2.7 0 5.2.9 6.9 2.5C30 4.1 31 6.2 31 8.5zm-3.4 23.6c-.5 2.1-1.3 3.9-2.1 4.9-.6.6-1.2 1-1.8 1-1.6 0-2.1-2-2.8-4.8-.5-1.9-1-4-1.9-5.6-.9-1.7-2-2.5-3.5-2.5-1.4 0-2.5.8-3.5 2.5-.9 1.6-1.4 3.7-1.9 5.6C9.4 36 8.9 38 7.3 38c-.6 0-1.2-.3-1.7-.9-.8-.9-1.6-2.5-2.1-4.4-.4-1.5-.8-3.8-.6-6.6 0-.2.1-.5.3-.6.2-.2.4-.2.7-.2.5 0 .9.5.8 1-.1 1.9.1 4 .5 5.9.4 1.6 1 3 1.7 3.7l.3.3c.1-.1.2-.3.3-.6.3-.7.5-1.7.8-2.8 1-4 2.4-9.4 7.1-9.4 4.7 0 6.1 5.4 7.1 9.4.3 1.1.5 2.1.8 2.8.1.3.2.5.3.6.1 0 .2-.1.4-.3 1.3-1.4 2.7-5.9 2.1-10.5 0-.2 0-.5.2-.7.1-.2.4-.3.6-.3.2 0 .5 0 .7.2.2.1.3.4.3.6.3 2.1.2 4.6-.3 6.9zM27 19.6c-.3.2-.5.5-.7.8-.1.1-.2.3-.3.4-.1-.2-.2-.3-.3-.4-.2-.3-.5-.6-.7-.8.3-.2.5-.5.7-.8.1-.1.2-.3.3-.4.1.2.2.3.3.4.2.3.4.6.7.8zm1.9-.7c-1.2 0-2.2-1.5-2.2-3.4 0-.4-.3-.7-.7-.7-.4 0-.7.3-.7.7 0 1.8-1 3.4-2.2 3.4-.4 0-.7.3-.7.7s.3.7.7.7c1.2 0 2.2 1.5 2.2 3.4 0 .4.3.7.7.7.4 0 .7-.3.7-.7 0-1.8 1-3.4 2.2-3.4.4 0 .7-.3.7-.7s-.3-.7-.7-.7zm-10.7-3.4c-.3.2-.5.5-.7.8-.1.1-.2.3-.3.4-.1-.2-.2-.3-.3-.4-.2-.3-.5-.6-.7-.8.3-.2.5-.5.7-.8.1-.1.2-.3.3-.4.1.2.2.3.3.4.2.3.5.6.7.8zm1.9-.7c-1.2 0-2.2-1.5-2.2-3.4 0-.4-.3-.7-.7-.7-.4 0-.7.3-.7.7 0 1.8-1 3.4-2.2 3.4-.4 0-.7.3-.7.7 0 .4.3.7.7.7 1.2 0 2.2 1.5 2.2 3.4 0 .4.3.7.7.7.4 0 .7-.3.7-.7 0-1.8 1-3.4 2.2-3.4.4 0 .7-.3.7-.7 0-.4-.3-.7-.7-.7zm5.4-5.7c-.7.5-1.4 1.2-1.8 2.1-.4-.9-1.1-1.6-1.8-2.1.7-.5 1.4-1.2 1.8-2.1.4.9 1 1.6 1.8 2.1zm2.2-.7c-1.9 0-3.4-2-3.4-4.5 0-.4-.3-.7-.7-.7-.4 0-.7.3-.7.7 0 2.5-1.5 4.5-3.4 4.5-.4 0-.7.3-.7.7 0 .4.3.7.7.7 1.9 0 3.4 2 3.4 4.5 0 .4.3.7.7.7.4 0 .7-.3.7-.7 0-2.5 1.5-4.5 3.4-4.5.4 0 .7-.3.7-.7 0-.4-.3-.7-.7-.7z"></path>
		</symbol>
	
		<symbol id="web" viewBox="0 0 29 29">
			<path d="M14.7.5C6.8.5.5 6.9.5 14.7c0 7.8 6.4 14.2 14.2 14.2 7.8 0 14.2-6.4 14.2-14.2C28.9 6.9 22.5.5 14.7.5zm5.6 8.9l-3.6 10.2c0 .1-.1.1-.2.2-.1 0-.2 0-.2-.1l-1.8-2.5-3 3s-.1.1-.2.1-.1 0-.2-.1l-1.8-1.8c-.1-.1-.1-.3 0-.3l3-3-2.5-1.8c-.1-.1-.1-.1-.1-.2s.1-.2.2-.2l10.2-3.6c.1 0 .2 0 .3.1-.1-.2-.1-.1-.1 0z"></path>
		</symbol>
	
</svg>
